<?xml version="1.0" encoding="utf-8"?>
<!-- Generator: Adobe Illustrator 25.4.1, SVG Export Plug-In . SVG Version: 6.00 Build 0)  -->
<svg version="1.1" id="Layer_1" xmlns="http://www.w3.org/2000/svg" xmlns:xlink="http://www.w3.org/1999/xlink" x="0px" y="0px"
	 viewBox="0 0 108.5 120.7" style="enable-background:new 0 0 108.5 120.7;" xml:space="preserve">
<style type="text/css">
	.st0{fill-rule:evenodd;clip-rule:evenodd;fill:#2B2A29;}
	.st1{fill-rule:evenodd;clip-rule:evenodd;fill:#865222;}
	.st2{fill-rule:evenodd;clip-rule:evenodd;fill:#F9C3A1;}
	.st3{fill-rule:evenodd;clip-rule:evenodd;fill:#FEFEFE;}
	.st4{fill-rule:evenodd;clip-rule:evenodd;fill:#6F1E24;}
	.st5{fill-rule:evenodd;clip-rule:evenodd;fill:#E31E24;}
	.st6{fill-rule:evenodd;clip-rule:evenodd;fill:#D6E9D8;}
</style>
<g id="Capa_x0020_1">
	<g id="_385526672">
		<path class="st0" d="M59.6,100.2l0.4,0.4c0.1,0.1,0.3,0.2,0.5,0.3c0.3,0.2,0.6,0.4,0.9,0.6c0.7,0.4,0.3,0.2,0.8,0.7
			c1,1,0.3,0.2,1.2,1.3c0.6,0.9,0.7,1.2,0.9,2.4c0.2,1.2,0.9,2,0.3,3.6c-0.5,1.3-0.3,0.9-1.2,1.8c0,0,0,0-0.1,0.1
			c-1,1.1-1.8,0.4-3.9,1.5c-0.1,0.8,0.2,0.8,1,0.8c0.8,0,2.3-0.3,2.9-0.8c0.5-0.4,0.5-0.2,0.9-0.6c0.3-0.3,0.6-0.7,0.8-1
			c0.3-0.3,0.4-0.7,0.6-1.1c0.7-1,0.5-3.1,0-4.3l-0.4-1.2c-0.3-1.6-0.5-1.2-0.8-1.8c-0.5-1-0.2-0.3-0.8-0.9
			c-0.2-0.2-0.2-0.3-0.4-0.5c-0.3-0.2-0.2-0.1-0.5-0.3c-0.2-0.2-0.2-0.3-0.5-0.4c-0.3-0.2-1.3-0.9-1.7-0.9
			C59.7,99.9,59.6,100.2,59.6,100.2L59.6,100.2z M15.8,47.4c0.6-0.2,1.4-1,2-0.9c0,0,3.7-0.4,3.7-0.4c0.1-0.1,0.4,0.1,0.2-0.6
			c-0.3-1.1-3.4-0.7-4.4-0.3c-0.9,0.3-2,0.8-2.7,1.4c-0.3,0.3-0.5,0.3-0.8,0.7c-0.4,0.5-0.2,0.3-0.7,0.7c-0.3,0.2-0.4,0.5-0.7,0.8
			c-0.6,0.8-0.3,0.2-1.3,1.6c-0.1,0.1-0.1,0.1-0.1,0.2c-0.7,1.1-0.6,1.1-0.9,1.6c-0.4,0.5-0.7,1.5-0.3,2.2c1,0.2,0.8-0.3,1.5-1.6
			c0.2-0.4,0.5-0.5,0.7-0.9c0.5-0.8,0.9-1.5,1.6-2.2C14.1,49.2,15.6,47.8,15.8,47.4L15.8,47.4z M29.3,75.5c-0.2,0.5-0.1,0.8-0.4,1.3
			c-0.7,1.5-0.2,1.6-1,2.6c-0.4,0.5-0.3,0.7-0.7,1.1C27,80.8,27,80.7,26.8,81c-0.7,1.1-0.7,0.6-1.4,1.3c-0.9,1-0.3,0.3-0.9,0.9
			c-0.2,0.1-0.3,0.3-0.4,0.4L23,84.3c-0.3,0.3,0,0-0.2,0.2c-0.2,0.2-1.7,0.9-2.1,1c-1.5,0.5-1.4,0.3-2.2,0.6l-0.7,0.1
			c-1,0.1-0.5,0.4-2.3,0.4c-0.9,0-2.7,0.2-3.5,0c-0.9-0.1-4.2-1.6-5-2.1c-0.5-0.3-0.5-0.4-1.1-0.7c-0.6-0.2-1.1-0.7-1.5-1.1L2.6,80
			c-0.1-0.3-0.1-0.3-0.3-0.6c-0.9-1.7-0.6-1.3-0.9-3.7c-0.1-1.1-0.1-2.4-0.1-3.5c0-1.8,0.3-3.1,0.7-4.6c0.2-0.6,0.4-0.7,0.5-1.3
			c0-0.2,0.1-0.5,0.2-0.7l0.1-0.3l0.9-1.4c0.5-1,0.4-0.6,0.8-1c0.4-0.4,0.3-0.7,0.7-1c0.9-0.8,0.3-0.6,1.4-1.3l1.5-1.2
			c0.7-0.5,1.4-0.8,2.2-1.1l0.2-0.1c1.3-0.7,6.3-0.8,8-0.1c0.8,0.3,1.9,0.6,2.5,1c0.5,0.3,0.7,0.3,1.2,0.6c0.5,0.3,0.5,0.5,1.1,0.7
			c0.7,0.4,1.3,0.9,1.6,1.1c0.5,0.3,0.3,0.1,0.7,0.6c0,0,0,0,0.1,0.1c0.2,0.2,0,0,0.2,0.2l1.8,2.6l1.1,2.5c0.4,1.4,0.8,3,0.8,4.6
			C29.5,73.1,29.6,74.6,29.3,75.5L29.3,75.5z M3.1,62.1c-0.3-0.6,0.1-4.1,0.1-5.1c0-1.9,0.2-3.3,1-4.7l0.5-1.9
			c0.1-0.5,0.5-1,0.7-1.6c0.4-1.2,0.2-1.5,1-3l2.9-5.8c0.4-0.4,0.6-1,1-1.3l0.5-0.5c0.6-1.2,0.6-0.9,1-1.5c0.6-0.9,0.8-1,1.7-1.8
			c0.3-0.2,0.3-0.3,0.7-0.5c0.3-0.2,0.5-0.3,0.7-0.5c0.3-0.3,0.3-0.3,0.7-0.5c0.4-0.2,0.4-0.3,0.7-0.5l3.1-2c0.5-0.3,0.5-0.5,1-0.7
			c0.8-0.3,1.4-0.9,2.2-1.3c0.3-0.2,0.5-0.2,0.8-0.4s0.3-0.3,0.7-0.5c0.3-0.1,0.6-0.2,0.9-0.3c0.4-0.2,0.4-0.3,0.7-0.5
			c0.3-0.2,0.5-0.1,0.8-0.4c0.7-0.6,0.7-0.5,1.4-0.9c0.3-0.1,0.5-0.2,0.7-0.4c0.5-0.4,1-0.5,1.7-0.6c0.3-0.1,0.5-0.2,0.8-0.3
			c1.7-0.6,4.3-0.7,5.7-1.3c1.4-0.5,11.2-0.5,13.2,0c0.6,0.1,0.1,0.2,1.1,0.3c1.6,0.1,7.7,1.1,8.7,1.3c1.4,0.3,3.6,0.3,5,0.8
			c0.8,0.3,1.2,0.4,2.1,0.6c1.1,0.3,2.1,0.8,3.3,1c0.4,0.1,0.7,0.3,1,0.4c0.4,0.2,0.5,0.3,0.9,0.4c1.8,0.6,1.3,0.7,2.9,1.5
			c0.5,0.3,0.4,0.3,0.8,0.6c0.4,0.3,0.5,0.3,0.9,0.6c0.8,0.7,2,1.6,2.7,2.3l5.9,6.8c0.2,0.3,0.1,0.2,0.3,0.4
			c0.4,0.5,0.3,0.8,1.1,1.7c0.3,0.3,0.4,0.6,0.6,0.9c0.2,0.3,0.4,0.5,0.6,0.8c0.2,0.3,0.3,0.7,0.5,1c0.7,1.2,1.5,2.1,2.2,3.4
			c0.2,0.4,0.3,0.6,0.5,0.9c0.2,0.4,0.3,0.6,0.5,1c0.5,1.2,0.4-0.3,1.7,4c0.3,1.1,0.4,3.9,0.4,5.3l0.1,4.1c0,0.4,0.1,0.6,0.1,0.9
			c-0.1,0.9-1.2,0.2-2.6,0.5c-1.6,0.4-1.8,1.7-0.2,1.2c1.1-0.3,3-0.1,4.1,0c1.1,0.1,2.1,0.8,2.8,1.4c0.8,0.7,2.5,2.7,2.8,3.6
			c0.5,1.2,0.9,2,0.9,3.5c0,2.2,0,3.1-0.6,4.9c-0.1,0.2-0.3,0.9-0.3,1l-2.4,3.2c-1.5,1.4-0.2,0.5-2.2,1.6c-0.5,0.3-1.7,0.7-2.3,0.7
			c-0.7,0-2,0.1-2.6,0.4c0,0.9,0.6,0.8,1.9,0.9c0.5,0.7-0.2,1.6-0.4,2.3c-0.1,0.3-0.3,0.5-0.4,0.7c-0.6,0.9-0.9,2.1-1.4,3
			c-0.4,0.6-1.3,2.1-1.6,2.9c-0.1,0.3-0.2,0.5-0.3,0.8c-0.4,0.7-0.2,0.2-0.5,1.2l-0.4,1.1c0,0.1-0.1,0.1-0.1,0.2l-0.9,1.3
			c-0.5,0.6-0.8,1.3-1.4,1.9c-0.4,0.4-0.6,0.9-1,1.3c-0.8,0.7-1.2,1.7-1.9,2.5l-4,3.9c-0.4,0.4-0.8,0.6-1.3,0.9
			c-0.4,0.3-0.8,0.7-1.2,1c-0.5,0.4-1.4,1.1-1.9,1.4l-1.5,0.7c-1.4,0.9-0.6,0.3-2.2,1l-1,0.3c-0.7,0.3-1.6,0.4-2.6,0.9
			c-0.5,0.2-1.2,0.4-1.7,0.5c-0.6,0.1-0.8,0.3-1.8,0.4c-0.7,0.1-1.3,0.3-1.9,0.4c-0.7,0.1-1.2,0.3-1.8,0.4c-3.6,0.6-2.6,0.7-6.7,0.7
			c-0.9,0-7.4,0.1-8.6-0.1l-2-0.3c-1.3-0.1-2.7-0.3-4-0.7l-2.3-0.6c-0.3-0.1-0.3-0.1-0.4-0.2l-2-0.4c-0.5-0.1-0.4-0.2-0.8-0.3
			c-0.1-0.1-1.2-0.2-2-0.4c-0.6-0.2-0.2-0.1-0.7-0.4c-0.2-0.1-0.8-0.3-0.9-0.3l-1.9-0.4c-0.8-0.2-0.9-0.4-1.4-0.6l-1-0.5
			c-0.1-0.1-0.3-0.1-0.4-0.2l-0.3-0.2c-0.5-0.4-0.8-0.3-1.2-0.7c-0.4-0.3,0,0-0.3-0.3l-1.3-1c-0.2-0.2-0.4-0.4-0.7-0.5
			c-0.4-0.3-0.3-0.2-0.6-0.5c-0.6-0.6-0.6-0.4-1.2-1.2c-0.2-0.2-0.4-0.3-0.6-0.6c-0.2-0.2-0.3-0.4-0.5-0.7l-1.6-1.9
			c-0.4-0.4-0.7-0.9-1.1-1.2c-0.5-0.4-0.5-1-1-1.3l-1.1-1.2c-0.1-0.1-0.1-0.2-0.3-0.3c-0.7-0.7-0.9-1.6-1.4-2.1
			c-0.4-0.4-0.5-0.6-0.7-1.1c-0.1-0.3-0.3-0.3-0.4-0.8c-0.1-0.5-0.1-0.4-0.3-0.9c-0.2-0.3-0.3-0.4-0.4-0.8c-0.2-0.4-0.3-0.3-0.3-0.9
			c0-1.5,0-0.9-0.5-1.8c-0.2-0.3-0.3-0.5-0.4-0.7L8.3,92c-0.6-0.7-0.6-1.7-0.9-2.6c-0.1-0.3-0.2-0.4-0.4-0.7c-0.4-0.7-0.4-2-0.9-2.6
			c-0.2-0.3-0.3-0.3-0.3-0.9c0.6,0,1.7,0.5,2.2,0.9l0.4,0.3c1.7,0.8,2.7,1.7,5,1.5c1.6-0.1,3.3-0.1,4.9-0.3c0.7-0.1,2.2-0.6,2.9-0.9
			c2.3-1.3,2.7-1.3,4.8-3.1c0.3-0.2,0.3-0.4,0.6-0.7l1.4-1.2c0.4-0.4,1.3-1.8,1.5-2.4c0.2-0.6,0.3-0.4,0.3-1c0.4-2.4,0.9-1.5,0.8-5
			c0-1.6-0.2-2.9-0.5-4.4c-0.1-0.5-0.1-0.3-0.2-0.7c-0.1-0.3,0-0.6-0.1-0.9s-0.2-0.4-0.3-0.8c-0.2-0.7-0.3-0.8-0.6-1.3
			c-0.4-0.8,0.1-0.8-0.5-1.4c-0.5-0.5-0.6-1.1-1.2-1.6c-0.3-0.2-0.3-0.3-0.5-0.6c-0.3-0.5-0.6-0.6-1-0.9c-0.5-0.4-0.5-0.7-1-1
			l-2.6-1.3c-0.2-0.1-0.3-0.3-0.5-0.4c-0.6-0.3-1.5-0.5-2.2-0.8c-0.5-0.2-1.1-0.4-1.6-0.4c-2.1-0.2-5.9-0.4-7.6,0.4
			c-0.6,0.3-1.8,0.7-2.2,1.1c-0.8,0.8-0.6,0.3-1.3,0.8c-0.9,0.7-0.6,0.1-1.2,1c-0.4,0.6-1.2,1-1.6,1.6C3.5,61.9,3.5,62,3.1,62
			L3.1,62.1z M2.4,31.6c0-1.6,0.1-2.7,0.5-4.1C3,27.2,3.1,27,3.2,26.7c0.7-2,0.4-1.9,1.7-3.9l1.8-2.7c0.2-0.3,0.3-0.2,0.5-0.6
			c0.7-1,2.1-2.9,3.1-3.7c0.5-0.5,0.8-0.9,1.1-1.1l1.8-1.6c0.8-0.7,1.7-1.3,2.5-2c0.6-0.5,1.5-0.9,2.1-1.3c0.5-0.4,0.1-0.3,0.6-0.5
			l3.8-1.8c0.4-0.2,0.3-0.2,0.8-0.3c0.7-0.2,1.2-0.4,1.8-0.6c0.6-0.1,1.3-0.2,1.8-0.4C26.9,6,27.1,6,27.4,5.8
			c0.8-0.4,1.8-0.3,2.6-0.7c1.3-0.7,4.4-1.5,6-2c0.7-0.3,0.5-0.1,1.2-0.4c0.9-0.5,3.2-0.7,4.3-0.9l1.9-0.3c0.9-0.1,1.8,0,2.6,0
			c0.6,0,0.9,0.1,1.4,0.2c0.3,0.1,1,0.1,1.4,0.2l6.7,1.3c0.6,0.1,0.8,0.1,1.3,0.3c1.3,0.4,3.9,0.8,5,1.4c0.7,0.3,1.7,0.5,2.5,0.7
			c0.6,0.2,0.2,0.1,0.5,0.3C65,5.9,65.3,6,65.4,6c0.8,0.3,1.8,0.4,2.6,0.5c0.6,0.1,0.8,0.1,1.3,0.3c0.8,0.2,2,0.1,2.8,0.4
			c0.7,0.2-0.1,0.1,0.6,0.3c0.6,0.1,1.3,0.3,1.9,0.5c0.4,0.2,0.5,0.4,1,0.5c0.9,0.2,0.5,0,1.1,0.5c0.4,0.4,1.4,0.8,2,1.2l0.9,0.7
			c1.1,0.7,1,0.8,1.8,1.4c0.3,0.2,0.6,0.5,0.9,0.7c0.3,0.2,0.8,0.5,0.6,0.8c0.4,0,0.7,0.1,1,0.5l0.1,0.1c0.2,0.3,0.4,0.2,0.6,0.4
			c0.6,0.6,1.4,0.9,1.8,1.6c0.2,0.3,0.7,0.5,0.9,0.8c0,0,0.1,0.1,0.1,0.1l0.4,0.4c0.6,0.6,1.3,1,1.8,1.7c0,0,0,0.1,0.1,0.1l1.8,1.7
			c0.7,0.7,0.8,1,1.4,1.7c0.1,0.2,0.4,0.3,0.5,0.5c0.2,0.3,0.1,0.5,0.3,0.7c0.1,0.2,0.3,0.3,0.5,0.5c0.3,0.5,0.2,0.7,0.7,1.2
			c0.4,0.4,0.5,0.8,0.8,1.2c0.3,0.3,0.6,0.8,0.8,1.2c0.1,0.3,0.2,0.5,0.4,0.7c0.9,1.2,0.4,0.6,1,1.8c0.2,0.3,0.3,0.3,0.4,0.7
			l0.6,1.4c0.4,1.2,1.1,2.3,1.4,3.4c0.2,0.6,0.1,0.3,0.3,0.7c0.1,0.3,0.1,0.4,0.3,0.7c0.3,0.6,0.5,0.8,0.8,1.2
			c0.1,0.3,0.2,0.5,0.3,0.7l2.4,4.5c0.2,0.3,0.3,0.2,0.4,0.7c0.1,0.3,0.1,0.4,0.3,0.7c0.3,0.5,0.4,0.7,0.6,1.3
			c1,2.8,1.4,3.3,1.4,6.6c0,3.8-0.4,2.9-0.7,5.1c-0.1,0.8-0.7,5.6-0.9,6.3c-0.3,1-0.5,2.4-0.9,3.3c-0.2,0.5-0.3,0.5-0.5,1
			c-0.2,0.9-0.4,1.4-0.8,2c-0.2,0.3-0.2,0.7-0.5,0.9c-0.2-0.4-0.3-0.8-0.5-1.2c-0.3-0.4-0.4-0.7-0.6-1.1c-0.2-0.5-1.9-2.4-2.4-2.7
			c-0.6-0.3-0.3-0.5-0.9-0.8c-1-0.5-1.3-0.9-2.4-1c-0.6-0.1-0.7-0.3-0.7-0.9c-0.2-3.6,0-7.7-0.9-11c-0.1-0.5,0-1.1-0.2-1.6l-1.8-3.3
			c-0.5-0.7-0.9-1.9-1.2-2.2c-0.4-0.5-0.3-0.1-0.7-1c-0.3-0.7-0.9-1.1-1.2-1.7c-0.3-0.5-0.6-0.5-0.9-1.2c-0.2-0.7-2-3.4-2.7-4.1
			l-2.9-3.4c0,0,0,0-0.1-0.1l-1.3-1.3c-0.8-0.7,0.1,0.4-0.3-0.3c0,0,0-0.1,0-0.1l-0.6-0.7c0,0,0,0-0.1-0.1l-2.7-2.6
			c-0.3-0.2-0.2-0.2-0.5-0.3c-0.3-0.2-0.7-0.5-1-0.7c-0.7-0.5-1.5-0.8-2.2-1.2c-0.4-0.2-1-0.2-1.3-0.4c-0.5-0.3,0.1,0-0.4-0.4
			c-0.4-0.3-1.3-0.5-1.8-0.7l-2.6-0.8c-0.4-0.1-1.1-0.2-1.4-0.4c-0.5-0.3,0.1-0.1-0.5-0.3l-5.1-0.8c-1.5-0.1-2.9-0.5-4.5-0.7
			l-2.9-0.5c-0.5-0.1-1.1-0.1-1.5-0.2c-1.5-0.3-3.1-0.4-4.6-0.5c-2.7-0.3-8.7,0-10.9,0.3c-1.5,0.2-1.6,0.5-2.8,0.7
			c-1.6,0.3-2.8,0.5-4.2,1.1l-2.4,1c-0.4,0.2-0.6,0.4-1.1,0.6c-0.6,0.3-0.7,0.5-1.1,0.7c-0.5,0.3-0.6,0.2-1.1,0.6
			c-0.5,0.4-0.3,0.4-1.1,0.6l-2.1,1.4c-0.4,0.2-0.6,0.5-1,0.7c-0.5,0.3-0.7,0.2-1.2,0.7c-0.4,0.4-0.6,0.3-1.1,0.6l-1,0.8
			c-0.3,0.1-0.9,0.4-1.1,0.6c-0.5,0.5-0.1,0.3-0.9,0.8l-0.5,0.4c-0.2,0.2-0.3,0.2-0.5,0.3c-1.2,0.8-2.1,1.9-2.9,3l-1.4,1.4
			c-0.3,0.4-0.3,0.7-0.6,1.1c-0.3,0.3-0.1,0-0.4,0.5c-0.1,0.2-0.2,0.3-0.3,0.5c-0.3,0.5-0.2,0.8-0.8,0.9c-0.3,0-0.7-0.7-0.9-0.9
			c-0.2-0.1-0.3-0.3-0.4-0.4c-0.5-0.5-1.8-2.1-1.9-2.4c-0.1-0.2-0.1-0.5-0.2-0.7c-0.3-0.6-0.6-1-0.8-1.7c-0.2-0.7-0.3-2.2-0.3-3.1
			L2.4,31.6z M0.9,31.3c0,0.7,0.2,1.3,0.3,1.9l0.5,2.5c0.2,0.7,0.7,1.5,1,2.1C2.7,38,2.7,38,2.8,38.1l1.9,2.6
			c0.5,0.5,1.1,1.1,1.8,1.2c0,0.8-0.5,0.9-0.8,1.8c-0.1,0.3-0.2,0.6-0.3,1c-0.2,0.7-0.6,1.2-0.8,1.9l-1,2.9C3.5,50,3.5,50,3.3,50.4
			c-1,1.8-1,3.2-1.3,5.2c-0.1,0.4,0,0.8-0.1,1.2c-0.5,1.7-0.1,3,0.2,4.7c0.2,1.3,0.1,0.7,0,2C2,64,2,64.3,1.8,64.6
			c-0.2,0.4-0.3,0.5-0.4,1C1,66.5,0.6,68,0.5,68.9C0.1,72.4,0,69.1,0,74.7l1,4.8c0.4,1.1,0.9,1.8,1.6,2.7C3,82.8,4.2,84,4.5,84.6
			c0.1,0.1,0.1,0.4,0.1,0.5l0.5,1.7c0.1,0.4,0.1,0.7,0.3,1.1c0.2,0.7,0.5,1,0.7,1.6c0.3,0.9,0.5,1.9,0.9,2.8
			c0.1,0.2,0.1,0.3,0.2,0.5l0.5,1.6c0.1,0.3,0.1,0.3,0.2,0.5l1,2.6c0.5,1,0.7,2.1,1.4,2.9c0.3,0.3,0.1,0.1,0.3,0.5
			c0.3,0.5,0.5,1,0.8,1.4l3.3,4c0.6,0.8,1.4,1.4,2,2.2c0.3,0.3,0.3,0.5,0.7,0.9c0.5,0.5,1.1,1.5,1.2,1.6l0.9,0.6
			c0.3,0.2,0.5,0.5,0.8,0.7l4.2,3c0.5,0.2,0.7,0.1,1.1,0.4c0.7,0.5,1.3,0.7,2.1,0.9l4.5,1.2c0.7,0.2,1.4,0.6,2.2,0.7
			c1.1,0.1,2.5,0.9,4.6,1.2c0.5,0.1,0.8,0.2,1.2,0.3c0.4,0.1,1,0.1,1.4,0.1c0.9,0.1,1.7,0.2,2.6,0.3c0.5,0.1,1,0,1.5,0
			c0.7,0,0.8,0.3,1.4,0.3c0.5,0,0.4-0.6,1.4-0.3c2,0.5,3.7,0.3,5.7,0.3c0.6,0,1-0.2,1.5-0.3c0.6-0.1,1.2,0,1.8-0.1
			c0.7-0.1,1.1-0.2,1.6-0.3c0.3-0.1,0.5-0.1,0.9-0.1c0.5-0.1,0.3-0.1,0.7-0.2c0.4-0.1,1-0.1,1.5-0.3c1-0.2,2-0.4,3-0.8
			c0.5-0.2,1-0.2,1.6-0.3c0.6-0.2,0.9-0.3,1.3-0.5l1.4-0.5c1.2-0.3,1.6-0.5,2.9-0.9c1.6-0.5,0.9-0.4,1.8-0.9l2.9-1.8l2.7-2.3
			c0,0,0,0,0.1-0.1l1.3-1.2c0.9-0.9,0.9-0.1,1.9-1.8c0.3-0.5,0.6-0.6,0.9-1l1-1.4c0,0,0,0,0.1-0.1c0,0,0.1-0.1,0.1-0.1
			c0.5-0.5,0.8-1.2,1.2-1.6c0.3-0.3,0.6-0.6,0.9-1c1.1-1.4,0.8-1.3,1.4-2.4c0.3-0.5,0.5-0.6,0.7-1.2c0.2-0.7,0.4-0.7,0.7-1.2l0.4-1
			c0,0,0-0.1,0-0.1c0.3-0.5,0.6-0.7,0.8-1.4c0.3-1.2,1.4-2.3,1.9-3.8c0.2-0.5,0.3-0.9,0.5-1.2c0.6-0.9,0.6-1.9,1-2.9
			c0.4-1,2.5-0.9,4.6-3c0.2-0.2,0.7-0.8,0.8-1.1c0.2-0.3,0.1-0.3,0.3-0.5c0.2-0.2,0.3-0.3,0.4-0.5c0.8-1.3,1.5-2.2,1.8-3.9l0.4-5.2
			c0.1-0.3,1.5-1.6,2-2.7l0.3-0.7c0.8-1.7,0.9-3.7,1.2-4.4c0.6-1.2,0.8-4.1,1-5.7l0.7-4.1c0.1-0.5,0.4-1.1,0.4-1.5
			c0-3.9-0.1-1.8-0.4-3.7c-0.2-1-0.2-2-0.7-2.9c-0.1-0.1-0.3-1.1-0.9-2.2c0,0-0.1-0.1-0.1-0.1l-2.1-4.5c-0.1-0.2-0.2-0.4-0.4-0.6
			l-2.5-4.7c-0.2-0.5-0.5-0.6-0.6-1.2c-0.1-0.4-0.1-0.3-0.2-0.6c-0.1-0.3-0.1-0.5-0.2-0.7c-0.1-0.3-0.4-0.9-0.6-1.2l-2.5-4.6
			c-0.7-1.1-2-3.4-2.8-4.4c-0.2-0.3-0.2-0.2-0.4-0.5c-0.6-1.1-1.5-2.2-2.4-3.1c0,0,0,0-0.1-0.1c-0.4-0.5-0.6-1-1.2-1.4
			c-1.2-0.9-1.1-1.1-1.9-1.7l-2.8-2.5c-0.3-0.3-0.7-0.5-1-0.8l-2.4-2c-0.8-0.7-1.7-1.3-2.6-2l-1.1-0.7c0,0-0.1,0-0.1,0
			c0,0-0.1,0-0.1,0l-0.1-0.1c-0.1-0.1-0.2-0.1-0.3-0.1c-0.7-0.4-0.7-0.5-1.7-1c-1.4-0.7-1.2-0.5-2.7-0.9c-0.7-0.2-1.5-0.2-2.2-0.5
			c-0.9-0.4-3.9-0.6-5.3-1c-0.5-0.1-1-0.2-1.5-0.3l-2.7-0.9c-0.9-0.3-2-0.3-2.9-0.7c-0.9-0.4-1.9-0.6-2.8-0.8
			c-0.6-0.1-1-0.2-1.6-0.3c-1-0.1-2-0.5-2.9-0.7c-0.3,0-0.5-0.1-0.7-0.1l-2.2-0.5c-0.6-0.1-1-0.1-1.6-0.2c-1.1-0.1-1.7-0.7-3.8-0.1
			c-0.4,0.1-0.6,0.1-1.1,0.1c-1.6,0-3.4,0.5-5,0.9c-1.1,0.3-3.3,1-4.3,1.5c-0.5,0.3-2.8,0.9-3.6,1.1l-3.6,1.1
			C25.5,5,25.3,5.1,25,5.2c-0.6,0.2-1.2,0.3-1.8,0.6C22.9,6,22.9,6,22.4,6.1c-2.7,0.7-2,1-3.2,1.5c-0.2,0.1-0.1,0.1-0.4,0.2
			l-2.7,1.5c-0.6,0.3-1.4,1-2,1.4c-0.9,0.7-1.8,1.3-2.6,2.1c-1.6,1.6-1.6,0.8-3,2.9c-0.4,0.5-0.7,0.8-1.1,1.2
			c-0.2,0.2-0.3,0.4-0.5,0.7l-3.4,4.9c-0.4,0.8-0.9,1.5-1.1,2.4c-0.3,0.9-0.8,1.6-0.9,2.6c-0.1,0.5-0.1,0.5-0.2,0.9l-0.3,2
			c-0.1,0.3-0.2,0.6-0.2,1.1L0.9,31.3z M46.9,109.4c-0.1-0.3,0-0.5,0.1-0.7c0.9-1.6,5.9-1.5,7.8-0.3c0.4,0.2,1.7,0.8,1.7,1.2
			c0.1,0.5-0.1,0.2-0.1,0.3c-0.9,1-3.7,0.8-4.8,1.1c-0.8,0.2-2.3,0.3-2.9-0.2C48.4,110.5,47.1,109.8,46.9,109.4z M47.1,111.1
			c-0.5,0.4-5.4,0.6-6.3,0.4c-1.7-0.4-1-0.2-3.1-0.3c-1.4,0-0.7-0.2-1.8-0.6l-0.2-0.1c-0.3-0.1-0.6-0.1-0.8-0.2
			c-0.6-0.1-0.9-0.2-1.3-0.5c-0.4-0.3-0.1-0.2-0.5-0.3c-0.7-0.1-0.7,0.1-1.1-0.7l-0.2-0.3c0,0,0-0.1,0-0.1c-0.4-0.8-0.5-0.8-0.1-1.5
			l1.6-1.8c0.5-0.3,1.7-1.3,2.2-1.3c0.5,0.8,0.3,0.7,1.1,1.2c0.6,0.4,0.8,0.7,1.7,0.8c2.5,0.3,2.2-1.1,2.7-2.1
			c0.8,0.1,1.6,2.1,4,0.6c0.6-0.3,0.4-0.6,0.9-1c0.3,0.1,0.3,0.1,0.6,0.3c3.1,2.7,4.4,0.6,4.7,0.6s0.7,0.6,1.4,0.7
			c1.4,0.3,2.3-0.2,3.1-1.1c0.3-0.3,0.3-0.3,0.4-0.7c0.1-0.4,0.1-0.5,0.3-0.9c0.8,0,1.1,0.8,1.6,1.1c1.4,0.9,0.7,0.9,1.3,1.6
			c0.1,0.2,0.3,0.2,0.4,1c0.1,0.5-0.1,0.9-0.2,1.1c-0.7,1.2-0.5,1.6-1.5,1.6l-0.9-0.9c-0.3-0.2-0.2-0.4-0.5-0.6l-0.5-0.2
			c-0.3-0.1-0.2-0.2-0.4-0.3c-0.5-0.3-1.8-0.2-2.7-0.7c0,0,0,0-0.1,0c-0.5-0.3-3.1-0.3-3.7,0.1l-0.3,0.1c-0.3,0.1-1.7,0.3-2.6,1
			c0,0,0,0-0.1,0.1l-0.4,0.4c-0.5,0.6-0.4,1.5-0.2,1.8l0.6,0.7C46.7,110.9,47,110.8,47.1,111.1L47.1,111.1z M39.7,102.3
			c0.1,0.8,0.1,2.1-0.4,2.5c-0.6,0.5-2,0-2.3-0.3c-0.9-1-0.6-1.1,0.3-1.6C37.8,102.7,39.1,102.3,39.7,102.3L39.7,102.3z M41.2,101.8
			c0.5-0.3,2.7-0.7,3.6-0.6c0.1,0.5-0.1,1.5-0.2,1.9C44.2,104.7,41.2,103.9,41.2,101.8L41.2,101.8z M49.8,102.1c0,0.4,0,0.8,0,1.2
			c-0.1,1.7-3.7,0.1-3.5-2.2l3.5,0.1C49.9,101.5,49.8,101.7,49.8,102.1z M43.7,113.1l2,0c0.4,0,0.6-0.2,1.1-0.3
			c1.4-0.1,0.9,0,2.5-0.3c0.6-0.1,2-0.1,2.6-0.2l3.7-0.5c0.4-0.1,0.3-0.2,0.9-0.4c0.8-0.3,1.3-0.1,2.8-1.3c0.5-0.4,1.5-1.8,1.7-2.4
			c0.2-0.8,0.3-2.2-0.1-3c0,0-0.1-0.1-0.1-0.1c0-0.1-0.1-0.2-0.1-0.3c-0.3-0.5-1.2-0.9-1.5-1.2l-0.2-0.2c-0.5-0.7-2.2-1.9-3-2.1
			c-0.7-0.2-0.5-0.2-1-0.4c-0.3-0.1-0.7-0.3-1-0.4c-0.4-0.1-1-0.1-1.4-0.1c-0.9,0-1.6-0.2-2.6-0.2c-1.9-0.1-6.5,0-7.9,0.4l-5.4,1.5
			c-0.3,0.2-0.5,0.3-0.9,0.5c-1.7,0.8-1,0.7-1.7,1c-0.3,0.2-0.6,0.3-0.9,0.5l-2.2,2c-0.2,0.3-0.3,0.5-0.6,0.8
			c-0.5,0.7-0.7,1.2-0.4,2.2c0.3,0.9,1.2,1.8,2,2.2c0.7,0.3,1.3,0.6,2,0.8c0.7,0.3,1.4,0.3,2.1,0.6c0.7,0.3,1.3,0.5,2.2,0.5
			c0.9,0,1.7,0.2,2.5,0.3C41.8,113.1,42.9,113.1,43.7,113.1L43.7,113.1z M38,67.6c-0.3-1.7,0-5.5,0.7-6.7c0.4-0.7,0,0.3,0.6-1.1
			c0.1-0.1,0.2-0.6,0.3-0.7c0.3-0.4,0.3-0.1,0.4-0.5c0.5-1.1,0-0.2,0.7-1.2c0.6-0.9,2.1-2.3,2.9-2.7c0.9-0.5,0.5-0.6,2.3-1.4
			l1.2-0.6c0.3-0.1,0.3-0.1,0.7-0.3c1.4-0.5,0.9-0.5,1.9-0.8c3.6-1,6.1-0.9,9.1,0.7c0.5,0.3,0.8,0.4,1.2,0.7l1.6,1.1
			c0.9,0.6,1.8,1.5,2.5,2.3l0.2,0.1c0.1,0.1,0.1,0.1,0.2,0.2c0.2,0.2,0.3,0.2,0.5,0.5c1.1,1.3,0.2,0,1.2,1.6
			c0.8,1.2,0.7,1.2,1.3,2.4c0.3,0.7,0.7,0.8,0.9,2c0.3,1.9,0.1,5.4-0.5,6.7c-0.8,1.7-0.3,2.8-2.4,3.1c-1.6,0.3-2.7,1-4.1,1.5
			c-0.9,0.3-1.8,0.6-2.7,1c-0.5,0.2-1,0.2-1.5,0.3c-0.5,0.1-0.9,0.4-1.3,0.5c-2,0.5-1.7,0.8-2.7,1l-2.6,1c-0.7,0.2-1.5,0.5-2,0.8
			c-0.4,0.3-1.4,0.7-2.1,0.4c-0.7-0.3-0.6-0.1-1-0.4c-0.2-0.1-0.1-0.1-0.3-0.2c-0.2-0.1-1.2-0.4-1.8-0.9c-0.5-0.5-0.9-1-1.9-1.8
			c-0.7-0.6-1.5-1.8-2-2.7l-1-2.7C37.9,69.1,38.2,69,38,67.6L38,67.6z M36.7,65.7c0,0.9,0,2.9,0.3,3.7c0.3,0.8,0.3,2.2,0.6,3.1
			c0.2,0.5,0.3,0.8,0.5,1.3c0.2,0.6,0.5,0.7,0.7,1.2l0.8,1c0.4,0.4,0.6,0.9,0.8,1.1l1,0.8c0.5,0.5,1.4,0.9,1.6,1.2l0.1,0.1
			c0,0,0,0.1,0,0.1c0,0,0,0.1,0.1,0.1c0.3,0.3,0.6,0.3,1,0.5c0.2,0.1,0.3,0.3,0.5,0.4c0.6,0.4,0.9,0.3,1.9,0.9c1.6,1,4.9,1,6.9,0.8
			c0.9-0.1,1.5-1,0.7-1.3c-0.4-0.3-2.9,0-3.7,0c-0.5,0-1-0.1-1.2-0.3c0.2-0.3,0.5-0.4,0.9-0.5l2.8-1.2c0.3-0.1,0.7-0.3,1-0.3
			c0.5-0.1,0.6-0.2,1-0.4c1.2-0.6,1.4-0.4,2.5-0.8l2.9-1c0.2-0.1,0.4-0.1,0.6-0.2l0.9-0.4c1.2-0.3,1.7-1,3.1-1
			c-0.1,0.6-0.6,0.8-1,1.2c-0.1,0.1-0.3,0.2-0.4,0.4c-0.8,0.7-0.2,2.1,1.6,0.5c1.4-1.2,1-1.2,2-2.3l1.1-1.7c0.3-0.5,1-2.5,1-3.2
			c0.1-0.5,0.1-0.9,0.2-1.3c0.6-2.4,0.3-5.5-0.7-7.7c-0.5-1.2-1.3-2.2-1.4-2.5c-0.2-0.5-0.5-0.9-0.8-1.2c-0.3-0.3-1-1.3-1.9-2.1
			c-0.3-0.3-0.7-0.5-1-0.9c-0.5-0.5-0.5-0.5-1.2-0.8c-0.3-0.2-0.5-0.5-0.9-0.6c-1-0.6-0.4-0.5-1.8-1.1c0,0-0.1,0-0.1,0l-0.3-0.1
			c-0.9-0.6-0.7-0.6-2-1c-0.8-0.2-0.7-0.3-1.6-0.4c-0.7-0.1-1.1-0.2-1.8-0.2c-1.3,0-2.7,0.1-3.7,0.5c-1.2,0.5-2,0.5-2.4,0.7
			c-0.2,0.1-0.3,0.3-0.6,0.4c-0.5,0.2-1,0.3-1.4,0.6l-2.6,1.6c-0.3,0.2-0.4,0.2-0.7,0.4c-0.2,0.2-0.3,0.3-0.5,0.5l-0.5,0.4
			c-0.3,0.3-0.3,0.2-0.5,0.5l-2.2,2.9c-0.1,0.3-0.3,0.4-0.4,0.7C37.2,61,36.7,63.2,36.7,65.7L36.7,65.7z M34.1,95.1H34
			c-1.8,0-2.7-0.5-3.8-1.3c-1.5-1-0.7-2.8-0.2-3.8l2.8-4.1c0.9-1.5-0.6-1-1.2-0.2l-1.5,2c-0.3,0.3-0.5,1-1,1.5
			c-0.2,0.2-0.3,0.3-0.5,0.5c-0.1,0.2-0.8,2.1-0.8,2.6c0,0.8,0.8,1.9,1.2,2.3c1.7,1.8,6,2.4,8.1,1.2c0.9-0.5,2-0.8,2-1.5
			c0.1-1.1-1.1-0.4-2.2,0.1c-0.3,0.1-0.3,0.2-0.5,0.3C35.7,94.9,34.7,95.1,34.1,95.1L34.1,95.1z M58.3,45.8c-1.3-0.7-7,1.8-11.4,0.3
			c-0.3-0.1-0.6-0.3-0.9-0.4c-0.8-0.3-0.3-0.1-0.8-0.6c-0.4-0.3-0.4-0.1-0.7-0.5c-0.8-1-0.5-0.5-1.2-1.3c-0.3-0.3-0.4-0.4-1-0.3
			c-0.1,0.5,0.1,0.7,0.3,1c0.6,0.7,1.1,1.6,2.2,2.2c0.7,0.3,1,0.8,1.9,1c0.8,0.2,1.2,0.5,2.2,0.7c1.8,0.3,6.7-0.3,8.2-1.1
			C58,46.2,58.3,46.6,58.3,45.8L58.3,45.8z M62.3,56.8c0-0.2-1-1.1-1.2-1.2c-0.6-0.3-1.4-0.2-2,0.3C59,57,60,56.8,59,57.4
			c-0.2,0.1-0.3,0.2-0.5,0.2c-0.6,0.2-0.9,0.7-0.6,1.3c0.1,0.3,0.3,0.3,0.4,0.5c0.5,0.8-0.1,1.2,1.9,1.2c0.9,0,1,0,1-1
			c1.4,0,2.2-0.5,1.7-2.1C62.7,56.9,62.6,57,62.3,56.8L62.3,56.8z M26.4,66.5c-0.1-0.4,0.2-0.1-0.3-0.4l-1-0.9
			c-1-0.2-1.8,0.4-2.2,1.2c-0.3,0.5-0.1,0.9,0.2,1.2c0.3,0.3,0.4,0.5,0.9,0.7l0.2,0.9c0.6,0.1,0.7,0.1,1-0.3l1.2-1.5
			C26.6,67.2,26.8,66.5,26.4,66.5L26.4,66.5z M51.4,101.3c0.9,0,2.9,0.1,3.4,0.5c0,1-0.3,1-0.5,1.7
			C52.1,104.2,51.4,103.5,51.4,101.3z"/>
		<path class="st1" d="M91.4,21.2l-1.8-1.7c0,0-0.1,0-0.1-0.1c-0.5-0.7-1.2-1.1-1.8-1.7l-0.4-0.4l-0.1-0.1c-0.3-0.3-0.7-0.4-0.9-0.8
			c-0.5-0.7-1.2-1-1.8-1.6c-0.2-0.3-0.4-0.2-0.6-0.4l-0.1-0.1c-0.3-0.3-0.5-0.5-1-0.5c0.2-0.4-0.3-0.6-0.6-0.8
			c-0.3-0.3-0.5-0.5-0.9-0.7c-0.8-0.6-0.7-0.7-1.8-1.4l-0.9-0.7c-0.6-0.4-1.6-0.8-2-1.2c-0.6-0.5-0.3-0.3-1.1-0.5
			c-0.5-0.1-0.7-0.4-1-0.5c-0.5-0.2-1.3-0.4-1.9-0.5c-0.7-0.1,0.1-0.1-0.6-0.3c-0.8-0.3-2-0.2-2.8-0.4c-0.5-0.1-0.7-0.2-1.3-0.3
			c-0.9-0.1-1.8-0.3-2.6-0.5c-0.1,0-0.4-0.1-0.5-0.2c-0.3-0.2,0.1-0.1-0.5-0.3c-0.8-0.2-1.8-0.4-2.5-0.7c-1.2-0.5-3.7-0.9-5-1.4
			c-0.5-0.2-0.8-0.1-1.3-0.3l-6.7-1.3c-0.4-0.1-1.1-0.1-1.4-0.2c-0.5-0.1-0.8-0.2-1.4-0.2c-0.9,0-1.8-0.1-2.6,0l-1.9,0.3
			c-1.1,0.1-3.3,0.4-4.3,0.9c-0.7,0.4-0.5,0.2-1.2,0.4c-1.6,0.5-4.7,1.3-6,2c-0.7,0.4-1.8,0.3-2.6,0.7C27.1,6,26.9,6,26.6,6.2
			c-0.5,0.2-1.2,0.3-1.8,0.4c-0.6,0.1-1.1,0.4-1.8,0.6c-0.5,0.1-0.3,0.1-0.8,0.3l-3.8,1.8c-0.6,0.3-0.1,0.1-0.6,0.5
			c-0.5,0.5-1.5,0.9-2.1,1.3c-0.8,0.7-1.7,1.2-2.5,2l-1.8,1.6c-0.3,0.3-0.6,0.7-1.1,1.1c-1,0.8-2.3,2.7-3.1,3.7
			c-0.3,0.4-0.3,0.3-0.5,0.6l-1.8,2.7c-1.3,2-1,2-1.7,3.9C3.1,27,3,27.2,2.9,27.6c-0.4,1.3-0.5,2.4-0.5,4.1l-0.2,0
			c0,0.9,0.1,2.3,0.3,3.1c0.2,0.7,0.5,1.2,0.8,1.7c0.1,0.3,0.1,0.5,0.2,0.7c0.1,0.3,1.4,1.9,1.9,2.4c0.2,0.1,0.3,0.3,0.4,0.4
			c0.3,0.2,0.6,0.9,0.9,0.9c0.6-0.1,0.5-0.5,0.8-0.9c0.1-0.2,0.2-0.3,0.3-0.5C8.1,39,8,39.2,8.2,39c0.3-0.3,0.3-0.7,0.6-1.1l1.4-1.4
			c0.8-1.2,1.7-2.2,2.9-3c0.2-0.1,0.3-0.2,0.5-0.3l0.5-0.4c0.8-0.5,0.4-0.3,0.9-0.8c0.2-0.2,0.9-0.5,1.1-0.6l1-0.8
			c0.5-0.3,0.7-0.2,1.1-0.6c0.5-0.5,0.6-0.4,1.2-0.7c0.4-0.2,0.6-0.5,1-0.7l2.1-1.4c0.7-0.3,0.5-0.3,1.1-0.6
			c0.5-0.4,0.6-0.3,1.1-0.6c0.4-0.2,0.5-0.5,1.1-0.7c0.5-0.2,0.7-0.4,1.1-0.6l2.4-1c1.4-0.6,2.6-0.8,4.2-1.1
			c1.1-0.2,1.3-0.4,2.8-0.7c2.2-0.3,8.2-0.6,10.9-0.3c1.4,0.1,3.1,0.3,4.6,0.5c0.4,0.1,1,0.1,1.5,0.2l2.9,0.5
			c1.6,0.2,2.9,0.5,4.5,0.7l5.1,0.8c0.6,0.2,0,0,0.5,0.3c0.3,0.2,1,0.3,1.4,0.4l2.6,0.8c0.5,0.2,1.5,0.5,1.8,0.7
			c0.5,0.4,0,0.1,0.4,0.4c0.3,0.2,0.9,0.2,1.3,0.4c0.7,0.4,1.5,0.7,2.2,1.2c0.3,0.3,0.7,0.5,1,0.7c0.3,0.2,0.3,0.1,0.5,0.3l2.7,2.6
			l0.1,0.1l0.6,0.7c0,0,0,0,0,0.1c0,0,0.1,0.1,0.1,0.1c0.1,0,0.1,0.1,0.3,0.2l1.3,1.3l0.1,0.1l2.9,3.4c0.6,0.7,2.4,3.4,2.7,4.1
			c0.3,0.7,0.6,0.7,0.9,1.2c0.4,0.6,0.9,1,1.2,1.7c0.4,0.9,0.3,0.4,0.7,1c0.3,0.3,0.7,1.6,1.2,2.2l1.8,3.3c0.2,0.5,0.1,1.1,0.2,1.6
			c0.9,3.4,0.7,7.4,0.9,11c0,0.6,0.1,0.8,0.7,0.9c1.1,0.2,1.4,0.5,2.4,1c0.6,0.3,0.3,0.5,0.9,0.8c0.5,0.3,2.2,2.2,2.4,2.7
			c0.2,0.4,0.3,0.7,0.6,1.1c0.3,0.5,0.3,0.9,0.5,1.2c0.3-0.1,0.3-0.5,0.5-0.9c0.4-0.7,0.7-1.2,0.8-2c0.1-0.6,0.3-0.5,0.5-1
			c0.4-0.9,0.6-2.3,0.9-3.3c0.2-0.7,0.8-5.5,0.9-6.3c0.3-2.2,0.7-1.3,0.7-5.1c0-3.3-0.4-3.7-1.4-6.6c-0.2-0.6-0.4-0.8-0.6-1.3
			c-0.1-0.3-0.1-0.4-0.3-0.7c-0.2-0.4-0.2-0.3-0.4-0.7l-2.4-4.5c-0.2-0.3-0.2-0.5-0.3-0.7c-0.2-0.5-0.5-0.7-0.8-1.2
			c-0.1-0.3-0.1-0.4-0.3-0.7c-0.2-0.4-0.2-0.2-0.3-0.7c-0.3-1.2-1-2.3-1.4-3.4l-0.6-1.4c-0.1-0.3-0.2-0.3-0.4-0.7
			c-0.7-1.2-0.2-0.6-1-1.8c-0.2-0.3-0.2-0.4-0.4-0.7c-0.2-0.4-0.5-0.8-0.8-1.2c-0.3-0.4-0.4-0.8-0.8-1.2c-0.5-0.5-0.4-0.7-0.7-1.2
			c-0.2-0.2-0.3-0.3-0.5-0.5c-0.2-0.3-0.1-0.5-0.3-0.7c-0.1-0.1-0.3-0.3-0.5-0.5C92.2,22.2,92.1,21.9,91.4,21.2z"/>
		<path class="st2" d="M13.5,49.7c-0.7,0.7-1.2,1.4-1.6,2.2c-0.2,0.3-0.5,0.5-0.7,0.9c-0.7,1.3-0.5,1.7-1.5,1.6
			c-0.5-0.7-0.1-1.6,0.3-2.2c0.4-0.5,0.2-0.5,0.9-1.6c0.1-0.1,0.1-0.1,0.1-0.2c1-1.4,0.7-0.9,1.3-1.6c0.3-0.3,0.3-0.6,0.7-0.8
			c0.5-0.4,0.3-0.2,0.7-0.7c0.3-0.3,0.5-0.4,0.8-0.7c0.7-0.6,1.8-1.2,2.7-1.4c1-0.3,4.1-0.8,4.4,0.3c0.2,0.7-0.1,0.6-0.2,0.6
			l-3.7,0.4c-0.6-0.1-1.4,0.7-2,0.9l0,0C15.6,47.8,14.1,49.2,13.5,49.7z M5.4,48.9c-0.2,0.5-0.6,1.1-0.7,1.6l-0.5,1.9
			c-0.8,1.4-1,2.8-1,4.7c0,0.9-0.3,4.1-0.2,4.9c0.5,0,0.4-0.1,0.7-0.5c0.4-0.6,1.2-1,1.6-1.6c0.6-0.9,0.3-0.3,1.2-1
			c0.7-0.5,0.5-0.1,1.3-0.8c0.5-0.4,1.6-0.8,2.2-1.1c1.6-0.8,5.5-0.6,7.6-0.4c0.5,0.1,1.2,0.2,1.6,0.4c0.7,0.3,1.6,0.5,2.2,0.8
			c0.2,0.1,0.4,0.3,0.5,0.4l2.6,1.3c0.5,0.3,0.6,0.6,1,1c0.4,0.3,0.7,0.5,1,0.9c0.2,0.3,0.2,0.4,0.5,0.6c0.6,0.6,0.7,1.1,1.2,1.6
			c0.7,0.7,0.1,0.7,0.5,1.4c0.3,0.5,0.4,0.6,0.6,1.3c0.1,0.4,0.2,0.5,0.3,0.8s0.1,0.6,0.1,0.9c0.1,0.4,0.1,0.3,0.2,0.7
			c0.3,1.5,0.5,2.7,0.5,4.4c0,3.5-0.5,2.6-0.8,5c-0.1,0.6-0.2,0.5-0.3,1c-0.2,0.5-1.1,2-1.5,2.4l-1.4,1.2c-0.3,0.2-0.3,0.4-0.6,0.7
			c-2,1.8-2.5,1.8-4.8,3.1c-0.7,0.3-2.2,0.8-2.9,0.9c-1.6,0.3-3.3,0.2-4.9,0.3c-2.2,0.2-3.3-0.7-5-1.5L8,86.1
			c-0.5-0.4-1.6-0.9-2.2-0.9c0,0.5,0.1,0.6,0.3,0.9c0.5,0.7,0.5,1.9,0.9,2.6c0.2,0.3,0.3,0.4,0.4,0.7c0.3,0.9,0.3,1.9,0.9,2.6
			l0.4,0.8c0.1,0.3,0.3,0.4,0.4,0.7c0.5,0.9,0.5,0.3,0.5,1.8c0,0.7,0.1,0.5,0.3,0.9c0.2,0.3,0.2,0.4,0.4,0.8
			c0.3,0.4,0.2,0.3,0.3,0.9c0.1,0.4,0.2,0.4,0.4,0.8c0.2,0.5,0.3,0.7,0.7,1.1c0.5,0.5,0.7,1.4,1.4,2.1c0.1,0.1,0.2,0.2,0.3,0.3
			l1.1,1.2c0.5,0.4,0.5,0.9,1,1.3c0.5,0.3,0.7,0.8,1.1,1.2l1.6,1.9c0.2,0.3,0.3,0.5,0.5,0.7c0.2,0.3,0.4,0.4,0.6,0.6
			c0.7,0.8,0.6,0.6,1.2,1.2c0.3,0.3,0.2,0.3,0.6,0.5c0.2,0.2,0.5,0.3,0.7,0.5l1.3,1c0.3,0.3,0,0,0.3,0.3c0.5,0.4,0.7,0.3,1.2,0.7
			l0.3,0.2c0.1,0.1,0.2,0.1,0.4,0.2l1,0.5c0.5,0.2,0.7,0.4,1.4,0.6l1.9,0.4c0.1,0,0.7,0.2,0.9,0.3c0.6,0.3,0.1,0.2,0.7,0.4
			c0.8,0.3,1.8,0.4,2,0.4c0.4,0.2,0.3,0.2,0.8,0.3l2,0.4c0.2,0.1,0.1,0.1,0.4,0.2l2.3,0.6c1.2,0.3,2.6,0.5,4,0.7l2,0.3
			c1.1,0.3,7.7,0.1,8.6,0.1c4.1,0,3.1-0.1,6.7-0.7c0.7-0.1,1.2-0.2,1.8-0.4c0.6-0.1,1.2-0.3,1.9-0.4c1-0.1,1.2-0.3,1.8-0.4
			c0.6-0.1,1.3-0.3,1.7-0.5c0.9-0.5,1.9-0.5,2.6-0.9l1-0.3c1.6-0.7,0.8-0.1,2.2-1l1.5-0.7c0.5-0.3,1.4-1,1.9-1.4
			c0.4-0.3,0.8-0.7,1.2-1c0.5-0.4,0.9-0.5,1.3-0.9l4-3.9c0.7-0.8,1.1-1.8,1.9-2.5c0.4-0.4,0.6-1,1-1.3c0.6-0.6,0.9-1.4,1.4-1.9
			l0.9-1.3c0.1-0.1,0.1-0.1,0.1-0.2l0.4-1.1c0.3-1,0.2-0.5,0.5-1.2c0.1-0.3,0.2-0.5,0.3-0.8c0.3-0.8,1.2-2.2,1.6-2.9
			c0.6-0.9,0.9-2.1,1.4-3c0.2-0.2,0.3-0.4,0.4-0.7c0.3-0.7,0.9-1.6,0.4-2.3c-1.3-0.1-1.9,0-1.9-0.9c0.5-0.3,1.8-0.3,2.6-0.4
			c0.7,0,1.8-0.4,2.3-0.7c1.9-1.2,0.7-0.3,2.2-1.6l2.4-3.2c0.1-0.1,0.3-0.8,0.3-1c0.6-1.7,0.6-2.7,0.6-4.9c0-1.5-0.4-2.2-0.9-3.5
			c-0.4-0.9-2-3-2.8-3.6c-0.8-0.6-1.8-1.3-2.8-1.4c-1-0.1-3-0.4-4.1,0c-1.6,0.5-1.4-0.9,0.2-1.2c1.4-0.4,2.5,0.3,2.6-0.5
			c0-0.4-0.1-0.5-0.1-0.9l-0.1-4.1c0-1.4-0.1-4.2-0.4-5.3c-1.4-4.3-1.2-2.8-1.7-4c-0.2-0.4-0.3-0.7-0.5-1c-0.2-0.3-0.3-0.5-0.5-0.9
			c-0.7-1.3-1.5-2.2-2.2-3.4c-0.2-0.3-0.3-0.7-0.5-1c-0.2-0.3-0.4-0.5-0.6-0.8c-0.2-0.3-0.3-0.6-0.6-0.9c-0.7-0.9-0.7-1.2-1.1-1.7
			c-0.3-0.3-0.1-0.1-0.3-0.4L79.3,33c-0.7-0.7-1.9-1.6-2.7-2.3c-0.4-0.3-0.5-0.3-0.9-0.6c-0.4-0.3-0.3-0.3-0.8-0.6
			c-1.6-0.8-1.1-0.9-2.9-1.5c-0.5-0.2-0.5-0.2-0.9-0.4c-0.3-0.2-0.6-0.4-1-0.4c-1.2-0.2-2.2-0.7-3.3-1c-0.9-0.2-1.3-0.3-2.1-0.6
			c-1.4-0.5-3.5-0.5-5-0.8c-1-0.2-7.1-1.2-8.7-1.3c-0.9-0.1-0.5-0.2-1.1-0.3c-2-0.5-11.8-0.5-13.2,0c-1.4,0.6-4.1,0.7-5.7,1.3
			c-0.3,0.1-0.5,0.3-0.8,0.3c-0.7,0.1-1.2,0.2-1.7,0.6c-0.2,0.2-0.4,0.3-0.7,0.4c-0.8,0.4-0.7,0.3-1.4,0.9c-0.3,0.3-0.4,0.2-0.8,0.4
			c-0.3,0.2-0.3,0.3-0.7,0.5c-0.3,0.1-0.6,0.2-0.9,0.3c-0.3,0.1-0.4,0.3-0.7,0.5s-0.5,0.2-0.8,0.4c-0.7,0.5-1.4,1-2.2,1.3
			c-0.5,0.2-0.6,0.5-1,0.7l-3.1,2c-0.3,0.2-0.3,0.3-0.7,0.5c-0.4,0.2-0.3,0.3-0.7,0.5c-0.2,0.2-0.4,0.3-0.7,0.5
			c-0.3,0.2-0.4,0.3-0.7,0.5c-0.9,0.8-1.1,0.9-1.7,1.8c-0.3,0.6-0.4,0.3-1,1.5l-0.5,0.5c-0.4,0.4-0.6,0.9-1,1.3L6.5,46
			C5.6,47.5,5.8,47.7,5.4,48.9z M68.8,60.6c1,2.2,1.3,5.3,0.7,7.7c-0.1,0.5-0.1,0.8-0.2,1.3c-0.1,0.7-0.8,2.7-1,3.2l-1.1,1.7
			c-1,1.1-0.7,1.1-2,2.3c-1.8,1.6-2.4,0.2-1.6-0.5c0.1-0.1,0.3-0.2,0.4-0.4c0.4-0.4,0.9-0.6,1-1.2c-1.4,0-1.9,0.7-3.1,1l-0.9,0.4
			c-0.2,0.1-0.4,0.1-0.6,0.2l-2.9,1c-1.1,0.4-1.3,0.2-2.5,0.8c-0.5,0.2-0.5,0.2-1,0.4c-0.2,0.1-0.7,0.2-1,0.3L50,79.9
			c-0.3,0.1-0.7,0.2-0.9,0.5c0.3,0.2,0.8,0.3,1.2,0.3c0.8,0,3.2-0.3,3.7,0c0.8,0.3,0.2,1.2-0.7,1.3c-2,0.3-5.3,0.3-6.9-0.8
			c-1-0.6-1.3-0.5-1.9-0.9c-0.2-0.1-0.3-0.3-0.5-0.4c-0.3-0.2-0.7-0.2-1-0.5c0,0-0.1,0-0.1-0.1c0,0,0,0,0-0.1l-0.1-0.1
			c-0.2-0.3-1.1-0.7-1.6-1.2l-1-0.8c-0.2-0.2-0.4-0.7-0.8-1.1l-0.8-1c-0.2-0.6-0.5-0.7-0.7-1.2c-0.2-0.5-0.3-0.8-0.5-1.3
			c-0.3-0.9-0.3-2.3-0.6-3.1c-0.3-0.7-0.3-2.7-0.3-3.7h0.1c0-2.5,0.4-4.7,1.5-6.9c0.1-0.3,0.3-0.4,0.4-0.7l2.2-2.9
			c0.3-0.3,0.2-0.3,0.5-0.5l0.5-0.4c0.2-0.2,0.3-0.3,0.5-0.5c0.3-0.2,0.4-0.3,0.7-0.4l2.6-1.6c0.5-0.3,1-0.4,1.4-0.6
			c0.3-0.1,0.4-0.3,0.6-0.4c0.4-0.2,1.2-0.2,2.4-0.7c1-0.4,2.4-0.5,3.7-0.5c0.7,0,1.2,0.1,1.8,0.2c0.9,0.1,0.9,0.2,1.6,0.4
			c1.3,0.4,1,0.5,2,1l0.3,0.1c0,0,0,0,0.1,0c1.4,0.7,0.8,0.5,1.8,1.1c0.3,0.2,0.5,0.5,0.9,0.6c0.7,0.3,0.7,0.3,1.2,0.8
			c0.3,0.4,0.7,0.6,1,0.9c0.9,0.8,1.6,1.8,1.9,2.1c0.4,0.4,0.6,0.7,0.8,1.2C67.5,58.4,68.3,59.4,68.8,60.6z M59.6,100.2
			c0,0,0.1-0.3,0.8-0.2c0.4,0,1.4,0.7,1.7,0.9c0.2,0.2,0.3,0.3,0.5,0.4c0.3,0.3,0.3,0.1,0.5,0.3c0.2,0.2,0.2,0.3,0.4,0.5
			c0.6,0.6,0.3-0.1,0.8,0.9c0.3,0.6,0.5,0.2,0.8,1.8l0.4,1.2c0.5,1.2,0.7,3.3,0,4.3c-0.3,0.4-0.4,0.7-0.6,1.1
			c-0.2,0.3-0.6,0.7-0.8,1c-0.4,0.5-0.3,0.3-0.9,0.6c-0.6,0.4-2.1,0.7-2.9,0.8c-0.8,0-1.1,0.1-1-0.8c2-1.1,2.8-0.5,3.9-1.5l0.1-0.1
			c0.9-0.9,0.7-0.6,1.2-1.8c0.6-1.6-0.1-2.4-0.3-3.6c-0.2-1.2-0.3-1.5-0.9-2.4c-0.9-1.2-0.2-0.3-1.2-1.3c-0.5-0.5-0.1-0.3-0.8-0.7
			c-0.3-0.2-0.6-0.4-0.9-0.6l-0.5-0.3L59.6,100.2L59.6,100.2z M50.1,99.7c0.9,0,1.6,0.2,2.6,0.2c0.4,0,1,0,1.4,0.1
			c0.3,0.1,0.7,0.3,1,0.4c0.5,0.2,0.3,0.2,1,0.4c0.8,0.2,2.5,1.4,3,2.1l0.2,0.2c0.3,0.3,1.2,0.8,1.5,1.2l0.1,0.3
			c0,0,0.1,0.1,0.1,0.1c0.4,0.8,0.3,2.3,0.1,3c-0.2,0.6-1.1,2-1.7,2.4c-1.5,1.2-2,1-2.8,1.3c-0.6,0.3-0.5,0.3-0.9,0.4l-3.7,0.5
			c-0.7,0.1-2,0.1-2.6,0.2c-1.6,0.3-1.1,0.1-2.5,0.3c-0.5,0.1-0.7,0.2-1.1,0.3l-2,0v0c-0.8,0-1.9,0.1-2.7,0
			c-0.8-0.1-1.6-0.3-2.5-0.3c-0.9,0-1.5-0.2-2.2-0.5c-0.7-0.3-1.4-0.4-2.1-0.6c-0.7-0.3-1.3-0.5-2-0.8c-0.8-0.3-1.8-1.3-2-2.2
			c-0.3-1-0.1-1.5,0.4-2.2c0.2-0.3,0.4-0.6,0.6-0.8l2.2-2c0.3-0.2,0.6-0.3,0.9-0.5c0.7-0.4,0-0.2,1.7-1c0.4-0.2,0.5-0.3,0.9-0.5
			l5.4-1.5C43.6,99.7,48.2,99.6,50.1,99.7z M34,95.1c0.7,0,1.7-0.2,2.2-0.4c0.3-0.1,0.3-0.2,0.5-0.3c1.1-0.5,2.3-1.2,2.2-0.1
			c0,0.8-1.1,1-2,1.5c-2,1.2-6.3,0.6-8.1-1.2c-0.4-0.4-1.2-1.5-1.2-2.3c0-0.5,0.7-2.4,0.8-2.6c0.1-0.2,0.3-0.3,0.5-0.5
			c0.5-0.5,0.7-1.2,1-1.5l1.5-2c0.6-0.8,2.1-1.3,1.2,0.2L30,90c-0.5,1-1.3,2.8,0.2,3.8C31.3,94.6,32.2,95.1,34,95.1L34,95.1L34,95.1
			z M58.4,45.8c-0.1,0.8-0.4,0.4-1.3,0.9c-1.4,0.8-6.3,1.4-8.2,1.1c-1-0.2-1.4-0.4-2.2-0.7c-0.9-0.3-1.2-0.7-1.9-1
			c-1.1-0.5-1.6-1.4-2.2-2.2c-0.3-0.3-0.4-0.5-0.3-1c0.6-0.1,0.7,0,1,0.3c0.8,0.8,0.5,0.3,1.2,1.3c0.3,0.4,0.4,0.2,0.7,0.5
			c0.5,0.5,0,0.3,0.8,0.6c0.3,0.1,0.6,0.3,0.9,0.4C51.4,47.6,57,45.2,58.4,45.8L58.4,45.8z"/>
		<path class="st3" d="M67.7,69.9c0.6-1.4,0.8-4.8,0.5-6.7c-0.2-1.2-0.5-1.3-0.9-2c-0.6-1.2-0.5-1.2-1.3-2.4c-1-1.6-0.1-0.2-1.2-1.6
			c-0.2-0.3-0.2-0.3-0.5-0.5c-0.1-0.1-0.1-0.1-0.2-0.2L64,56.3c-0.7-0.8-1.6-1.7-2.5-2.3l-1.6-1.1c-0.4-0.3-0.8-0.4-1.2-0.7
			c-3-1.6-5.5-1.8-9.1-0.7c-1,0.3-0.6,0.4-1.9,0.8c-0.4,0.1-0.4,0.1-0.7,0.3l-1.2,0.6c-1.8,0.8-1.4,0.9-2.3,1.4
			c-0.9,0.5-2.3,1.8-2.9,2.7c-0.6,0.9-0.2,0-0.7,1.2c-0.1,0.4-0.1,0.1-0.4,0.5c-0.1,0.1-0.2,0.5-0.3,0.7c-0.6,1.5-0.3,0.4-0.6,1.1
			c-0.7,1.2-0.9,5-0.7,6.7v-0.1c0.2,1.5-0.1,1.6,0.4,3.3l1,2.7c0.5,0.9,1.3,2.1,2,2.7c1,0.8,1.4,1.4,1.9,1.8
			c0.6,0.6,1.6,0.8,1.8,0.9c0.2,0.1,0.1,0.1,0.3,0.2c0.4,0.3,0.3,0.1,1,0.4c0.7,0.3,1.7-0.1,2.1-0.4c0.5-0.3,1.3-0.6,2-0.8l2.6-1
			c1-0.2,0.7-0.5,2.7-1c0.4-0.1,0.9-0.4,1.3-0.5c0.5-0.1,1-0.2,1.5-0.3c0.9-0.3,1.8-0.7,2.7-1c1.4-0.5,2.5-1.2,4.1-1.5
			C67.4,72.7,67,71.5,67.7,69.9z M59,57.4c1-0.7,0-0.4,0.1-1.5c0.6-0.5,1.4-0.6,2-0.3c0.3,0.1,1.2,1,1.2,1.2l0,0
			c0.2,0.1,0.3,0.1,0.6,0.9c0.5,1.6-0.3,2.1-1.7,2.1c-0.1,0.9-0.1,0.9-1,1c-2,0.1-1.4-0.4-1.9-1.2c-0.2-0.3-0.3-0.3-0.4-0.5
			c-0.3-0.7,0.1-1.1,0.6-1.3C58.7,57.6,58.8,57.5,59,57.4z"/>
		<path class="st3" d="M29.4,75.5c0.3-0.9,0.1-2.4,0.1-3.5c0-1.6-0.4-3.2-0.8-4.6l-1.1-2.5l-1.8-2.6c-0.2-0.3,0,0-0.2-0.2L25.5,62
			c-0.4-0.5-0.2-0.3-0.7-0.6c-0.3-0.1-0.9-0.7-1.6-1.1c-0.5-0.3-0.6-0.5-1.1-0.7c-0.5-0.3-0.7-0.3-1.2-0.6c-0.6-0.4-1.7-0.7-2.5-1
			c-1.7-0.7-6.7-0.5-8,0.1l-0.2,0.1c-0.7,0.3-1.5,0.6-2.2,1.1l-1.5,1.2c-1,0.7-0.5,0.5-1.4,1.3c-0.4,0.4-0.3,0.7-0.7,1
			c-0.4,0.3-0.3-0.1-0.8,1l-0.9,1.4l-0.1,0.3c-0.1,0.2-0.1,0.5-0.2,0.7C2.4,66.9,2.2,67,2,67.6c-0.4,1.6-0.7,2.9-0.7,4.6
			c0,1.2-0.1,2.4,0.1,3.5c0.3,2.3-0.1,1.9,0.9,3.7c0.1,0.3,0.2,0.3,0.3,0.6l1.7,2.7c0.4,0.5,1,0.9,1.5,1.1c0.7,0.3,0.6,0.3,1.1,0.7
			c0.9,0.5,4.2,1.9,5,2.1c0.7,0.1,2.5,0,3.5,0c1.8,0,1.3-0.3,2.3-0.4l0.7-0.1c0.9-0.3,0.7,0,2.2-0.6c0.4-0.1,1.8-0.8,2.1-1
			c0.3-0.3-0.1,0,0.2-0.2l1.1-0.7c0.1-0.1,0.3-0.3,0.4-0.4c0.6-0.5,0.1,0.1,0.9-0.9c0.6-0.7,0.7-0.2,1.4-1.3
			c0.2-0.3,0.2-0.2,0.4-0.4c0.4-0.4,0.3-0.6,0.7-1.1c0.8-1,0.3-1.1,1-2.6C29.2,76.3,29.1,76.1,29.4,75.5L29.4,75.5z M24.2,69.2
			L24,68.3c-0.5-0.2-0.6-0.4-0.9-0.7c-0.3-0.3-0.4-0.7-0.2-1.2c0.4-0.8,1.2-1.4,2.2-1.2l1,0.9c0.4,0.3,0.2,0.1,0.3,0.4
			c0.4,0,0.2,0.7,0.1,0.9l-1.2,1.5C24.9,69.3,24.8,69.3,24.2,69.2z"/>
		<path class="st4" d="M51.1,104.4c-0.3,0-1.7,2.1-4.7-0.6c-0.2-0.2-0.2-0.3-0.6-0.3c-0.4,0.5-0.3,0.7-0.9,1c-2.5,1.5-3.3-0.5-4-0.6
			c-0.5,1-0.1,2.4-2.7,2.1c-0.9-0.1-1.1-0.3-1.7-0.8c-0.8-0.6-0.6-0.4-1.1-1.2c-0.5,0-1.7,1-2.2,1.3l-1.6,1.8
			c-0.4,0.7-0.3,0.7,0.1,1.5c0,0,0,0.1,0,0.1l0.2,0.3c0.5,0.7,0.4,0.5,1.1,0.7c0.5,0.1,0.1,0,0.5,0.3c0.4,0.3,0.7,0.4,1.3,0.5
			c0.2,0,0.5,0.1,0.8,0.2l0.2,0.1c1,0.4,0.4,0.5,1.8,0.6c2.1,0.1,1.4-0.2,3.1,0.3c0.9,0.2,5.8,0,6.3-0.4l0.1,0
			c-0.2-0.4-0.5-0.2-0.9-0.6l-0.6-0.7c-0.3-0.3-0.3-1.2,0.2-1.8l0.4-0.4c0,0,0-0.1,0.1-0.1c0.9-0.8,2.3-0.9,2.6-1l0.3-0.1
			c0.6-0.3,3.2-0.3,3.7-0.1c0,0,0,0,0.1,0c0.9,0.5,2.2,0.4,2.7,0.7c0.2,0.1,0.2,0.2,0.4,0.3l0.5,0.2c0.3,0.1,0.2,0.3,0.5,0.6
			l0.9,0.9c1,0,0.9-0.4,1.5-1.6c0.2-0.3,0.3-0.7,0.2-1.1c-0.1-0.8-0.3-0.9-0.4-1c-0.6-0.7,0.1-0.7-1.3-1.6c-0.5-0.3-0.8-1.1-1.6-1.1
			c-0.3,0.4-0.2,0.4-0.3,0.9c-0.1,0.4-0.2,0.4-0.4,0.7c-0.8,1-1.6,1.4-3.1,1.1C51.8,105.1,51.4,104.4,51.1,104.4z"/>
		<path class="st5" d="M54.9,108.5c-2-1.2-6.9-1.3-7.8,0.3c-0.1,0.1-0.2,0.3-0.1,0.7c0.1,0.4,1.4,1,1.8,1.4c0.6,0.5,2.1,0.4,2.9,0.2
			c1.1-0.3,3.9-0.1,4.8-1.1c0.1-0.1,0.2,0.2,0.1-0.3C56.5,109.2,55.2,108.7,54.9,108.5z"/>
		<path class="st6" d="M39.3,104.8c0.5-0.4,0.5-1.7,0.4-2.5h0c-0.6-0.1-1.9,0.4-2.4,0.6c-0.9,0.4-1.2,0.5-0.3,1.6
			C37.3,104.8,38.7,105.3,39.3,104.8z"/>
		<path class="st6" d="M41.2,101.8c0,2.1,3,2.9,3.4,1.3c0.1-0.4,0.2-1.5,0.2-1.9C43.9,101.1,41.7,101.5,41.2,101.8L41.2,101.8z"/>
		<path class="st6" d="M46.3,101.1c-0.2,2.3,3.4,3.9,3.5,2.2c0.1-0.4,0-0.8,0-1.2c0-0.4,0.1-0.7,0-1L46.3,101.1z"/>
		<path class="st6" d="M51.4,101.3c0,2.2,0.7,2.9,2.9,2.3c0.3-0.7,0.6-0.7,0.5-1.7C54.3,101.4,52.3,101.3,51.4,101.3z"/>
	</g>
</g>
</svg>
