<?xml version="1.0" encoding="utf-8"?>
<!-- Generator: Adobe Illustrator 25.4.1, SVG Export Plug-In . SVG Version: 6.00 Build 0)  -->
<svg version="1.1" id="Layer_1" xmlns="http://www.w3.org/2000/svg" xmlns:xlink="http://www.w3.org/1999/xlink" x="0px" y="0px"
	 viewBox="0 0 112.3 110" style="enable-background:new 0 0 112.3 110;" xml:space="preserve">
<style type="text/css">
	.st0{fill-rule:evenodd;clip-rule:evenodd;fill:#2B2A29;}
	.st1{fill-rule:evenodd;clip-rule:evenodd;fill:#865222;}
	.st2{fill-rule:evenodd;clip-rule:evenodd;fill:#F9C3A1;}
	.st3{fill-rule:evenodd;clip-rule:evenodd;fill:#FEFEFE;}
	.st4{fill-rule:evenodd;clip-rule:evenodd;fill:#6F1E24;}
	.st5{fill-rule:evenodd;clip-rule:evenodd;fill:#E31E24;}
</style>
<g id="Capa_x0020_1">
	<g id="_343577072">
		<g>
			<path class="st0" d="M92.7,46.5c-2.6,0-1.9-0.1-2.6-0.9c-0.5-0.5-0.3-0.6-1.4-1.2c-0.2-0.1-0.4-0.2-0.6-0.3
				c-2.8-1.2-2.3-0.1-3.8-1.2c-0.8-0.6-1.1-1.2-1.7-1.8c-0.3-0.3-0.4-0.6-0.7-1c-0.3-0.5-0.4-0.7-0.6-1.1c-0.3-0.4-0.2-0.7-0.5-1.2
				c-0.2-0.4-0.4-0.6-0.6-1.1c-0.6-1.9-0.7-1.7-1-2.4c-0.3-0.9-0.4-3.5-0.1-4.6c0.3-1,0.3-0.6,0.6-1.1c0.3-0.7-0.1-0.5,0.6-1.1
				c0.2-0.2,0.5-0.8,0.7-1c0.3-0.6,0.4-0.5,0.8-0.9c0.8-1,0.9-1.4,2-2.3c0.3-0.2,0.2-0.2,0.4-0.4l1-0.7c0.3-0.3,0.7-0.3,1.1-0.7
				l0.1-0.1c0,0,0.1,0,0.1-0.1l0.8-0.5c0.7-0.5,0.6-0.1,1.4-0.5l1.1-0.4c0.7-0.3,2-0.4,3-0.4c1.2,0,1.7,0.2,2.7,0.7
				c0.3,0.2,0,0,0.3,0.2c0.3,0.2,0.3,0.1,0.6,0.3c0.2,0.1,0.3,0.3,0.6,0.4c0.2,0.1,0.5,0.2,0.7,0.3l2.3,1.4c0.9,0.8,0.3,0.3,1,0.8
				c0.4,0.3,1.3,1.4,1.6,1.9l1.7,2.3c0.3,0.4,0.3,1,0.7,1.8c0.4,0.8,0.4,2.1,0.6,3.1c0.4,2.4,0.5,3.1,0.2,5.7
				c-0.1,0.6-0.4,1.3-0.7,1.8c-0.8,1.5-0.3,2.5-1.6,3.5c-0.7,0.6-2.4,1.5-3.4,1.7c-1.4,0.3-0.3,0.4-3,0.8
				C95.3,46.6,94.5,46.5,92.7,46.5L92.7,46.5z M79.9,45.3c-0.7,0.9,0.6-0.5-0.2,0.2c-0.3,0.3-0.6,0.3-0.5,1c0.4,0.1,0.5,0,0.7-0.2
				c1.2-1,3.3-1.8,4.8-1.8c1.3-0.1,2.5,0.4,3.4,1c0,0,0.1,0,0.1,0.1l0.3,0.3c0.5,0.4,0.8,0.5,1.2,1.3c0.8,1.6,0.4,1.9,0,2.9
				c-0.4,1-0.9,1.5-1.6,2.2c-0.4,0.5-2.3,1.9-3,2.2l-0.3,0.1c-1,0.3-0.9,0.1-1,0.5c0,0-0.1,0.2,0.1,0.4c0.3,0.3,1.9-0.1,2-0.2
				c0.8-0.3,2.6-1.7,3.1-2.2c0.3-0.4,0.2-0.4,0.7-0.5c0.4-0.7,0.9-1.2,1.3-2c0.7-1.2,0.3-1.6,0.4-3.1c0.6,0.1,0.2,0.1,0.5,0.1
				l1.3,0.3c0.9,0.1,1.3-0.2,2-0.2c1.8-0.1,2.2,0,4-0.5c0.7-0.2,0.9-0.5,1.5-0.7c0.9-0.2,2.3-1,2.9-1.5c0.4-0.3,0.6-0.9,1.2-1
				l0.2,0.2c0.3,0.4,0.5,0.7,0.5,1.2c-0.3,0.3-0.7,0.6-1,0.9c-1,1.1-0.7,0.5-1.6,1.3c-0.5,0.4-1.5,0.6-1.9,0.9
				c0.1,1.1,1.5,0,2.1-0.1c0.9-0.3,0.7-0.3,1.4-0.8c0.1-0.1,0.5-0.3,0.6-0.4c0.3-0.3,0.1-0.3,0.5-0.6c1.2-0.9,1.4-0.1,1.7,1.1
				c0.1,0.5,0.3,0.5,0.6,0.8c0.2,0.4,0.1,0.5,0.3,0.9c0.4,0.7,0.3,1.2,0.8,1.8c0.4,0.5,0.5,1.2,0.7,1.8c0.6,1.4,0.5,3,0.7,4.6
				l0.2,2.4c0,0.9,0,1.7,0,2.6c0,1.8-0.1,3.4-0.1,5.2c0,2.7,0.1,4.9-0.3,7.5c-0.3,1.7-0.7,2.4-1,4.2c-0.1,0.7-0.6,1-0.7,1.7
				c-0.4,1.8-0.7,1.8-1.1,2.9c-0.1,0.3,0,0.2-0.2,0.5c-0.3,0.6-0.3,1-0.6,1.4c-1,1.4-2,3.6-2.9,5l-1,1.7c-0.5,0.7-1.1,1.3-1.4,1.8
				l-1,1c-0.5,0.6-1,1.2-1.6,1.7c-0.1,0.1-0.1,0.1-0.2,0.1c-0.5,0.5-1.1,0.9-1.6,1.4l-1.3,1.2c-0.3,0.3-0.5,0.3-0.9,0.5
				c-0.1,0.1-0.2,0.2-0.3,0.3l-0.3,0.2c-0.3,0.3-0.5,0.3-0.9,0.4c-0.3,0.1-0.5,0.3-0.8,0.5l-3.6,1.6c-0.6,0.2-1.2,0.6-1.8,0.8
				c-1.1,0.4-3.1,1.1-4.1,1.3c-0.7,0.1-0.5,0.5-1.7,0.8c-0.6,0.1-0.5,0.3-0.9,0.4c-0.4,0.1-0.7,0.1-1,0.3c-1,0.3-5,0.9-6.6,1.2
				c-1.3,0.3-6.3,0-7.4-0.3l-2.1-0.4c-1.5-0.2-3.4-0.2-4.9-0.3l-7.2-0.7c-0.6-0.1-2.8-0.8-3.5-1.2c-0.1,0-0.2-0.1-0.2-0.1l-1.2-0.4
				c-0.5-0.1-1-0.4-1.4-0.6l-4-1.9c-0.4-0.1-0.7-0.1-1-0.3c-0.3-0.2-0.4-0.4-0.7-0.6l-5.5-3.8c-0.7-0.5-1.4-1.3-1.9-2
				c-0.3-0.5-0.3-0.3-0.7-0.6l-2.5-2.7c-0.3-0.4-0.8-1.1-0.8-1.7c0.2-0.1,0.3-0.1,0.5-0.2c0.1-0.1,0.4-0.2,0.5-0.2
				c0.7-0.2,0.5-0.1,1-0.5l-0.1-0.8c-1-0.1-1.4,0.1-2.3,0.1c-0.8,0-1.7-0.1-2.4,0c-1.1,0.1-2.7,0.2-3.8-0.3l-1.4-0.4
				c-1.6-0.6-1.9-1.6-2.6-2.2c-0.3-0.2-0.4-0.3-0.6-0.5c-0.2-0.2-0.3-0.5-0.4-0.8c-1.3-2.4-1.6-6.4-0.9-9.3c0.3-1.1,0.5-0.9,0.9-1.5
				c0.6-1,1.2-2,2.1-2.7c1.1-0.9,0.2-0.5,1.6-0.5l0.7-0.9c0.8-0.7-0.2-0.8-0.3-1c-0.2-0.5,0-1.3-0.3-2l-0.5-1.8
				c-0.1-0.6-0.1-1.6-0.2-2.1c-0.1-1.1-0.3-4.3-0.1-5.4l0.6-3.1c0,0,0-0.1,0-0.1c0.3-0.7,0.4-1.5,0.5-2.2c0.2-1.4,0.2-1.4,0.6-2.7
				c0.2-0.6,0.2-1.3,0.4-1.9c0.1-0.3,0.2-0.5,0.2-0.8c0.1-0.8,0.3-1.1,0.3-1.9c0.1-0.9,0.4-1.7,0.7-2.6l0.4-1.3
				c0-0.1,0.2-0.3,0.2-0.3c0.2-0.4,0.5-1.9,1.2-3.1c0.3-0.6,0.5-1.4,0.9-1.9c0.1-0.2,0.1-0.1,0.2-0.3c0.2-0.3,0.1-0.4,0.4-0.7
				c0.1-0.2,0.3-0.3,0.5-0.6c0.2-0.2,0.3-0.4,0.4-0.7c0.3-0.6,0.7-0.8,1-1.2c0.5-0.8,1-1.6,1.6-2.2c0.1-0.1,0.1-0.1,0.3-0.3
				c0.2-0.2,0.5-0.3,0.6-0.5c1.5-1.2,2.1-2.2,4-3.7c0.6-0.5,0.5-0.3,1.3-1l2.4-1.8c0.9-0.6,1.4-0.6,2.1-1.1c0.3-0.3,0.3-0.2,0.8-0.2
				c0.1,1.1-0.1,1.8,0,2.9c0.1,1.1-0.1,2.1,1,2c0-0.9-0.2-1-0.2-1.8c0-0.6,0-1.2,0.1-1.8c0.2-1.2,0.4-2.2,1.2-2.7
				c0.2-0.1,0.5-0.2,0.7-0.3c0.2-0.1,0.4-0.3,0.6-0.4c0.5-0.2,1-0.3,1.4-0.5c0.4-0.3,0.8-0.5,1.3-0.7c0.9-0.3,1.4-0.5,2.3-0.7
				c0.5-0.1,0.3-0.2,0.7-0.3c0.6-0.1,1.1-0.1,1.7-0.2l3.1-0.8c0.9-0.1,2.6-0.3,3.3-0.6c1-0.4,2.2-0.4,3.2-0.6
				c1.1-0.3,2.5-0.1,3.7-0.2l3.5-0.4c2.3-0.3,3.3-0.2,5.4,0.3c0.6,0.1,1.1,0.1,1.7,0.3c1.1,0.3,1.9,0.8,3,0.9
				c0.9,0.1,1.6,0.3,2.4,0.5l2.3,0.7c0.7,0.2,3.5,1.2,3.6,2.1l-4.5,3.3c-0.3,0.3-0.1,0-0.2,0.3c-0.2,0.4-0.2,0.3-0.5,0.6
				c-0.5,0.5-0.6,0.9-1,1.4c-0.3,0.3-0.4,0.3-0.6,0.6c-0.9,1.4-1.4,2.2-2,3.9c-0.4,1.1-0.1,3.5,0.2,4.4c1,2.5,0.8,4.1,2.9,6.7
				c0.2,0.3,0.4,0.5,0.6,0.7c0.2,0.3,0.3,0.4,0.5,0.7c0.7,0.8,0.3,0.5,1.1,1.2c0,0.3,0,0.4-0.1,0.6c-1.3,0.3-1.5,0.1-2.7,0.9
				c-0.3,0.2-0.4,0.4-0.6,0.4L79.9,45.3z M1.5,58.2c0-5.2,0.6-4.4,0.8-5.8c0.2-1.1,1.2-4,1.7-4.8c0.2-0.3,0.3-0.3,0.5-0.7
				c0.1-0.2,0.2-0.5,0.3-0.7c0.2-0.4,0.3-0.4,0.4-0.6c0.2-0.3,0.2-0.5,0.3-0.7c0.1-0.2,0.1-0.2,0.3-0.3c0.7-0.8,1-1.7,1.1-2.7
				c0.1-0.6,0.2-1.4,0.4-1.9c0.4-1.1,0.4-2.6,0.5-3.8c0.2-1.3,0.4-2.3,0.8-3.5c0.1-0.4,0.1-0.5,0.2-0.9c0.2-0.9,0.7-1.5,1-2.3
				c0.4-1.1,0.5-1.4,1-2.4c0.1-0.2,0.3-0.4,0.4-0.7l0.9-1.3c0.3-0.5,0.2-0.3,0.5-0.6c0.3-0.3,0.2-0.3,0.4-0.7
				c0.2-0.3,0.3-0.2,0.5-0.5c0.1-0.1,0.3-0.4,0.5-0.6c1-1.1,0.9-0.6,1.6-1.4L18,19c0.3-0.3,0.2-0.3,0.6-0.5c1.9-1.2,2.1-1.5,3.7-2.9
				c1-0.9,1.8-1.8,2.6-2.8c0.3-0.4,0.8-0.7,1.2-1.1l1.1-1.1c0.4-0.4,1-0.6,1.3-0.9c0.3-0.2,0.2-0.3,0.5-0.5c0.4-0.2,0.3-0.1,0.7-0.4
				c1-0.9,1.6-0.8,2.1-1.2l2.2-1.1c0.7-0.4,1.6-0.6,2.3-0.9c1.1-0.5,2.2-0.7,3.4-1.1l0.9-0.2c0.5-0.2,0-0.2,0.8-0.3
				c0.5-0.1,1.3-0.2,1.8-0.3c0.3-0.1,0.5-0.3,0.8-0.3c0.3-0.1,0.7-0.1,0.9-0.1l3.6-0.7c0.6-0.1,1.3-0.1,2-0.2
				C52.1,2.1,52.6,2,54.5,2c3.9,0,4,0.5,5,0.5c1,0,1.8,0.3,2.7,0.5c0.5,0.1,1.1,0.4,1.6,0.6c0.8,0.3,0.9,0.3,1.7,0.5
				c1.4,0.4,3.1,1.4,4.3,2.3c0.7,0.5,1.1,1.2,1.6,1.8l0.8,1.2c0.9,1.3,1.5,2.5,0.6,4l-2.1,0c-2.9,0-2.3,0.2-4.3,0.4
				c-1.2,0.1-2.6,0.1-3.9,0.2c-1.3,0-2.3,0.3-3.6,0.4c-2,0.2-3.2,0.6-5,1l-1.6,0.4c-1,0.3-2.2,0.4-3.3,0.8L46,17.4
				c-0.9,0.3-2,1.2-2.8,1.2c0.1-1,1.7-3,2.3-3.7c0.3-0.4,0.8-0.4,0.9-0.6c0.2-0.2,0.3-0.7,0.6-0.9c0.5-0.4,1.2-1,1.2-1.7
				c-0.6-0.1-0.7,0.1-1.1,0.3c-1,0.5-1.5,1.4-2.3,1.9L43,16.3c-1.1,1.4-1,3.5-2.9,4.2c-0.7,0.3-1.1,0.8-1.8,1
				c-0.8,0.3-1.1,0.6-1.7,1c-1,0.7-2.7,2-3.5,2.8c-0.3,0.2-0.1,0.1-0.4,0.3c-0.9,0.5-0.8,0.8-1.4,1.3c-0.3,0.2-0.2,0.1-0.4,0.4
				c-0.5,0.6-1.2,1.2-1.8,1.7l-1.2,1.5c-0.3,0.7-0.3,0.4-0.7,0.8l-1.2,1.6c-0.4,0.4-0.5,0.8-0.9,1.2c-0.3,0.4-0.4,1-0.7,1.4
				c-0.2,0.3-0.4,0.5-0.6,0.8l-1,1.9c-0.2,0.4-0.2,0.6-0.3,1c-0.3,0.6-0.7,1.2-0.9,1.9c-0.2,0.8-0.4,1.5-0.6,2.3
				c-0.1,0.4-0.1,0.7-0.3,1.1c-0.3,0.8-0.4,1.6-0.5,2.4L19.9,48c-0.1,0.4-0.3,0.7-0.4,1c-0.1,0.5-0.1,0.7-0.2,1.2l-0.9,3.3
				c-0.1,0.5-0.2,0.7-0.3,1.1c-0.2,0.9-0.1,1.7-0.4,2.5c-0.3,0.7-0.2,1.7-0.2,2.6c0,2,0,3.3,0.4,5.2c0.2,1,0.3,2.5,0.6,3.6
				c0.4,1.3,0.2,1.2-0.9,2c-0.5,0.4-0.4,0.5-0.9,0.9c-0.7,0.5-0.8,0.9-1.4,1.4c-0.3,0.3-0.2,0.2-0.4,0.5c-0.2,0.3-0.2,0.3-0.4,0.5
				c-1.5,2.1-1.3,4.8-1.2,7.3c0,0.8,0.3,1.3,0.2,2c-0.6,0-1.2-0.3-1.5-0.8c-0.9-1-1.9-2.1-2.7-3.1c-0.2-0.3-0.4-0.3-0.6-0.6l-2-2.6
				c-0.6-1-0.1-0.4-0.9-1.4c-0.4-0.5-0.4-0.9-0.8-1.4c-0.4-0.5-0.5-1-0.8-1.5c-0.2-0.3-0.3-0.3-0.5-0.7c-0.3-0.7-0.9-1.7-1-2.5
				l-0.8-3.8c-0.1-0.3-0.3-0.6-0.3-0.8c-0.4-1.3-0.3-4.1-0.3-5.6L1.5,58.2z M26.1,90.9c0.3,0.5,0.4,0.6,0.7,1.2
				c0.2,0.5,0.4,0.8,0.7,1.2c0.3,0.3,0.5,0.7,0.8,1c0.7,1,1.7,1.8,2.5,2.8l1,1.2c0.3,0.3,0.6,0.6,1,1c0.6,0.6,1.4,1.1,2.1,1.6
				c0.7,0.5,1.5,0.9,2.2,1.5c1,0.8,2.4,1.6,3.6,2c0.5,0.2,1,0.3,1.4,0.5c1.7,0.9,1.7,0.7,2.6,1.1l2.6,1.1c0.4,0.2,0.9,0.3,1.4,0.4
				l1.6,0.3c2.1,0.7,4.4,0.6,6.7,0.9c0.5,0.1,1.2,0,1.8,0.1c0.6,0.1,1.1,0.1,1.7,0.2c0.6,0.1,1.1,0,1.7,0.1c0.7,0.1,1,0.2,1.6,0.3
				c0.9,0.1,2.1,0.1,2.9,0.4c0.4,0.1-0.1,0.1,0.4,0.1h5.5l1-0.3c0.8-0.1,1.6-0.1,2.4-0.3c1.8-0.5,3.7-0.7,5.5-1.4
				c0.2-0.1,0.3-0.1,0.5-0.2c1.1-0.5,2.4-0.8,3.5-1.3c1.6-0.7,1.4-0.7,3-1.1c0.5-0.1,0.5-0.1,1-0.4c0.5-0.3,0.2-0.3,0.8-0.5
				c1.1-0.3,2.8-1.1,3.8-1.7c1.1-0.7,2.2-1.4,3.2-2.3c0.3-0.3,0.5-0.3,0.8-0.6c0.5-0.4,0.8-1,1.4-1.3c0.7-0.4,1-0.8,1.5-1.2
				c0.4-0.3,0.8-1.1,1.2-1.6c0.7-0.9,1.5-1.6,2-2.6c0.1-0.2,0.1-0.3,0.3-0.5c0.2-0.3,0.4-0.4,0.6-0.8c0.5-0.9,1.1-1.7,1.5-2.6
				c0.2-0.4,0.3-0.5,0.5-0.9c0.4-0.9,0.4-1,0.9-1.8c0.4-0.6,0.6-1.3,0.9-1.9c0.2-0.4,0.3-0.5,0.5-0.9c0.5-0.9,0.8-2.1,1-3.1
				c0.1-0.6,0-0.5,0.3-1.1l0.3-0.7c0.1-0.3,0,0,0.1-0.3c0.1-0.4,0.2-0.7,0.3-1.1c0.3-1.5,0.3-3.3,0.4-5.1l0.2-2.6
				c0.2-1.7-0.2-3.7,0.1-5.4c0.2-1.3,0.7-2.5,0.4-3.7l-0.4-1.8c-0.1-0.5,0-0.9,0-1.4c-0.2-1.6-0.4-3.4-0.7-5c-0.1-0.5-0.2-0.6-0.5-1
				c-0.3-0.4-0.2-0.5-0.4-1c-0.2-0.4-0.4-0.6-0.5-1c-0.2-0.7-0.5-1.3-1-1.9c-0.3-0.5-0.2-0.8-0.7-1.4c-1.4-1.8-0.2-1.2-0.1-2.3
				c-0.3-0.2-0.2-0.2-0.6-0.2c-0.3,1.1-1.6-0.4-1.8-1c-0.2-0.5,0.6-2,0.7-2.6c0.2-0.6,0.5-0.9,0.6-1.6c0.5-2.5,0.1-3.8-0.1-6.1
				c-0.1-0.7-0.3-1.1-0.4-1.6c-0.3-1.8-0.5-2.9-1.6-4.5l-2.4-3.6c-0.4-0.3-0.9-0.5-1.2-0.8c-0.5-0.5-1.2-0.7-1.8-1.1
				c-1.4-0.9-0.8-0.5-2-1.1c-1-0.5-0.9-1-2.7-1.4c-0.8-0.2-1.3-0.4-2.1-0.4c-0.2,0-0.6,0.3-1.2,0.3c-0.5,0-1,0.1-1.4,0.2
				c-1.6,0.3-1.1,0.7-3.1-0.9c-0.5-0.4-1-0.5-1.5-0.8c-0.9-0.5-1.8-0.8-2.8-1.1c-1.2-0.4-2.4-1-3.7-1.1c-0.9-0.1-1.7-0.4-2.6-0.7
				c-0.5-0.1-0.9-0.1-1.3-0.3c-0.4-0.2-1-0.2-1-0.7c0-0.8,0.4-1.2,0.4-2c0-0.7-0.7-2.2-1-2.6c-0.5-0.7-1-1.6-1.7-2.2l-0.8-0.8
				c-0.4-0.3-0.7-0.6-1.1-0.8c-0.9-0.6-1.6-0.7-2.5-1.2c-1.1-0.6-2.8-1.1-4-1.5c-1.2-0.4-3.3-1-4.5-1.1c-3.2-0.3-3.1-1-7.5-0.2
				c-0.7,0.1-1.6,0.1-2.3,0.4c-1.7,0.5-3.8,0.4-5.5,1.1c-0.9,0.4-3.7,0.7-4.8,1.1l-1.5,0.6c-0.3,0.1-0.7,0.2-1,0.3
				c-0.4,0.1-0.5,0.3-0.9,0.4c-0.4,0.2-0.7,0.2-1,0.3c-0.1,0.1-0.3,0.1-0.4,0.2c-0.1,0.1-0.3,0.1-0.4,0.2c-1,0.5-1.9,0.6-2.7,1.3
				c-0.3,0.2-0.5,0.3-0.8,0.5l-2.4,1.6c-0.5,0.4-0.9,0.9-1.4,1.2l-0.9,0.7c-0.7,0.6-1,1.5-1.7,2.1c-0.5,0.5-0.7,1-1.2,1.4
				c-0.3,0.2-0.5,0.3-0.7,0.5c-0.3,0.2-0.4,0.5-0.7,0.7c-0.5,0.4-1,0.7-1.5,1.1c-0.3,0.2-0.5,0.3-0.8,0.5l-2.3,1.8
				c-0.5,0.4-1.1,0.7-1.5,1.1c-0.5,0.5-0.6,1.1-1.1,1.5l-0.3,0.3c-0.1,0.2-0.2,0.2-0.4,0.4L11,23.9c-0.8,1-1.3,2.2-1.9,3.4
				c-0.3,0.6-0.6,1.1-0.9,1.8l-0.5,1.4c-0.3,0.9-0.5,1.8-0.7,2.7c-0.3,1.2-0.5,3.6-0.6,4.8c0,0.6-0.2,0.6-0.3,1l-0.3,1.1
				c-0.4,1.2-0.3,2.1-1.5,3.8c-0.2,0.3-0.3,0.4-0.5,0.8L3,46.5C3,46.7,2.9,46.7,2.8,47c0,0.1-0.1,0.1-0.1,0.2
				c-0.4,0.7-0.5,1.5-0.9,2.2l-0.8,1.9c-0.6,1.3-0.6,3.2-0.9,4.6C0,56.9,0,58.4,0.1,59.4c0.1,0.5,0,0.9,0.1,1.3
				c0.2,1.4,0.4,3.1,0.8,4.5c0.2,0.7,0.4,1.4,0.6,2.1c0.1,0.3,0.1,0.7,0.2,1c0.4,1,0.7,2,1.2,3c0.3,0.7,1,2.1,1.4,2.6
				c0.6,0.7,1.1,2,2.1,3.2c0.3,0.4,0.6,0.9,1,1.3c0,0,0,0,0.1,0.1l3.3,3.6c0.4,0.5,0.7,1.1,1.2,1.5c0.6,0.5,2.1,0.8,2.6,1.4
				c0.5,0.6,0.7,1.4,1.4,2.2c0.5,0.5,0.9,1.1,1.5,1.6c1.8,1.4,0.6,0.8,2.5,1.4c1.3,0.5,4.8,0.6,6.2,0.6L26.1,90.9z"/>
			<path class="st0" d="M62.2,28.3c0.6,0.5,2.6,0.6,3.8,3.5c0.2,0.5,0.3,0.8,0.5,1.3c1.2,2.5,0.4,1.1,0.9,2.7c0.4,1.2-0.1,0.3,0.7,2
				c0.6,1.2,0.8,4.5,0.8,5.8c0,0.7-0.1,1-0.2,1.6c-0.1,0.3-0.1,0.4-0.1,0.7c-0.1,0.5-0.1,0.3-0.3,0.7c-0.1,0.3-0.1,0.3-0.3,0.6
				c-0.2,0.2-0.3,0.2-0.4,0.5c-0.5,0.9-0.9,1.4-1.7,2c-0.4,0.3-0.6,0.6-1,0.9c-0.8,0.6-0.4,0.5-0.9,0.9l-4.4,2.9
				c-2.1,1-6,0.9-8.4,0.9c-1.7,0-1.3-0.3-3.1-0.5c-0.5-0.1-1.2-0.1-1.6-0.3c-0.3-0.1-0.4-0.3-0.6-0.4c-0.5-0.3-0.2,0-0.7-0.5
				C44.7,53,44,53.1,43.4,52c-0.4-0.9-0.7-0.5-1.2-2.4c-0.3-0.8-0.1,0.1-0.6-1.2c-0.2-0.5-0.2-0.9-0.4-1.4c-0.1-0.4-0.4-0.9-0.5-1.3
				l-0.9-4.5c-0.1-2.2,0.1-4.4,0.8-6.5c0.1-0.4,0.4-0.8,0.6-1.2c0.3-0.6,0-0.3,0.5-0.9l0.3-0.4c0,0,0,0,0.1-0.1
				c0.3-0.4,0.3-0.3,0.6-0.9c0.3-0.5,1.7-2,2.3-2.3l0.9-0.5c0.1-0.1,0.1-0.1,0.3-0.2c0.2-0.1,0.3-0.3,0.5-0.4
				c0.4-0.3,0.8-0.3,1.2-0.6c1.2-0.7,1.1-0.7,2.6-1c2.1-0.4,0.6-0.4,3.2-0.4c1.5,0,5.1,0.3,6.3,1c0.8,0.5,2,1,2.2,1.2
				C62.3,28.3,62.1,28.2,62.2,28.3L62.2,28.3z M51.9,24.9l-1.6,0.3c-0.9,0.1-2.2,0.5-2.9,1c-0.5,0.3-0.9,0.4-1.3,0.7
				c-0.9,0.8-3.1,1.9-3.4,2.5c-0.6,1-1.1,1.4-1.2,1.6l-1.1,1.9c-0.9,1.8-0.6,1-1.1,2.8c-0.6,2-0.3,6.2,0,8.3
				c0.1,0.5,0.2,0.4,0.2,0.7c0.2,0.7,0.1,0.9,0.4,1.7c0.5,1.2,0.2,1.4,0.7,2.7c0.1,0.1,0.1,0.3,0.1,0.4c0.1,0.3,0.2,0.1,0.4,0.6
				c0.3,0.6,0.9,2.3,1.2,2.7l4.1,2.9c1.1,0.4,2.2,0.4,3.3,0.7c1.7,0.5,8.6,0.4,10.6-0.8c1-0.6,2-1.2,2.9-2c0.7-0.5,1.2-0.6,2.3-1.6
				l1-1c0.4-0.5,0.3,0,1.1-0.9c0.3-0.3,0.2-0.2,0.5-0.5c0.3-0.3,0.5-0.9,0.8-1.2c0.3-0.4,0.4-0.1,0.7-1.2c0.1-0.4,0.7-2.7,0.8-3.2
				c0-1.1,0-2.7-0.2-3.8c-0.2-0.7-0.2,0-0.4-1.6c-0.1-0.3-0.3-1.3-0.4-1.5c-0.2-0.3-0.5-0.7-0.6-1.4c-0.1-0.6-0.2-1-0.4-1.5
				l-0.6-1.4c-0.2-0.4-0.3-1-0.5-1.4c-0.1-0.3-0.6-0.9-0.8-1.2c-1.1-1.7-2.6-2.1-3.3-2.6c-1-0.7-1.4-0.8-2.5-1.4
				C59.1,25.1,52.7,24.6,51.9,24.9L51.9,24.9z"/>
			<path class="st0" d="M78.8,98.6c-0.1-0.6,2.2-1.1,3-0.6c0.8,0.5,0.5,0.3,1,1c0.2,0.2,0.3,0.3,0.4,0.7c0.2,0.5,0.2,0.7-0.1,0.9
				C82.3,101.3,77.1,99.3,78.8,98.6L78.8,98.6z M84.8,100.3c-0.1-0.5-0.9-2-1-2c-0.1-0.1-0.3-0.3-0.4-0.3l-0.2-0.3
				c-0.4-0.5-1.7-1.2-2.7-0.9l-2.1,0.8c-0.6,0.3-0.1,0.6-1,0.6C77.3,98,77,97.3,76.9,97c-0.5-1.5-0.5-2.8,0.3-4.2
				c0.4-0.7,0.7-1.5,1.2-2.2c0.9-1,0-0.5,1.1-1.4l2.3-2.1c0.3-0.3,0.3-0.1,0.5-0.4c0.1-0.1,0.1-0.3,0.4-0.5c0.2-0.1,0.3-0.1,0.6-0.3
				c0.2-0.1,0.3-0.2,0.5-0.3l1.8-0.8c0.5-0.2,1.6-0.3,2.3-0.3c0.4,0.1,0.4,0.1,0.6,0.2c0.5,0.2,0.3,0,0.8,0c0.4,0.8,0.3,0.3,1,2
				c0.1,0.3,0.2,0.8,0.3,1.2c0.1,0.4,0.2,0.9,0.3,1.3c0.1,0.7,0.3,0.7,0.6,2.5c0.1,0.8,0.4,3.4,0.2,4.3c-0.3,1.1-2.6,2.2-3.4,2.7
				C88.1,99,88.1,99,88,99.1l-0.8,0.5c-0.5,0.3,0,0.1-0.5,0.2c-0.8,0.2-0.2-0.1-0.8,0.3C85.7,100.3,85.2,100.4,84.8,100.3
				L84.8,100.3z M92.7,96.6c0.1-0.3,0.1,0.2,0.2-0.4l-0.2-3.7c-0.1-0.6-0.3-1-0.4-1.8c-0.1-0.7-0.7-2.8-0.9-3.6
				c-0.3-1.2-0.5-1-0.7-1.5c-0.3-0.7-0.4-0.8-0.9-1.3c-0.9-0.9-1-0.5-1.6-0.5c-0.6,0.1-1.4-0.3-2.2,0c-0.5,0.2-1.4,0.3-1.8,0.5
				c-0.3,0.1-0.5,0.3-0.7,0.4c-1,0.4-0.9,0.2-1.5,0.8l-1,0.7c0,0,0,0-0.1,0.1c0,0,0,0-0.1,0.1l-0.2,0.1c-1.2,1-1.9,1.4-2.9,2.7
				c-1.8,2.2-3.5,5.4-2.5,8.4c0.2,0.7,0.8,1.6,1.3,2.1c0.3,0.3,0.3,0.2,0.6,0.5c0.3,0.3,0.1,0.3,0.6,0.6c0.3,0.1,0.5,0.2,0.7,0.4
				c1.3,1.2,4.2,1.1,5.7,0.9c1.7-0.2,2-0.5,3.4-1c0.6-0.2,1.1-0.3,1.5-0.7c0.4-0.5,1.6-0.9,2.6-1.9C92.8,97.1,92.5,97.2,92.7,96.6
				L92.7,96.6z"/>
			<path class="st0" d="M45,56.9c-0.1-0.6-0.3-0.5-0.7-0.7c-2.4-1-1.3-0.8-2.7-1.5c-1.6-0.8-0.9-0.7-1.7-1.2
				c-1.1-0.6-2.2-1.8-2.9-2.8c-0.2-0.3-0.5-0.5-0.6-0.7L35.4,48c-0.1-0.5-0.2-0.7-0.3-1.2l-0.3-1c-0.2-0.7,0.1-0.9-0.6-0.9
				C34,45,34,45,34,45.2v1c0.2,1.4,0.5,1.7,1.1,3.3c0.3,1,0.4,0.8,1,1.8l1.2,1.2c0.8,0.7,0.6,0.7,1,1l2.6,1.9l2.9,1.4
				c0.8,0.3,1.2,0.1,1.2,0.1L45,56.9L45,56.9z"/>
			<path class="st0" d="M79.9,45.3c-0.7,0.1-1.2,0.7-0.9,1.4l0.2,0.1c0.9,0.3,0.9-0.7,3.1-1.5c2-0.6,3.5-0.7,5.4,0.2l1.4,1.1
				c0.2,0.2,0.3,0.6,0.5,0.9c0.4,0.9,0.3,1.1,0.1,2c-0.2,0.6-0.3,1.3-0.8,1.8c-1,1-2.7,2.7-4.2,3.1c-2.5,0.7-1.2,2.2,0.6,1.5
				c0.8-0.3,1.1-0.4,1.8-0.8c0.7-0.5,2.4-1.7,2.6-2.5c-0.4,0.1-0.3,0.1-0.7,0.5c-0.5,0.6-2.3,1.9-3.1,2.2c-0.1,0.1-1.8,0.4-2,0.2
				c-0.2-0.2-0.1-0.4-0.1-0.4c0.1-0.4,0.1-0.2,1-0.5l0.3-0.1c0.7-0.3,2.6-1.8,3-2.2c0.7-0.8,1.2-1.2,1.6-2.2c0.4-1,0.8-1.4,0-2.9
				c-0.4-0.8-0.7-0.9-1.2-1.3l-0.3-0.3c0,0,0,0-0.1-0.1c-0.8-0.6-2.1-1-3.4-1c-1.6,0.1-3.6,0.9-4.8,1.8c-0.2,0.2-0.3,0.3-0.7,0.2
				c-0.1-0.8,0.2-0.8,0.5-1C80.5,44.7,79.2,46.1,79.9,45.3L79.9,45.3z"/>
			<path class="st0" d="M62.2,46.5c-0.1,0.1-0.1,0.2-0.3,0.3c-0.1,0.6-0.5,0.4-0.6,0.7c-0.1,0.3,0.2,0.4,0.5,0.6
				c1,0.9,0.5-0.2,1,1.2c0.6,0,0.8-0.2,0.9-0.6c0.9,0.1,0.3,0.3,1,0.2c0.2-0.7,0.8-1.8-0.2-2.5c-0.9-0.7-1-0.7-1.8-0.3L62.2,46.5
				L62.2,46.5z"/>
			<path class="st0" d="M82,7.3c0,0.5,0.2,0.6,0.5,0.8c0.4,0.2,0.5,0.3,0.8,0.5l2.4,1.8c0.3,0.2,0.4,0.5,0.6,0.8l0.5,0.9
				c0.7,0.7,1,0.5,1.4,0.4c0-0.5-0.1-0.7-0.4-1c-0.7-0.8-1.6-2.3-2.6-3l-1.8-1.2c-0.3-0.2-0.5-0.4-0.8-0.4C82.2,6.8,82,7,82,7.3
				L82,7.3z"/>
			<path class="st0" d="M107.9,38.6c0,0.7,0.1,1,0.1,1.6c0.1,0.9,0.3,1.1,0.3,1.5c-0.3,0.1-0.4,0.2-0.6,0.5c-0.3,0.5,0,0.5-0.5,0.7
				c0,0.5,0,0.9,0.4,0.9c0.7,0,0.7-0.4,0.9-0.8c0.4-0.7,0.1-0.4-0.1-1.2c0.4-0.1,0.3-0.1,0.4-0.5c0.1-0.3,0.1-0.5,0.2-0.8
				c0.3-1.2,0.2-4.2-0.4-4.7c-0.3,0.1-0.3,0.1-0.4,0.4c-0.1,0.2-0.2,0.6-0.2,0.8C108,37.6,107.9,38,107.9,38.6L107.9,38.6z"/>
			<path class="st0" d="M96.1,41.3c-0.7,0.3-1.7,0.5-1.7,1.4c0,0.7,0.3,2.2,1.1,2c0.5-0.1,0.3-0.5,0.8-0.7c0.6-0.3,0.6,0,0.7-0.8
				C97.2,42.2,97.5,40.9,96.1,41.3L96.1,41.3z"/>
			<path class="st0" d="M62.2,46.5l0.6-0.3c0.7-0.4,0.9-0.4,1.8,0.3c1,0.8,0.5,1.8,0.2,2.5c-0.8,0.1-0.2-0.1-1-0.2
				c-0.2,0.4-0.4,0.6-0.9,0.6c-0.5-1.4,0-0.4-1-1.2c-0.3-0.2-0.6-0.3-0.5-0.6c0.1-0.4,0.4-0.1,0.6-0.7c-0.6,0.2-0.9,0.4-0.8,1.2
				c0.3,0.2,0.6,0.4,0.9,0.7c0.5,0.5,0.6,1.5,1.7,0.8c0.1-0.1,0,0,0.1-0.1c0.5-0.3,1,0.6,1.4-0.6c0.2-0.6,0.3-2-0.5-2.5
				c0,0-0.7-0.4-0.7-0.4l-0.5-0.1c-0.7,0-0.8,0.3-1.3,0.4L62.2,46.5L62.2,46.5z"/>
			<path class="st0" d="M78.4,6.5c0.1,1.1,2.7,0.9,2.7,0.3C81.1,6.2,80.5,6,80,6C79.1,6,78.9,6.4,78.4,6.5z"/>
			<path class="st0" d="M87.4,13c0,0.4,0.4,0.5,0.5,0.6c0.5-0.3,1.1-0.9-0.2-0.9C87.6,12.8,87.4,12.8,87.4,13L87.4,13z"/>
			<path class="st0" d="M81.2,7c0.1,0.2,0.1,0.1,0.1,0.3c0.5,0,0.5-0.1,0.5-0.5c-0.3-0.1-0.1,0-0.3-0.1L81.2,7L81.2,7z"/>
		</g>
		<path class="st1" d="M65.5,4.1c-0.7-0.2-0.9-0.1-1.7-0.5c-0.5-0.2-1.1-0.5-1.6-0.6c-0.9-0.2-1.8-0.5-2.7-0.5c-0.9,0-1.1-0.5-5-0.5
			c-1.9,0-2.4,0.1-4.1,0.4c-0.7,0.1-1.4,0.1-2,0.2l-3.6,0.7c-0.2,0.1-0.6,0.1-0.9,0.1c-0.3,0.1-0.5,0.2-0.8,0.3
			c-0.5,0.1-1.3,0.3-1.8,0.3c-0.8,0.1-0.4,0.1-0.8,0.3l-0.9,0.2c-1.2,0.4-2.3,0.5-3.4,1.1c-0.7,0.3-1.5,0.5-2.3,0.9l-2.2,1.1
			C31.2,8,30.7,8,29.6,8.8C29.3,9.1,29.3,9,29,9.2c-0.3,0.2-0.3,0.3-0.5,0.5c-0.4,0.3-0.9,0.5-1.3,0.9L26,11.8
			c-0.4,0.4-0.8,0.7-1.2,1.1c-0.8,1-1.6,2-2.6,2.8c-1.6,1.4-1.8,1.7-3.7,2.9c-0.4,0.2-0.3,0.2-0.6,0.5l-2.4,2.2
			c-0.8,0.9-0.7,0.3-1.6,1.4c-0.1,0.2-0.3,0.4-0.5,0.6c-0.3,0.3-0.3,0.2-0.5,0.5c-0.2,0.3-0.1,0.4-0.4,0.7c-0.4,0.3-0.3,0.1-0.5,0.6
			l-0.9,1.3c-0.1,0.3-0.3,0.4-0.4,0.7c-0.6,1-0.7,1.3-1,2.4c-0.3,0.8-0.8,1.4-1,2.3c-0.1,0.4-0.1,0.5-0.2,0.9
			c-0.4,1.2-0.6,2.3-0.8,3.5c-0.2,1.2-0.1,2.7-0.5,3.8C7.2,40.4,7,41.2,7,41.8c-0.1,1-0.5,2-1.1,2.7c-0.1,0.1-0.1,0.1-0.3,0.3
			c-0.1,0.3-0.1,0.5-0.3,0.7c-0.2,0.3-0.2,0.3-0.4,0.6c-0.1,0.2-0.2,0.5-0.3,0.7c-0.2,0.4-0.3,0.4-0.5,0.7c-0.5,0.8-1.5,3.7-1.7,4.8
			c-0.2,1.4-0.8,0.7-0.8,5.8l-0.1,0.1c0,1.4-0.1,4.3,0.3,5.6c0.1,0.2,0.3,0.5,0.3,0.8l0.8,3.8c0.2,0.7,0.7,1.7,1,2.5
			c0.2,0.4,0.3,0.3,0.5,0.7c0.3,0.5,0.4,1,0.8,1.5c0.3,0.5,0.4,1,0.8,1.4c0.8,1,0.3,0.4,0.9,1.4l2,2.6c0.2,0.3,0.4,0.3,0.6,0.6
			c0.8,1.1,1.8,2.1,2.7,3.1c0.4,0.4,0.9,0.8,1.5,0.8c0-0.7-0.2-1.2-0.2-2c-0.1-2.5-0.3-5.3,1.2-7.3c0.2-0.3,0.2-0.2,0.4-0.5
			c0.2-0.3,0.1-0.2,0.4-0.5c0.5-0.5,0.7-0.9,1.4-1.4c0.5-0.4,0.4-0.5,0.9-0.9c1-0.7,1.2-0.7,0.9-2c-0.3-1.1-0.4-2.6-0.6-3.6
			c-0.4-1.9-0.4-3.3-0.4-5.2c0-0.9-0.1-1.8,0.2-2.6c0.3-0.8,0.3-1.6,0.4-2.5c0.1-0.4,0.2-0.6,0.3-1.1l0.9-3.3
			c0.1-0.5,0.1-0.7,0.2-1.2c0.1-0.4,0.3-0.6,0.4-1l0.3-1.1c0.1-0.9,0.1-1.6,0.5-2.4c0.2-0.4,0.2-0.7,0.3-1.1
			c0.2-0.8,0.3-1.5,0.6-2.3c0.2-0.6,0.6-1.2,0.9-1.9c0.2-0.5,0.1-0.6,0.3-1l1-1.9c0.2-0.3,0.4-0.5,0.6-0.8c0.3-0.4,0.4-1,0.7-1.4
			c0.3-0.5,0.5-0.8,0.9-1.2l1.2-1.6c0.4-0.4,0.3-0.1,0.7-0.8l1.2-1.5c0.6-0.5,1.3-1,1.8-1.7c0.2-0.3,0.1-0.2,0.4-0.4
			c0.6-0.5,0.5-0.8,1.4-1.3c0.4-0.2,0.2-0.1,0.4-0.3c0.9-0.9,2.5-2.2,3.5-2.8c0.6-0.4,1-0.7,1.7-1c0.7-0.3,1.1-0.8,1.8-1
			c1.9-0.7,1.8-2.7,2.9-4.2l1.8-2.4c0.8-0.5,1.3-1.4,2.3-1.9c0.4-0.2,0.5-0.4,1.1-0.3c0,0.7-0.7,1.3-1.2,1.7
			c-0.3,0.2-0.5,0.7-0.6,0.9c-0.2,0.2-0.6,0.2-0.9,0.6c-0.6,0.7-2.2,2.7-2.3,3.7c0.9,0,1.9-0.9,2.8-1.2l3.1-0.9
			c1.1-0.3,2.3-0.4,3.3-0.8l1.6-0.4c1.8-0.4,3-0.8,5-1c1.3-0.2,2.3-0.4,3.6-0.4c1.3,0,2.6,0,3.9-0.2c2-0.2,1.3-0.4,4.3-0.4l2.1,0
			c0.9-1.5,0.3-2.7-0.6-4l-0.8-1.2c-0.5-0.6-1-1.3-1.6-1.8C68.6,5.6,67,4.6,65.5,4.1z"/>
		<path class="st2" d="M110.6,60.3l-0.2-2.4c-0.3-1.6-0.1-3.2-0.7-4.6c-0.3-0.6-0.4-1.3-0.7-1.8c-0.5-0.6-0.4-1.1-0.8-1.8
			c-0.2-0.4-0.1-0.6-0.3-0.9c-0.2-0.3-0.4-0.3-0.6-0.8c-0.3-1.2-0.5-2.1-1.7-1.1c-0.4,0.3-0.1,0.3-0.5,0.6c-0.1,0.1-0.5,0.3-0.6,0.4
			c-0.7,0.5-0.5,0.5-1.4,0.8c-0.6,0.2-2,1.3-2.1,0.1c0.4-0.3,1.4-0.5,1.9-0.9c0.9-0.8,0.6-0.2,1.6-1.3c0.3-0.3,0.7-0.7,1-0.9
			c0-0.5-0.2-0.9-0.5-1.2l-0.2-0.2c-0.6,0.1-0.8,0.6-1.2,1c-0.7,0.5-2,1.3-2.9,1.5c-0.7,0.2-0.8,0.5-1.5,0.7c-1.8,0.4-2.2,0.4-4,0.5
			c-0.7,0-1.1,0.3-2,0.2l-1.3-0.3c-0.3-0.1,0.1-0.1-0.5-0.1c-0.1,1.5,0.3,1.9-0.4,3.1c-0.5,0.9-0.9,1.3-1.3,2c0,0,0,0,0,0
			c-0.3,0.8-2,2-2.6,2.5c-0.6,0.4-0.9,0.5-1.8,0.8c-1.8,0.7-3.1-0.8-0.6-1.5c1.5-0.5,3.2-2.1,4.2-3.1c0.4-0.5,0.6-1.2,0.8-1.8
			c0.3-0.9,0.4-1.1-0.1-2c-0.1-0.2-0.3-0.7-0.5-0.9l-1.4-1.1c-1.8-0.8-3.4-0.8-5.4-0.2c-2.3,0.7-2.2,1.8-3.1,1.5L79,46.7
			c-0.4-0.7,0.1-1.4,0.9-1.4l0-0.2c0.3-0.1,0.4-0.3,0.6-0.4c1.2-0.8,1.4-0.7,2.7-0.9c0.1-0.2,0.1-0.3,0.1-0.6
			c-0.8-0.7-0.5-0.4-1.1-1.2c-0.2-0.3-0.3-0.4-0.5-0.7c-0.2-0.2-0.4-0.4-0.6-0.7c-2.1-2.6-1.9-4.2-2.9-6.7c-0.3-0.9-0.6-3.3-0.2-4.4
			c0.6-1.7,1.1-2.5,2-3.9c0.2-0.3,0.3-0.3,0.6-0.6c0.4-0.5,0.5-1,1-1.4c0.3-0.3,0.3-0.3,0.5-0.6c0.1-0.3-0.1,0,0.2-0.3l4.5-3.3
			c-0.1-0.9-2.9-1.9-3.6-2.1l-2.3-0.7c-0.8-0.3-1.6-0.4-2.4-0.5c-1.1-0.1-1.9-0.7-3-0.9c-0.6-0.1-1.1-0.1-1.7-0.3
			c-2.1-0.5-3.1-0.6-5.4-0.3L65,14.9c-1.2,0.1-2.6-0.1-3.7,0.2c-1,0.3-2.2,0.2-3.2,0.6c-0.7,0.3-2.4,0.5-3.3,0.6l-3.1,0.8
			c-0.6,0.2-1.2,0.1-1.7,0.2c-0.4,0.1-0.2,0.2-0.7,0.3c-0.9,0.2-1.4,0.5-2.3,0.7c-0.5,0.1-0.9,0.4-1.3,0.7c-0.4,0.3-0.9,0.3-1.4,0.5
			c-0.2,0.1-0.4,0.3-0.6,0.4c-0.3,0.1-0.5,0.2-0.7,0.3c-0.8,0.5-1,1.5-1.2,2.7c-0.1,0.6-0.1,1.2-0.1,1.8c0,0.8,0.2,0.9,0.2,1.8
			c-1.1,0.1-0.9-0.9-1-2c-0.1-1.1,0.1-1.8,0-2.9c-0.5,0-0.5,0-0.8,0.2c-0.8,0.5-1.3,0.6-2.1,1.1l-2.4,1.8c-0.8,0.8-0.7,0.5-1.3,1
			c-1.9,1.5-2.5,2.5-4,3.7c-0.2,0.1-0.4,0.2-0.6,0.5c-0.1,0.1-0.1,0.2-0.3,0.3c-0.6,0.6-1.1,1.4-1.6,2.2c-0.3,0.5-0.7,0.7-1,1.2
			c-0.2,0.3-0.3,0.4-0.4,0.7c-0.2,0.2-0.3,0.4-0.5,0.6c-0.2,0.3-0.2,0.4-0.4,0.7c-0.1,0.2-0.1,0.1-0.2,0.3c-0.5,0.6-0.6,1.4-0.9,1.9
			c-0.7,1.2-1,2.8-1.2,3.1c0,0-0.2,0.3-0.2,0.3l-0.4,1.3c-0.2,0.9-0.6,1.7-0.7,2.6c-0.1,0.8-0.2,1.1-0.3,1.9c0,0.3-0.1,0.5-0.2,0.8
			c-0.2,0.6-0.2,1.3-0.4,1.9c-0.4,1.4-0.4,1.3-0.6,2.7c-0.1,0.7-0.2,1.6-0.5,2.2c0,0,0,0.1,0,0.1l-0.6,3.1c-0.2,1.1,0,4.3,0.1,5.4
			c0,0.5,0.1,1.5,0.2,2.1l0.5,1.8c0.3,0.7,0,1.4,0.3,2c0.1,0.3,1,0.4,0.3,1L19.7,71c-1.4,0-0.5-0.4-1.6,0.5
			c-0.9,0.7-1.6,1.7-2.1,2.7c-0.4,0.7-0.6,0.5-0.9,1.5c-0.7,2.9-0.3,6.9,0.9,9.3c0.1,0.3,0.2,0.5,0.4,0.8c0.2,0.3,0.4,0.3,0.6,0.5
			c0.7,0.7,0.9,1.6,2.6,2.2l1.4,0.4c1.1,0.5,2.7,0.4,3.8,0.3c0.8-0.1,1.7,0,2.4,0c0.9,0,1.3-0.2,2.3-0.1l0.1,0.8
			c-0.5,0.3-0.4,0.3-1,0.5c-0.1,0-0.3,0.2-0.5,0.2c-0.2,0.1-0.3,0.1-0.5,0.2c0,0.6,0.5,1.3,0.8,1.7l2.5,2.7c0.3,0.4,0.4,0.1,0.7,0.6
			c0.5,0.7,1.2,1.5,1.9,2l5.5,3.8c0.3,0.2,0.4,0.4,0.7,0.6c0.3,0.2,0.6,0.2,1,0.3l4,1.9c0.5,0.2,0.9,0.5,1.4,0.6l1.2,0.4
			c0,0,0.1,0.1,0.2,0.1c0.7,0.4,2.9,1.1,3.5,1.2l7.2,0.7c1.5,0.2,3.3,0.1,4.9,0.3l2.1,0.4c1.1,0.3,6.1,0.6,7.4,0.3
			c1.6-0.4,5.6-0.9,6.6-1.2c0.4-0.1,0.7-0.1,1-0.3c0.4-0.1,0.3-0.3,0.9-0.4c1.2-0.3,1-0.7,1.7-0.8c1.1-0.2,3.1-0.9,4.1-1.3
			c0.6-0.2,1.2-0.6,1.8-0.8l3.6-1.6c0.3-0.2,0.6-0.3,0.8-0.5c0.4-0.2,0.6-0.1,0.9-0.4l0.3-0.2c0.1-0.1,0.2-0.2,0.3-0.3
			c0.3-0.3,0.5-0.3,0.9-0.5l1.3-1.2c0.5-0.5,1.1-0.9,1.6-1.4c0.1-0.1,0.1-0.1,0.2-0.1c0.6-0.5,1.1-1.1,1.6-1.7l1-1
			c0.3-0.4,0.9-1,1.4-1.8l1-1.7c0.9-1.4,1.9-3.5,2.9-5c0.3-0.5,0.3-0.9,0.6-1.4c0.1-0.3,0.1-0.2,0.2-0.5c0.4-1.1,0.7-1.2,1.1-2.9
			c0.1-0.7,0.6-1,0.7-1.7c0.3-1.7,0.8-2.5,1-4.2c0.4-2.6,0.3-4.8,0.3-7.5c0-1.8,0.1-3.4,0.1-5.2V60.3z M63.1,53.5
			c-0.9,0.7-1.9,1.4-2.9,2c-2,1.2-9,1.3-10.6,0.8c-1-0.3-2.2-0.3-3.3-0.7l-4.1-2.9c-0.4-0.4-0.9-2-1.2-2.7c-0.2-0.4-0.3-0.3-0.4-0.6
			c-0.1-0.1-0.1-0.3-0.1-0.4c-0.5-1.3-0.3-1.4-0.7-2.7c-0.3-0.7-0.2-0.9-0.4-1.7c-0.1-0.3-0.1-0.2-0.2-0.7c-0.3-2.1-0.5-6.3,0-8.3
			c0.5-1.8,0.2-1,1.1-2.8l1.1-1.9c0.1-0.1,0.7-0.6,1.2-1.6c0.3-0.6,2.6-1.7,3.4-2.5c0.4-0.3,0.8-0.5,1.3-0.7c0.8-0.5,2-0.9,2.9-1
			l1.6-0.3v0c0.8-0.4,7.1,0.1,8.7,1c1.1,0.7,1.5,0.7,2.5,1.4c0.7,0.5,2.2,0.9,3.3,2.6c0.2,0.3,0.7,0.9,0.8,1.2
			c0.2,0.5,0.3,1,0.5,1.4l0.6,1.4c0.2,0.6,0.3,1,0.4,1.5c0.2,0.7,0.5,1,0.6,1.4c0.1,0.3,0.3,1.2,0.4,1.5c0.3,1.6,0.3,0.9,0.4,1.6
			c0.3,1,0.3,2.7,0.2,3.8c0,0.5-0.6,2.7-0.8,3.2c-0.4,1.1-0.4,0.8-0.7,1.2c-0.3,0.3-0.5,0.9-0.8,1.2c-0.3,0.3-0.3,0.1-0.5,0.5
			c-0.8,0.9-0.7,0.5-1.1,0.9l-1,1C64.3,52.8,63.7,52.9,63.1,53.5z M75.5,97.4c-1.1-2.9,0.7-6.1,2.5-8.4c1-1.2,1.6-1.7,2.9-2.7
			l0.2-0.1c0,0,0-0.1,0.1-0.1l0.1-0.1l1-0.7c0.6-0.6,0.5-0.3,1.5-0.8c0.2-0.1,0.4-0.3,0.7-0.4c0.4-0.2,1.2-0.3,1.8-0.5
			c0.8-0.3,1.5,0.1,2.2,0c0.6,0,0.7-0.4,1.6,0.5c0.5,0.5,0.6,0.6,0.9,1.3c0.2,0.5,0.4,0.3,0.7,1.5c0.2,0.8,0.8,2.9,0.9,3.6
			c0.1,0.8,0.3,1.2,0.4,1.8l0.2,3.7c-0.1,0.6-0.1,0.1-0.2,0.4l-0.1,0c-0.2,0.5,0.1,0.5-0.8,1.4c-1,1-2.1,1.4-2.6,1.9
			c-0.4,0.4-0.9,0.5-1.5,0.7c-1.4,0.5-1.7,0.8-3.4,1c-1.6,0.2-4.5,0.3-5.7-0.9c-0.2-0.2-0.4-0.3-0.7-0.4c-0.5-0.3-0.3-0.2-0.6-0.6
			c-0.3-0.3-0.3-0.2-0.6-0.5C76.3,99,75.7,98,75.5,97.4z M44.3,56.2c0.5,0.2,0.7,0.1,0.7,0.7l0,0l-0.2,0.1c0,0-0.3,0.2-1.2-0.1
			l-2.9-1.4l-2.6-1.9c-0.4-0.3-0.2-0.3-1-1l-1.2-1.2c-0.6-1-0.7-0.9-1-1.8c-0.6-1.5-0.9-1.9-1.1-3.3v-1c0.1-0.2,0-0.1,0.1-0.3
			c0.7,0.1,0.5,0.3,0.6,0.9l0.3,1c0.1,0.4,0.2,0.7,0.3,1.2l0.9,1.9c0.2,0.3,0.5,0.5,0.6,0.7c0.7,1.1,1.8,2.2,2.9,2.8
			c0.8,0.4,0.1,0.4,1.7,1.2C43,55.4,41.9,55.2,44.3,56.2z"/>
		<path class="st3" d="M66,31.7c-1.2-2.8-3.1-3-3.8-3.5h-0.1c-0.1-0.1,0.1,0.1-0.1-0.1c-0.2-0.2-1.4-0.7-2.2-1.2
			c-1.2-0.7-4.8-1-6.3-1c-2.6,0-1.1-0.1-3.2,0.4c-1.5,0.3-1.4,0.4-2.6,1c-0.5,0.3-0.8,0.3-1.2,0.6c-0.2,0.1-0.3,0.3-0.5,0.4
			c-0.1,0.1-0.1,0.1-0.3,0.2l-0.9,0.5c-0.5,0.3-2,1.8-2.3,2.3c-0.3,0.6-0.3,0.5-0.6,0.9c0,0-0.1,0-0.1,0.1l-0.3,0.4
			c-0.4,0.6-0.2,0.3-0.5,0.9c-0.2,0.4-0.5,0.8-0.6,1.2c-0.7,2-0.9,4.2-0.8,6.5l0.9,4.5c0.1,0.4,0.4,0.9,0.5,1.3
			c0.2,0.5,0.2,0.9,0.4,1.4c0.5,1.3,0.4,0.3,0.6,1.2c0.6,1.9,0.8,1.5,1.2,2.4c0.6,1.1,1.3,1,1.8,1.6c0.5,0.5,0.3,0.2,0.7,0.5
			c0.2,0.1,0.3,0.3,0.6,0.4c0.4,0.1,1,0.2,1.6,0.3c1.8,0.2,1.4,0.5,3.1,0.5c2.4,0,6.3,0.2,8.4-0.9l4.4-2.9c0.5-0.3,0.1-0.3,0.9-0.9
			c0.3-0.3,0.6-0.6,1-0.9c0.8-0.6,1.3-1.1,1.7-2c0.2-0.3,0.3-0.3,0.4-0.5c0.2-0.3,0.1-0.3,0.3-0.6c0.2-0.4,0.2-0.2,0.3-0.7
			c0.1-0.3,0.1-0.4,0.1-0.7c0.1-0.6,0.2-0.9,0.2-1.6c0-1.2-0.2-4.6-0.8-5.8c-0.9-1.8-0.3-0.8-0.7-2c-0.5-1.6,0.3-0.2-0.9-2.7
			C66.3,32.6,66.2,32.2,66,31.7z M62.3,46.2c0.5-0.2,0.6-0.4,1.3-0.4l0.5,0.1c0,0,0.7,0.4,0.7,0.4c0.9,0.5,0.8,1.9,0.5,2.5
			c-0.4,1.2-0.9,0.3-1.4,0.6l-0.1,0.1c-1.1,0.7-1.2-0.3-1.7-0.8c-0.3-0.3-0.6-0.5-0.9-0.7c-0.1-0.7,0.2-1,0.8-1.2v0
			c0.2-0.1,0.2-0.1,0.3-0.3l0,0l0.1,0L62.3,46.2z"/>
		<path class="st3" d="M80.3,27.4c-0.6,0.7-0.2,0.4-0.6,1.1c-0.2,0.5-0.2,0.1-0.6,1.1c-0.4,1.2-0.2,3.8,0.1,4.6
			c0.3,0.7,0.4,0.5,1,2.4c0.1,0.5,0.3,0.7,0.6,1.1c0.3,0.5,0.2,0.8,0.5,1.2c0.3,0.4,0.4,0.6,0.6,1.1c0.2,0.5,0.3,0.7,0.7,1
			c0.6,0.6,0.9,1.2,1.7,1.8c1.5,1.1,1,0.1,3.8,1.2c0.2,0.1,0.5,0.2,0.6,0.3c1.1,0.6,0.9,0.6,1.4,1.2c0.8,0.8,0.1,0.9,2.6,0.9
			l0.1,0.1c1.8,0,2.6,0.1,4.2-0.2c2.7-0.4,1.6-0.5,3-0.8c1-0.2,2.6-1.1,3.4-1.7c1.3-1,0.8-2,1.6-3.5c0.3-0.5,0.6-1.2,0.7-1.8
			c0.4-2.6,0.2-3.2-0.2-5.7c-0.2-1-0.2-2.3-0.6-3.1c-0.4-0.8-0.4-1.4-0.7-1.8l-1.7-2.3c-0.3-0.5-1.2-1.6-1.6-1.9
			c-0.7-0.5-0.2,0.1-1-0.8l-2.3-1.4c-0.2-0.1-0.5-0.2-0.7-0.3c-0.3-0.1-0.4-0.3-0.6-0.4c-0.3-0.3-0.3-0.2-0.6-0.3
			c-0.3-0.1,0,0-0.3-0.2c-0.9-0.6-1.4-0.7-2.7-0.7c-1,0-2.3,0-3,0.4l-1.1,0.4c-0.8,0.3-0.8,0-1.4,0.5l-0.8,0.5c0,0,0,0.1-0.1,0.1
			l-0.1,0.1c-0.5,0.3-0.8,0.4-1.1,0.7l-1,0.7c-0.2,0.2-0.2,0.2-0.4,0.4c-1.2,1-1.2,1.3-2,2.3c-0.4,0.5-0.5,0.3-0.8,0.9
			C80.8,26.6,80.5,27.2,80.3,27.4z M94.4,42.7c0.1-0.8,1-1.1,1.7-1.4v0c1.4-0.5,1.1,0.8,0.9,1.8c-0.1,0.8-0.1,0.6-0.7,0.8
			c-0.6,0.2-0.4,0.5-0.8,0.7C94.7,44.8,94.4,43.4,94.4,42.7z"/>
		<path class="st4" d="M91.5,96.2c0.2-0.9-0.1-3.5-0.2-4.3c-0.2-1.8-0.5-1.8-0.6-2.5c-0.1-0.5-0.1-0.9-0.3-1.3
			c-0.1-0.4-0.2-0.8-0.3-1.2c-0.7-1.7-0.7-1.2-1-2c-0.5,0-0.2,0.2-0.8,0c-0.2-0.1-0.2-0.2-0.6-0.2c-0.7-0.1-1.7,0-2.3,0.3l-1.8,0.8
			c-0.2,0.1-0.3,0.2-0.5,0.3c-0.3,0.1-0.4,0.1-0.6,0.3c-0.2,0.1-0.2,0.3-0.4,0.5c-0.3,0.3-0.3,0.1-0.5,0.4l-2.3,2.1
			c-1.2,0.9-0.3,0.3-1.1,1.4c-0.5,0.7-0.8,1.4-1.2,2.2c-0.8,1.4-0.8,2.7-0.3,4.2c0.1,0.3,0.4,1,0.6,1.1c0.9,0,0.3-0.3,1-0.6l2.1-0.8
			c1.1-0.3,2.4,0.4,2.7,0.9l0.2,0.3c0.1,0.1,0.3,0.2,0.4,0.3c0,0.1,0.9,1.5,1,2v0c0.3,0,0.9,0,1.1-0.2c0.6-0.4,0-0.2,0.8-0.3
			c0.5-0.1,0,0.1,0.5-0.2l0.8-0.5l0.2-0.1C89,98.4,91.3,97.3,91.5,96.2z"/>
		<path class="st5" d="M82.9,99c-0.6-0.7-0.2-0.5-1-1c-0.8-0.5-3.1,0-3,0.6v0c-1.8,0.6,3.4,2.6,4.4,1.9c0.2-0.2,0.2-0.4,0.1-0.9
			C83.2,99.3,83.1,99.2,82.9,99z"/>
	</g>
</g>
</svg>
