<?xml version="1.0" encoding="utf-8"?>
<!-- Generator: Adobe Illustrator 25.4.1, SVG Export Plug-In . SVG Version: 6.00 Build 0)  -->
<svg version="1.1" id="Layer_1" xmlns="http://www.w3.org/2000/svg" xmlns:xlink="http://www.w3.org/1999/xlink" x="0px" y="0px"
	 viewBox="0 0 116.5 116.7" style="enable-background:new 0 0 116.5 116.7;" xml:space="preserve">
<style type="text/css">
	.st0{fill-rule:evenodd;clip-rule:evenodd;fill:#2B2A29;}
	.st1{fill-rule:evenodd;clip-rule:evenodd;fill:#865222;}
	.st2{fill-rule:evenodd;clip-rule:evenodd;fill:#F9C3A1;}
	.st3{fill-rule:evenodd;clip-rule:evenodd;fill:#FEFEFE;}
</style>
<g id="Capa_x0020_1">
	<g id="_385526312">
		<path class="st0" d="M29.9,77.7c0.1,0.8,1.1,1.8,1.7,2.2c1.8,1.2,5.2,0.4,6.6,0.2c0.9-0.1,0.9-0.1,1.4-0.5
			c0.6-0.5,0.9-0.3,0.7-1.3c-0.8-0.4-1.3-0.2-2.1,0.1c-0.4,0.1-0.7,0.1-1.1,0.2c-4.4,1.1-4.8-0.5-5.5-0.7c-0.1-0.3-1.7-2.1-0.6-3.7
			c0.6-0.8,1.7-1.7,1.9-1.9c0.3-0.3,0.4-0.5,0.8-0.5c0.7-0.1,1.3-0.6,2.1-0.9c0.5-0.1,2.2-0.4,1.6-1.3c-0.6-0.9-4,0.8-4.5,1
			c-1,0.5-1.6,1.2-2.4,2c-0.6,0.6-1.5,1.9-1.5,2.9C29.1,76.1,29.3,77.3,29.9,77.7L29.9,77.7L29.9,77.7z M16.4,34.9
			c1.4-0.3,2-0.6,4-0.8c0.8-0.1,4.2,0.1,4.5-0.1c0,0,0.4-0.1,0-0.7c-0.1-0.1-0.3-0.3-0.6-0.4c-1.2-0.4-3.1-0.6-4.4-0.4
			c0,0-0.4,0.1-0.4,0.1c-0.5,0.2-0.2,0-0.4,0.2c-1.6,0-2.2,0.8-3.1,0.8c0.1-1.1,1.7-1.3,2.3-2.1c0.3-0.3,1.5-1,2-1.4l0.7-0.5
			c0.9-0.9,1.1-0.7,1.9-1.4c0.5-0.4,0.9-0.5,1.4-0.8l3.5-2.2c0.3-0.3,0.2-0.3,0.6-0.5c1.3-0.6,1-0.9,2.1-1.2
			c1.2-0.4,2.2-0.9,3.5-1.1c1-0.2,0.8-0.5,1.5-0.8c0.7-0.2,1.5-0.3,2.1-0.6c0.5-0.3,1.1-0.2,1.6-0.5c0,0,0.1,0,0.1,0
			c0,0,0.1,0,0.1,0c0.7-0.4,1.7-0.3,2.5-0.5c0.4-0.1,0.5-0.2,0.9-0.3c2.3-0.6,10.5-0.6,12.7,0.1c0.9,0.3,3.4,0.2,5,0.5
			c0.3,0.1,0.7,0.1,1,0.2c1.8,0.3,3.1,0.3,4.9,0.9l2.6,0.8c0.8,0.2,1.1,0.3,1.6,0.7c0.5,0.3,1.8,0.7,2.2,1.1
			c0.3,0.3,0.1,0.2,0.6,0.5c0.5,0.3,0.8,0.7,1.2,1c0.6,0.3,0.7,0.2,1.6,0.8c0.2,0.1-0.1,0,0.1,0.1c0.1,0.1,0.1,0.1,0.2,0.1l1.1,0.6
			c0.5,0.3,0.3,0.3,0.6,0.5c0.4,0.2,1.2,0.3,1.6,0.6c0.3,0.2,0.3,0.3,0.7,0.5l1.5,0.8c0.3,0.1,0.4,0.2,0.7,0.4
			c0.8,0.4,1.4,0.9,2.1,1.3c0.5,0.3,0.9,0.6,1.2,1c0.2,0.3,0.3,0.4,0.6,0.6c0.3,0.2,0.5,0.3,0.7,0.5c0.4,0.5,0.5,0.9,1,1.2
			c0.7,0.6,1.1,1.3,1.8,1.8c0.1,0.1,0.1,0.1,0.2,0.2l3.3,4.1c0.1,0.1,0.1,0.3,0.2,0.4l1.6,2.4c0.4,0.5,1.2,2.6,1.3,3.2
			c0.2,1.6,0.7,3.1,1,4.6l0.3,1.9c0.1,0.3,0.1,0.6,0.2,1c0.2,1,0.4,0.3,0.7,2.6c0.1,0.9,0.5,2,0.5,2.9c0.1,1.4,0,2.9,0.2,4.3
			c0.1,0.6,0.3,1.6,0.1,2.1c-0.5,0.3-1.6,0.1-2.1,0.2c-1,0.3-1.1-0.1-1.9,0.4v0.6c1.4,0.7,3.7-0.7,5.2,0.7c0.6,0.5,1,1,1.4,1.6
			c0.2,0.4,0.5,0.5,0.7,0.8c0.1,0.2,0.1,0.3,0.3,0.5l0.9,1.4c0.2,0.4,0.5,0.6,0.6,1c0.1,0.3,0,0.3,0.1,0.6c0.4,1,0.9,3.5,0.9,4.6
			c0,1.1-0.7,5.6-1.2,6.4l-1.4,1.7c-0.3,0.4-0.5,0.5-0.8,0.8c-0.4,0.4-0.4,0.3-0.9,0.7c-0.3,0.2-0.4,0.5-0.8,0.8
			c-0.9,0.7-1.5,1-2.6,1.2c-0.5,0.1-1.2,0.5-1.7,0.6c-3.6,0.6-5-1-4.8,1c1.1,0.6,2.7-0.5,1.7,2.4c-0.2,0.6-0.5,1-0.8,1.6
			c-0.8,1.6-1.5,3.4-2.9,4.5c-0.3,0.2-0.5,0.3-0.7,0.6c-0.5,0.7-1.3,1.3-1.8,1.9c-0.2,0.3-0.3,0.5-0.6,0.6c-0.9,0.6-1.9,2.1-2.6,2.4
			l-1.5,1c-0.4,0.3-0.5,0.4-0.7,0.5l-2.3,1.4c-0.3,0.2-0.5,0.4-0.7,0.5c-0.9,0.5-1.7,0.6-2.6,1.1l-3.7,1.3c-0.9,0.2-0.2,0-0.8,0.4
			l-1.2,0.5c-0.9,0.3-3.4,1.2-4.3,1.3c-1,0.1-1.2,0.3-1.9,0.5c-1,0.3-2.3,0.3-3.3,0.4c-0.5,0.1-0.4,0.2-1.1,0.2
			c-0.9,0-1.7-0.1-2.5,0.1c-2.7,0.3-6.9,0.1-9.9,0.1l-3.6-0.1c-0.4,0-0.7-0.1-1.1-0.2c-3-0.3-2.8-0.6-4.1-0.9
			c-1.5-0.3-2.4-0.8-3.6-1.3l-2.7-1c-0.4-0.1-0.5-0.3-0.8-0.4c-0.5-0.2-1.2-0.5-1.8-0.7c-0.7-0.2-1.2-0.6-1.8-0.7
			c-0.7-0.2-1.2-0.3-1.8-0.6c-0.8-0.4-1.8-0.8-2.4-1.2c-0.6-0.4-2.7-1.4-4-2.3c-1-0.7-0.4-0.1-1.4-1.1c-0.2-0.2-0.5-0.3-0.6-0.5
			c-0.4-0.5-0.9-0.8-1.3-1.2c-0.6-0.7-1.3-1.1-1.9-1.8l-2.2-2.8c-1-1.3-1.1-1.7-1.9-3c-0.2-0.3-0.3-0.5-0.5-0.8
			c-0.1-0.4-0.1-0.5-0.4-0.9c-0.5-0.6-1.3-2.4-1.6-3.3l-0.7-1.8c-0.3-0.8-0.4-1-0.8-1.8c-0.6-1.2-0.5-2.8-1-4c-0.6-1.5-0.4-4-1-5.2
			c-0.2-0.5-0.2-0.3-0.3-1C4,75,4,68.2,4.2,68.9c0,0,0.1,0,0.1,0c0.1,0,0.1,0,0.2,0l2.2,1.9c1.7,1.1,3.5,0.8,5.2,1.6
			c0.5,0.3,1.2,0.4,1.9,0.5c1.4,0.1,2.8,0.3,4.3,0.4v0.1c1.5,0.1,1.6,0.2,2.9-0.2c0.6-0.2,1.1-0.4,1.7-0.5c0.7-0.1,1.1-0.2,1.7-0.5
			c0.3-0.1,0.6-0.2,0.9-0.3c0.4-0.1,1-0.6,1.4-0.8c0.6-0.3,1.9-1.8,2.6-2.4l1.6-2.6c1-1.7,0.9-1.9,1.3-3.9l0.2-3.3
			c0-0.8-0.1-1.3-0.1-2.1c0-1.4-0.5-2.2-1-3.5c-0.4-1-0.9-2.5-1.7-3.2l-0.5-0.5c-0.1-0.1-0.1-0.1-0.1-0.2c-0.4-0.4-1-0.7-1.4-1.2
			c-0.4-0.4-0.9-0.7-1.2-1c-1.6-1.7-1.8-1.4-2.5-2c-0.5-0.5-0.7-0.5-1.4-0.8c-0.5-0.2-0.9-0.6-1.4-0.7c-1.9-0.6-6.2-0.8-8.1-0.1
			L9.6,45C9,45.2,9,45.6,8,45.7c0-1,0.3-1.2,0.5-1.8c0.3-1,0.1-0.9,0.8-1.6c0.4-0.5,0.7-0.9,1-1.4c0.2-0.4,0.4-0.4,0.5-0.7
			c0.1-0.2,0.3-0.6,0.4-0.9c0.5-0.9,1-1.7,1.7-2.5c0.1-0.1,0.1-0.2,0.3-0.4c0.6-0.7,1.5-1,2.4-1.3C15.9,35.1,16.3,34.9,16.4,34.9
			L16.4,34.9z M70.3,39c0.4,1.4,0.7,3.3,1.6,2.8c0.2-0.1-0.3,0.3,0.1-0.1c0.7-0.6,0.4-3-0.9-4.3c-0.7-0.7-0.5-0.8-1.8-1.5
			c-0.8-0.5-0.4-0.5-1.5-1c-0.5-0.3-1-0.7-1.9-1c0,0-0.1,0-0.1,0l-0.2-0.1c-0.6-0.3-1.9-0.6-2.7-0.5c-2,0.2-2.1,1.5-1.1,1.4
			c0.3,0,1-0.5,2.4,0.2l1.7,0.7c0.4,0.2,0.3,0.3,0.8,0.5c0.5,0.3,1.2,0.8,1.7,0.9c0.4,0.1,1.1,0.9,1.6,1.4
			C70.2,38.6,70.4,38.7,70.3,39L70.3,39z M71.7,85.4c-0.3,0.1-0.2-0.1-0.4,0.7c-0.1,0.3-0.1,0.3-0.2,0.7c-0.2,0.7-0.3,1,0.1,1.4
			c0.4,0,0.6-0.1,0.7-0.3l0.3-0.4c0.6-0.9,0.9-2.4,1-2.8c1-1.8,1.6-5.4,0.2-6.8c-0.3-0.3-0.2-0.2-0.5-0.6c-0.5-0.9-1.9-0.9-3.1-0.6
			c-1.4,0.3-1.4,0.8-2.6,1.3c-0.7,0.3-0.7,0.7-1.3,1c-0.7,0.4-1.6,1.4-2.1,2c-0.3,0.4-0.5,0.4-0.5,0.9l-0.1,0.9c0.5,0,0.7-0.3,1-0.6
			c0.4-0.5,0.3-0.5,0.8-0.9l0.2-0.1c0.7-0.5,0.3-0.3,0.7-0.7c0.3-0.3,0.7-0.4,1-0.7c0.8-0.6-0.2-0.1,1.4-1c0.9-0.5,0-0.3,1.7-0.9
			c0.4-0.1,1-0.1,1.6-0.1c0.3,0.3,0.8,1,1,1.4c0.3,0.8,0.2,1.3,0.2,2.2c-0.1,1.4-0.2,1.2-0.5,1.9C72,84.2,71.7,85.3,71.7,85.4
			L71.7,85.4z M39.9,96.9c-2,0-6,0.1-7.7-0.6c-0.5-0.2-1.3-0.3-1.9-0.5c-0.8-0.2-1.8-0.8-3.4-1.2c-0.6-0.2-0.9-0.6-1.5-0.8
			c-0.3-0.1-0.5-0.1-0.8-0.4c-1-0.8-1.4,0,0.1,1c0.3,0.2,0.5,0.2,0.9,0.4c0.3,0.2,0.5,0.3,0.8,0.5c0.5,0.3,1.2,0.6,1.8,0.8
			c0.7,0.3,1.1,0.5,1.8,0.7l2.1,0.5c1.8,0.5,2.3,0.6,4.3,0.7c3.3,0.2,8.7,0.1,11.5-0.6c0.7-0.2,1.5-0.3,2.2-0.5l1.9-0.6
			c0.6-0.3,1.4-0.4,2-0.7c0.9-0.3,3-1,3.7-1.5c0.6-0.4,3.2-1.5,3.5-1.6c0.3-0.2,0.3-0.3,0.8-0.5c0.6-0.3,1.2-0.5,1.6-0.9
			c0.3-0.3,0.5-0.3,0.8-0.6c1.6-1.3,1-1,1.9-1.9c0.6-0.6,1.3-2.8,1.8-3.4c0.3-0.4,0.3-0.5,0.3-1.1c-0.5-0.2-0.8-0.6-1.6,0.5
			c-0.4,0.6-0.1,1.3-1.8,3.3c-0.3,0.4-0.9,1-1.3,1.4c-1.1,1-2.1,1.2-2.4,1.4c-0.4,0.3-0.4,0.3-0.9,0.5c-0.6,0.3-1,0.5-1.6,0.9
			L56,93.6c-0.5,0.1-0.5,0-1,0.3L52.3,95c-0.2,0.1-0.3,0.1-0.5,0.1c-0.4,0.1-0.2,0.1-0.5,0.2c-1.5,0.7-4.5,1-6.4,1.4
			C43.9,97,41.2,97,39.9,96.9L39.9,96.9z M1.4,58.5c0-0.9,0-1.7,0.2-2.6c0.1-0.4,0.1-0.7,0.3-1c0.5-0.8,1-2.6,1.4-3.1
			c0.6-0.7,0.3-0.5,0.7-1.2c0.7-1.3,0.9-0.5,2.1-1.8c0.5-0.6,1.6-1.2,2.2-1.7c0.9-0.7,2.4-1.3,3.4-1.8c2.2-1.1,4.4-0.8,6.8-0.7
			c2.5,0.1,1.9,0.4,3,0.8c1.7,0.7,1.3,0.9,2.3,1.5c0.9,0.6,0.8,0.7,1.4,1.2c0.3,0.2,0.6,0.3,0.9,0.5l1.1,0.8
			c0.1,0.1,0.3,0.2,0.4,0.2c0.3,0.2,0.4,0.4,0.6,0.7c1.4,1.8,0.9,0.8,1.9,3.2c0.1,0.3,0.2,0.8,0.3,1c0.2,0.3,0.3,0.3,0.5,0.8
			c0.6,1.7,0.2,5.2,0.1,7.1c-0.1,0.6-1.2,2.9-1.5,3.7c-0.2,0.5-0.7,1-1.1,1.4c-0.5,0.5-0.3,0.4-0.5,0.8c-0.1,0.2-0.5,0.3-0.7,0.5
			c-0.7,0.7-1.4,0.9-2.3,1.5c-0.3,0.2-0.5,0.2-0.9,0.4c-4.3,1.4-4.1,0.8-8.1,0.7c-2-0.1-1.6-0.4-3.2-0.6c-0.3-0.1-0.7,0-1-0.1
			c-0.4-0.1-0.2-0.2-0.6-0.3c-0.3-0.1-0.5-0.1-0.8-0.2C9.4,70,9.7,70,9.3,69.9c-2.7-0.7-1.5-0.2-3.7-2.2c-0.6-0.6-1.5-1.3-1.9-2
			c-0.3-0.5-0.5-0.5-0.8-1.2c-1.1-2.4-1.6-1.1-1.6-6.2L1.4,58.5z M16.5,26.4c0-1.8,0-1.9,0.4-3.6c0.2-0.8,0.3-1.6,0.7-2.4
			c0.5-1.2,0.5-0.9,0.9-2c0.3-0.9,1.4-2.2,2-3c0.4-0.5,0.3-0.7,0.8-1.2c0.2-0.2,0.2-0.3,0.4-0.5l4.1-3.9c0.5-0.5,0.7-0.5,1.2-0.9
			c0.4-0.3,0.6-0.7,1-1l2.2-1.3c0.1-0.1,0.1-0.1,0.2-0.2c0.5-0.4,0.9-0.4,1.4-0.6l3-0.9c1-0.3,2.2-0.5,3.4-0.7
			c0.6-0.1,1.1-0.3,1.7-0.3c0.6-0.1,1.1-0.1,1.6-0.3c2.9-0.9,8.4-1.2,9.4-1.6L51,1.8c0.7-0.2,2.9-0.3,4.5-0.3c1.7,0,3.1,0.1,4.7,0.6
			c0.7,0.2,1.2,0.3,1.8,0.4c1.9,0.5,1.8,0.3,2.9,0.5c1.2,0.3,1.7,0.2,2.9,0.4c0.7,0.1,1.4,0.1,2.1,0.2c0.5,0.1,1.6,0.1,2.1,0.1
			c2.5,0.6,5.1,0.7,7.7,1.2c0.7,0.1,3,0.7,3.5,0.9c0.7,0.4,1.9,1.4,2.6,1.9c1.2,0.9,0.7,0.9,2.7,1.8c1,0.4,1.8,1.2,2.8,1.6
			c0.4,0.2,0.3,0.3,0.7,0.5c0.3,0.2,0.4,0.2,0.7,0.4c0.4,0.2,0.3,0.3,0.7,0.5l1.1,0.6c0.1,0.1,0.3,0.1,0.3,0.2
			c0.1,0.1,0.3,0.4,0.5,0.5c0.3,0.3,0.4,0.2,0.7,0.5c0.2,0.2,0.3,0.4,0.5,0.5c0.4,0.4,0.8,0.7,1.2,1c0.5,0.4,0.6,0.8,1,1.2l1.4,1.9
			c0.3,0.6,1,1.4,1.4,1.9c0.8,1.4,1.9,2.6,2.8,3.9c0.9,1.3,1.7,2.8,2.3,4.3c0.3,0.7,1,2.4,1.5,2.9l1.7,2.7c0.1,0.6,0.2,0.4,0.4,0.9
			c0.5,1.5,0.3,3.6,0.7,4.9c0.3,1.1,0.5,2.5,0.9,3.6l0.9,2.5c0.1,0.3,0.1,0.6,0.2,0.9c0.1,0.3,0.3,0.4,0.5,0.7
			c0.1,0.2,0.2,0.5,0.3,0.7c0.2,0.7,0.2,1.2,0.4,1.9c0.2,0.7,0.4,0.9,0.5,1.8c0.1,0.5,0.1,0.5,0.2,1l0.4,2.8
			c0.1,0.6,0.1,1.4,0.1,2.1c-0.1,0.5-0.3,1.2-0.4,1.8c-0.1,0.6-0.2,1.3-0.3,1.9c-0.1,0.7-0.2,1.3-0.3,1.9c-0.3,1.2-0.3,2.8-0.4,4.1
			c-0.1,1.2-0.1,0.8-0.7,1.5c-0.2,0.3-0.2,0.5-0.3,0.9c-0.6,1.6-0.7,1.4-1.2,2.1c-0.3,0.4-0.1,0.4-0.5,0.7c-0.2,0.2-0.3,0.3-0.5,0.5
			c-0.9,1-1.7,2.1-2.3,3.3c-0.2,0.4-0.1,0.5-0.6,0.5c-0.1-0.1-0.1-0.1-0.1-0.3l-0.1-0.8c-0.1-0.9-0.3-1.8-0.7-2.7
			c-0.1-0.3-0.2-0.5-0.3-0.9c-0.2-0.9-0.8-1.3-1.1-2.2c-0.3-1-1-1.2-1.4-2c-0.3-0.4-0.3-0.2-0.5-0.5c-0.2-0.3-0.2-0.5-0.5-0.7
			c-0.3-0.2-0.3-0.2-0.6-0.5c-0.4-0.4-0.8-0.7-1.2-1c0-0.6,0.1-1.2,0-1.8c-0.4-2.4,0.1-5.3-0.5-7.7c-0.3-1.2-0.3-0.5-0.6-2.3
			c-0.1-0.7-0.5-1.4-0.7-2.3c-0.2-0.9-0.3-1.6-0.4-2.5c-0.1-0.6-0.1-0.7-0.3-1.1c-0.4-0.8-0.3-1.6-0.5-2.5c-0.1-0.6-0.4-1.6-0.7-2.1
			c-0.3-0.6-0.2-0.5-0.4-1.2c-0.1-0.4-0.9-1.3-1.2-1.6l-0.7-0.8c-0.3-0.3-0.1,0-0.3-0.5c-0.1-0.3,0-0.2-0.3-0.5
			c-0.3-0.4-0.4-0.4-0.6-0.9l-0.9-1.2c-0.1-0.2-0.2-0.2-0.4-0.4c-0.4-0.5-0.9-1.3-1.4-1.6c-0.4-0.3-0.4-0.2-0.8-0.6l-2.2-2.3
			c-0.7-0.9-1.4-1.3-2.2-2.1c-0.5-0.5-1.9-1.3-2.7-1.7l-1.9-1.1c-0.4-0.2-0.4-0.4-0.8-0.6c-0.6-0.3-1.4-0.5-2.1-0.9
			c-0.4-0.2-0.6-0.3-1-0.5c-0.2-0.1-0.3-0.1-0.5-0.3C77,25,76.5,24.8,76,24.6c-0.3-0.1-0.7-0.3-1-0.5c-0.7-0.5-1.5-0.9-2.2-1.4
			l-1.5-0.8c-0.6-0.4-1.3-0.5-2-0.9c-1.2-0.7-3.2-0.8-4.5-1.3c-1.1-0.4-2.6-0.6-3.7-0.7c-0.4-0.1-0.9,0-1.3-0.1
			c-0.4-0.1-0.7-0.2-1.2-0.3l-4-0.3c-4.5-0.3-9.4-0.5-13.8,0.5c-1.8,0.4-3.4,1-5.1,1.5c-0.4,0.1-0.7,0.3-1,0.5
			c-0.4,0.1-0.7,0.2-1.1,0.4c-1,0.5-1.4,0.4-2.3,0.7c-0.3,0.1-0.6,0.4-1,0.5c-0.4,0.1-0.7,0.1-1,0.4c-0.5,0.3-0.3,0.3-0.9,0.6
			c-0.5,0.2-0.5,0.3-0.9,0.6c-0.5,0.3-0.4,0.4-0.9,0.7l-1.9,1.1c-0.3,0.2-0.5,0.4-0.9,0.6c-1.1,0.7-1.3,0.7-2.7,1.6
			c-0.3,0.2-0.6,0.4-0.9,0.6c-0.3,0.2-0.6,0.4-0.9,0.6c-0.7,0.5-0.9,1.1-1.9,1C16.4,29.8,16.5,27.4,16.5,26.4L16.5,26.4z M15.2,25.6
			c0,1.1-0.1,3.6,0.5,4.5c0.1,0.2,0.1,0.1,0.2,0.3c0.3,0.3,0,0.2,0.4,0.3c0,0.8-0.7,1.1-1.4,1.9l-2.7,3c0,0,0,0-0.1,0.1
			c0,0,0,0-0.1,0.1L12,35.9c0,0-0.1,0.1-0.1,0.1c-0.1,0.1-0.1,0.1-0.1,0.2c-0.5,0.6-1.4,2.2-1.8,2.9l-2,3.4
			c-0.2,0.4-0.3,0.5-0.5,0.8C6.9,44,7,45,6.5,45.7C6,46.3,6,46.8,5.6,47.2c-1,1.2-2.2,2.1-3,3.4c-0.7,1-1.1,2.1-1.6,3.2l-0.5,1.5
			C-0.1,56.9,0,59.1,0,60.8c0,0.6,0.3,1.5,0.5,2l1.5,3c0.2,0.3,0.3,0.3,0.4,0.5c0.7,1,0.4,2.9,0.4,4.1c0,0.7,0.1,1.1,0.1,1.7
			c0.1,2.5,0.1,4.6,0.3,6.9c0.1,0.6,0.2,1,0.3,1.5c0.1,0.6,0.1,1,0.3,1.6C4.2,83.5,4.4,85,5,86.3c0.1,0.3,0.1,0.4,0.2,0.6
			c0.1,0.3,0.1,0.4,0.3,0.7c0.3,1,0.5,1.9,0.9,2.7c0.5,0.9,0.8,2,1.1,2.5c0.5,0.7,1.4,2.6,1.9,3.5c0.3,0.5,0.5,0.6,0.7,1.1
			c0.2,0.5,0.3,0.7,0.7,1.1l1.6,2c0.3,0.3,0.5,0.7,0.8,1l0.3,0.3c0,0,0,0,0.1,0.1c0,0,0,0,0.1,0.1c1.3,1.7,1.6,1.9,3.4,3.3l0.7,0.7
			c0.4,0.3,0.7,0.5,1,0.8c0.9,0.7,1.3,0.8,2.3,1.3c0.7,0.4,1.5,1,2.3,1.3c0.3,0.1,0.4,0.1,0.7,0.2l5.7,2.5c1.7,0.7,3.5,1.2,5.3,1.9
			c0.5,0.2,0.6,0.5,1.2,0.7c0.7,0.2,1.4,0.3,2,0.6c0.4,0.2,0.2,0.1,0.7,0.3c0.2,0.1,0.4,0.1,0.7,0.2l2.4,0.4c1,0.1,2.3,0.2,3.4,0.2
			c1.1,0,2.2,0.2,3.4,0.2c1.3,0,2.2,0.1,3.5,0.1l5.2-0.2c0.3,0,0.6,0,0.9,0c0.4,0,0.4-0.1,0.9-0.1c1.1,0,2.2-0.1,3.3-0.2l2.3-0.4
			c0.7-0.1,1.5-0.6,2.1-0.7c1.2-0.2,2.3-0.6,3.4-1l1.3-0.5c0.3-0.1,0.5-0.1,0.7-0.2c0.3-0.1,0.4-0.1,0.6-0.2l0.7-0.3
			c0.4-0.1,0.3-0.1,0.6-0.2c1.2-0.5,2.7-0.9,3.9-1.5c0.6-0.3,1.3-0.5,1.8-1c0.3-0.2,0.2-0.2,0.5-0.4c0.9-0.5,2.1-1.2,2.8-1.7
			c0.3-0.3,0.7-0.5,1-0.8c0.2-0.1,0.3-0.3,0.4-0.4c0.5-0.5,1-0.7,1.5-1.2c1-1,2-1.4,2.8-2.6c0.5-0.8,2.4-2.5,2.9-3.3l0.4-0.5
			c0.4-0.4,2.3-4.3,2.4-4.8c0.1-0.3,0.3-2.2,1-2.5c0.8-0.3,3.4-0.1,5.6-1.6l1.9-1.7c0.3-0.3,0.3-0.4,0.7-0.6c0.9-0.5,0.9-1,1.5-1.7
			c0.3-0.3,0.2-0.2,0.4-0.6c0.3-0.6,0.3-0.5,0.5-1.3c0.3-1,0.1-0.9,0.5-2.1c0.2-0.7,0.4-1.4,0.8-2c0.8-0.9,2.1-2.6,2.7-3.5
			c0.1-0.2,0.2-0.5,0.3-0.6c0.2-0.3,0.6-0.6,0.9-1c0.2-0.2,0.2-0.2,0.4-0.5c0.6-0.9,1.4-1.7,1.8-2.8c0.1-0.2,0.2-0.3,0.3-0.6
			c0.1-0.3,0.1-0.4,0.3-0.7c0.6-0.8,0.6-1.3,0.9-2.7c0.1-0.5,0.1-1,0.2-1.6c0.2-1,0.2-2.5,0.4-3.2c0.2-0.7,0.5-3.3,0.7-3.8
			c0.1-0.3,0.3-0.3,0.3-0.7c0-3.1-0.2-1.5-0.3-3.3c-0.1-0.7-0.7-4.6-1-5.3l-1.6-4.7c-0.2-0.5-0.4-0.8-0.6-1.2
			c-0.2-0.5-0.1-1-0.3-1.5l-0.7-4.7c-0.1-1.1-0.4-1.9-0.7-2.9c-0.2-0.6-0.5-0.7-0.9-1.8c-0.3-0.7-0.8-1-1.1-1.6
			c-0.1-0.2-0.2-0.3-0.3-0.5c-0.4-0.5-0.5-1.3-0.9-1.9c-0.5-0.9-0.9-2.4-1.4-3c-0.2-0.3-0.2-0.3-0.4-0.6c-0.5-1-1.1-1.9-1.8-2.7
			l-0.3-0.3c0,0,0,0-0.1-0.1c0,0,0,0-0.1-0.1l-1.7-2.1c-1-1.2-1.9-3.2-3-4.3l-0.8-1c-0.8-1-2-1.6-2.9-2.4l-3.2-2.2
			c-0.8-0.5-1.6-0.9-2.3-1.4c-0.3-0.3-1.7-0.7-3.4-2c-0.4-0.3-0.6-0.6-0.9-0.9l-1.1-0.7c-0.2-0.1-0.1-0.1-0.2-0.2l-0.1-0.1
			c0,0-0.1-0.1-0.1-0.1c-0.7-0.5-4.3-1.3-5.1-1.4L76,3.2c-1.9-0.4-3-0.4-4.8-0.6c-0.5-0.1-1.2,0-1.8-0.1c-0.5-0.1-1.1-0.2-1.5-0.3
			c-0.6-0.1-1.2,0.1-1.8,0C66,2.2,65.6,2,65.5,2c-0.7-0.2-1.6-0.3-2.3-0.4l-5-1.4C57.8,0.2,57.7,0,57.4,0h-4.5
			c-0.3,0-0.3,0.1-0.7,0.2c-0.9,0.2-1.2,0.1-2.6,0.4c-0.5,0.1-1.2,0.1-1.7,0.2l-1.7,0.3c-0.6,0.1-1,0.3-1.6,0.3
			c-0.7,0-1.1,0.1-1.7,0.3c-0.3,0.1-0.5,0.1-0.8,0.2c-1.1,0.4-1,0.2-1.6,0.4c-1.1,0.4-2.9,0.5-4.1,0.8l-4.6,1.3
			C29,5.6,28.4,6,26.2,7.7C26,7.9,26,7.8,25.9,8l-1.4,1.2c-1.6,1.3-2.7,2.5-4,3.9l-1.7,2.2c-0.5,0.9-1.1,1.6-1.5,2.6
			c-0.1,0.3-0.1,0.5-0.2,0.7l-1.3,3.6c-0.2,0.9-0.5,2.6-0.5,3.5L15.2,25.6z M45,59.3c-0.4-2,0.3-5.2,1.1-6.6
			c0.1-0.2,0.2-0.3,0.3-0.5c0.9-1.5,0.3-0.6,1.1-1.6c0.1-0.1,0.2-0.3,0.4-0.5c0.5-0.6,0.4-0.2,0.9-0.9c0.4-0.6,0.1,0,1-0.7
			c0.6-0.5,1.6-1,2.1-1.3l2.2-1.3c0.5-0.3,0.7-0.3,1.4-0.4c1.2-0.1,4-1.2,6.1-0.7c0.3,0.1,0.8,0.4,1.1,0.6c0.5,0.2,1,0.3,1.3,0.5
			c0.4,0.3,0.4,0.5,1,0.7c0.5,0.2,1,0.1,1.4,0.5c0.5,0.5,0.2,0.4,1,0.7c0.9,0.3,0.5,0.2,1.1,0.7c0.3,0.3,0.7,0.4,1,0.7l1.6,1.4
			c0,0,0.2,0.1,0.3,0.2c0.2,0.2,0.2,0.2,0.4,0.4c0.5,0.6,0.5,0.5,0.9,1.3s-0.1,0.3,0.4,0.9c0.6,0.7,0.6,1,0.6,2
			c0,1.4,0.2,0.8,0.2,1.6c0.1,1.1,0,2.3,0,3.4c0,1.6-0.3,1.7-0.6,2.8c-0.2,0.6-0.3,0.5-0.4,1.2c-0.1,0.3-0.1,0.7-0.4,1l-0.1,0.1
			c-1.2,1-0.3,1.6-2.4,2.9c-0.4,0.3-0.7,0.5-1,0.7c-0.9,0.8-1.5,0.5-2.5,1c-1.3,0.7-2.8,0.9-4.2,1c-0.6,0.1-0.9,0.2-1.6,0.2
			c-1.1,0-2-0.3-3.1-0.3c-2-0.1-1.1,0.2-3.2-0.3c-0.7-0.2-3.3-0.4-4.3-1c-0.4-0.2-0.7-0.5-0.9-0.9l-2-2c-0.1-0.1-0.1-0.1-0.3-0.2
			s-0.3-0.1-0.5-0.3c-0.9-1.2-0.9-2.7-1.2-4.1C45.4,61.3,45.3,60.2,45,59.3L45,59.3z M43.5,57.4c0,1.6-0.1,2.8,0.3,4.3
			c0.4,1.5,0.3,1.5,0.4,2.2c0.1,0.5,0.2,0.3,0.3,0.7c0.1,0.7-0.1,0.9,0.7,1.9l2,2.3c0.7,0.7,0.1,0.2,1.3,1.2l0.4,0.3
			c0,0,0,0,0.1,0.1c1,1,0.8,0.9,2.2,1.4c0.8,0.3,2.3,0.1,2.9,0.5c0.5,0.3-0.3,0.2,1.2,0.4c1.3,0.2,4.5,0.3,5.9,0.2l4.1-0.3
			c0.3-0.1-0.5,0,1.6-0.8c0.9-0.3,0.7-0.4,1.4-0.7c0,0,0.1,0,0.1,0c0,0,0.1,0,0.1,0c0,0,0.1,0,0.1,0c2.1-0.8,0.8-0.4,2-1.2
			c0.9-0.6,1.6-0.9,2.1-2.2c0.5-1.3,0.8-0.6,1.7-2.5c0.3-0.7,0.5-2,1-2.8c0.4-0.6,0.2-1.9,0.2-3.5c0-3.3-0.2-2-0.3-3.4
			c-0.1-0.7,0.1-0.6-0.1-1.2c-0.2-0.7-0.2-1-0.7-1.7c-0.1-0.2-0.3-0.3-0.4-0.6c-0.1-0.3-0.1-0.5-0.3-0.7c-0.4-0.9-2.1-2.2-2.9-2.8
			c-2.3-2-1.3-1-3.4-2.3c-0.4-0.2-0.9-0.4-1.3-0.6c-0.9-0.4-1.7-0.8-2.6-1.2l-1.3-0.6c-1-0.5-4.6,0.1-5.3,0.3
			c-0.6,0.2-0.8,0.3-1.5,0.4c-0.4,0.1-1.3,0.2-1.7,0.3c-2.4,0.7-0.5,0.1-2.6,1.2c-0.8,0.4-1.6,1.2-2.3,1.7c-0.7,0.5-1.1,1-1.5,1.3
			c-0.8,0.5-0.9,0.7-1.3,1.5c-0.3,0.5-0.5,0.3-0.8,1.2c-0.1,0.5-0.5,0.8-0.7,1.3C44,54.7,43.6,55,43.5,57.4L43.5,57.4z M20.6,97.3
			c0-0.7-0.1-0.6-0.3-1c-0.7-1.1-0.7-1.8-0.3-3.3c0.9-3.4,2-2.2,1.9-3.4c-0.9-0.1-1-0.1-2,1.2c-0.7,0.9-1.6,3.5-0.9,5
			c0.1,0.2,0.5,0.9,0.6,1C19.7,97,20.1,97.3,20.6,97.3L20.6,97.3z M17.3,59.4c0.1-0.6,0.4-0.2,0.3-1.3c-0.6-0.6-0.7-0.3-1.5-0.3
			c-1,0,0-0.7-1.5-0.6c-0.3,0.4-1.1,1.5-1.3,1.9c-0.3,0.8-0.4,2.3,0.7,2.3c0.7,0,0.5-0.4,1.3-0.1c0.7,0.2,0.9,0.3,1.5-0.1
			C18.5,60.1,17.7,60.3,17.3,59.4z M55.8,60c0,0.4-0.2,0.1,0.5,0.7c1.1,1,0.4,0.4,1.6,1c1.3,0.6,0.9,0.5,1.7-0.2
			c0.2-0.2,0.5-0.3,0.7-0.5c0.2-1.1-0.2-0.7-0.3-1.5c-0.1-0.6-0.2-1-0.3-1.6c-2.1-0.6-0.7-0.2-3-0.2c-1,0-1.1,0.7-1.1,1.4
			C55.6,59.7,55.6,59.9,55.8,60z"/>
		<path class="st1" d="M18.4,18.3c-0.4,1.1-0.5,0.9-0.9,2c-0.3,0.8-0.5,1.6-0.7,2.4c-0.4,1.7-0.4,1.8-0.4,3.6l0,0
			c0,1-0.1,3.5,1.1,3.7c1,0.1,1.2-0.6,1.9-1c0.3-0.2,0.6-0.4,0.9-0.6c0.3-0.2,0.5-0.4,0.9-0.6c1.4-0.9,1.6-0.9,2.7-1.6
			c0.3-0.2,0.5-0.5,0.9-0.6l1.9-1.1c0.4-0.3,0.3-0.4,0.9-0.7c0.5-0.3,0.4-0.4,0.9-0.6c0.6-0.2,0.4-0.3,0.9-0.6
			c0.4-0.2,0.6-0.2,1-0.4c0.4-0.1,0.6-0.4,1-0.5c0.9-0.3,1.3-0.2,2.3-0.7c0.4-0.2,0.7-0.3,1.1-0.4c0.3-0.1,0.7-0.3,1-0.5
			c1.7-0.5,3.3-1.1,5.1-1.5c4.4-0.9,9.3-0.8,13.8-0.5l4,0.3c0.5,0,0.8,0.2,1.2,0.3c0.4,0.1,0.9,0,1.3,0.1c1.2,0.2,2.6,0.3,3.7,0.7
			c1.3,0.5,3.3,0.7,4.5,1.3c0.7,0.4,1.4,0.5,2,0.9l1.5,0.8c0.7,0.5,1.5,0.9,2.2,1.4c0.3,0.2,0.7,0.4,1,0.5c0.5,0.2,0.9,0.4,1.3,0.8
			c0.2,0.1,0.3,0.2,0.5,0.3c0.4,0.2,0.6,0.3,1,0.5c0.6,0.3,1.4,0.6,2.1,0.9c0.4,0.2,0.4,0.3,0.8,0.6l1.9,1.1
			c0.7,0.4,2.1,1.1,2.7,1.7c0.8,0.8,1.5,1.3,2.2,2.1l2.2,2.3c0.3,0.4,0.4,0.3,0.8,0.6c0.5,0.3,1,1.1,1.4,1.6
			c0.2,0.2,0.2,0.2,0.4,0.4l0.9,1.2c0.2,0.5,0.3,0.5,0.6,0.9c0.2,0.3,0.1,0.1,0.3,0.5c0.2,0.5,0,0.1,0.3,0.5l0.7,0.8
			c0.3,0.3,1,1.2,1.2,1.6c0.2,0.6,0,0.6,0.4,1.2c0.3,0.6,0.6,1.5,0.7,2.1c0.2,0.9,0.1,1.7,0.5,2.5c0.2,0.5,0.3,0.5,0.3,1.1
			c0.1,0.9,0.3,1.6,0.4,2.5c0.2,0.9,0.6,1.6,0.7,2.3c0.2,1.8,0.3,1.1,0.6,2.3c0.6,2.4,0.1,5.3,0.5,7.7c0.1,0.6,0,1.2,0,1.8
			c0.5,0.3,0.9,0.6,1.2,1c0.3,0.3,0.3,0.3,0.6,0.5c0.3,0.3,0.3,0.5,0.5,0.7c0.3,0.3,0.2,0.1,0.5,0.5c0.5,0.8,1.1,1,1.4,2
			c0.3,0.9,0.9,1.2,1.1,2.2c0.1,0.4,0.2,0.5,0.3,0.9c0.3,0.9,0.5,1.8,0.7,2.7l0.1,0.8c0.1,0.2,0,0.1,0.1,0.3
			c0.5-0.1,0.4-0.1,0.6-0.5c0.6-1.2,1.3-2.3,2.3-3.3c0.2-0.2,0.3-0.3,0.5-0.5c0.4-0.4,0.2-0.4,0.5-0.7c0.5-0.7,0.6-0.5,1.2-2.1
			c0.1-0.4,0.1-0.6,0.3-0.9c0.6-0.7,0.5-0.3,0.7-1.5c0.1-1.3,0.1-2.9,0.4-4.1c0.2-0.6,0.3-1.2,0.3-1.9l0.3-1.9
			c0.1-0.6,0.3-1.3,0.4-1.8c0.1-0.7,0-1.5-0.1-2.1l-0.4-2.8c-0.1-0.5-0.1-0.5-0.2-1c-0.1-0.9-0.2-1-0.5-1.8
			c-0.2-0.7-0.2-1.2-0.4-1.9c-0.1-0.3-0.2-0.5-0.3-0.7c-0.1-0.3-0.3-0.4-0.5-0.7c-0.1-0.3-0.1-0.6-0.2-0.9l-0.9-2.5
			c-0.4-1.1-0.5-2.5-0.9-3.6c-0.3-1.3-0.1-3.3-0.7-4.9c-0.2-0.5-0.2-0.3-0.4-0.9l-1.7-2.7c-0.5-0.5-1.2-2.2-1.5-2.9
			c-0.6-1.5-1.4-3-2.3-4.3c-0.9-1.3-2.1-2.5-2.8-3.9c-0.3-0.5-1-1.3-1.4-1.9l-1.4-1.9c-0.5-0.4-0.6-0.8-1-1.2
			c-0.4-0.3-0.8-0.7-1.2-1c-0.2-0.2-0.3-0.3-0.5-0.5c-0.3-0.3-0.4-0.2-0.7-0.5c-0.2-0.1-0.4-0.4-0.5-0.5c-0.1-0.1-0.2-0.1-0.3-0.2
			l-1.1-0.6c-0.4-0.2-0.3-0.3-0.7-0.5c-0.3-0.2-0.4-0.2-0.7-0.4c-0.3-0.3-0.3-0.3-0.7-0.5c-1-0.5-1.8-1.2-2.8-1.6
			c-2-0.9-1.5-0.9-2.7-1.8c-0.7-0.5-1.9-1.5-2.6-1.9c-0.5-0.3-2.8-0.8-3.5-0.9c-2.6-0.5-5.2-0.6-7.7-1.2c-0.5-0.1-1.6-0.1-2.1-0.1
			c-0.6-0.1-1.4-0.1-2.1-0.2c-1.2-0.2-1.7-0.1-2.9-0.4c-1.1-0.2-1,0-2.9-0.5c-0.7-0.2-1.2-0.2-1.8-0.4c-1.6-0.6-3.1-0.6-4.7-0.6
			c-1.5,0-3.7,0.1-4.5,0.3l-0.2,0.1c-1,0.4-6.5,0.7-9.4,1.6c-0.5,0.2-1,0.2-1.6,0.3c-0.6,0-1.1,0.2-1.7,0.3
			c-1.2,0.2-2.4,0.4-3.4,0.7l-3,0.9c-0.5,0.2-1,0.2-1.4,0.6c-0.1,0.1-0.1,0.1-0.2,0.2l-2.2,1.3c-0.5,0.3-0.6,0.7-1,1
			c-0.5,0.4-0.7,0.4-1.2,0.9l-4.1,3.9c-0.2,0.2-0.3,0.3-0.4,0.5c-0.5,0.5-0.5,0.7-0.8,1.2C19.8,16,18.7,17.4,18.4,18.3z"/>
		<path class="st2" d="M72.7,67.5c-0.5,1.3-1.2,1.6-2.1,2.2c-1.2,0.8,0.1,0.4-2,1.2c0,0-0.1,0-0.1,0c0,0-0.1,0-0.1,0
			c0,0-0.1,0-0.1,0c-0.7,0.3-0.6,0.4-1.4,0.7c-2.2,0.8-1.3,0.7-1.6,0.8l-4.1,0.3c-1.4,0-4.6-0.1-5.9-0.2c-1.6-0.2-0.8-0.1-1.2-0.4
			c-0.6-0.4-2.1-0.3-2.9-0.5c-1.4-0.5-1.1-0.4-2.2-1.4l-0.1-0.1L48.5,70c-1.2-1-0.6-0.6-1.3-1.2l-2-2.3c-0.7-0.9-0.5-1.2-0.7-1.9
			c-0.1-0.4-0.1-0.2-0.3-0.7c-0.2-0.7,0-0.7-0.4-2.2c-0.4-1.5-0.3-2.7-0.3-4.3l0.1,0c0-2.4,0.4-2.7,1.1-4.6c0.2-0.5,0.5-0.8,0.7-1.3
			c0.3-0.9,0.5-0.7,0.8-1.2c0.4-0.9,0.5-1,1.3-1.5c0.4-0.3,0.9-0.9,1.5-1.3c0.7-0.5,1.5-1.3,2.3-1.7c2.1-1,0.3-0.4,2.6-1.2
			c0.4-0.1,1.2-0.3,1.7-0.3c0.7-0.1,0.9-0.2,1.5-0.4c0.7-0.2,4.3-0.8,5.3-0.3l1.3,0.6c0.9,0.4,1.7,0.8,2.6,1.2
			c0.4,0.2,0.9,0.4,1.3,0.6c2.1,1.2,1.1,0.3,3.4,2.3c0.8,0.7,2.5,2,2.9,2.8c0.1,0.2,0.1,0.4,0.3,0.7c0.1,0.3,0.2,0.4,0.4,0.6
			c0.5,0.7,0.5,1,0.7,1.7c0.2,0.7,0.1,0.6,0.1,1.2c0.1,1.4,0.3,0.1,0.3,3.4c0,1.6,0.1,2.9-0.2,3.5c-0.5,0.8-0.6,2.1-1,2.8
			C73.5,66.9,73.2,66.2,72.7,67.5z M31.1,74.2c-1.1,1.6,0.5,3.4,0.6,3.7c0.7,0.1,1,1.8,5.5,0.7c0.4-0.1,0.7-0.1,1.1-0.2
			c0.8-0.3,1.3-0.5,2.1-0.1c0.2,1-0.1,0.9-0.7,1.3c-0.6,0.4-0.5,0.5-1.4,0.5c-1.4,0.2-4.9,1-6.6-0.2c-0.6-0.4-1.6-1.4-1.7-2.2l0,0
			l0.1,0c-0.7-0.4-0.9-1.6-0.9-2.1c0-1,0.9-2.3,1.5-2.9c0.8-0.8,1.4-1.4,2.4-2c0.5-0.2,3.9-1.9,4.5-1c0.6,0.9-1.1,1.2-1.6,1.3
			c-0.8,0.3-1.4,0.8-2.1,0.9c-0.5,0-0.6,0.2-0.8,0.5C32.9,72.5,31.7,73.4,31.1,74.2z M4.3,77.4c0.5,1.2,0.3,3.7,1,5.2
			c0.5,1.2,0.5,2.8,1,4c0.4,0.7,0.5,1,0.8,1.8l0.7,1.8c0.4,0.9,1.1,2.7,1.6,3.3c0.3,0.3,0.3,0.5,0.4,0.9c0.1,0.4,0.3,0.5,0.5,0.8
			c0.8,1.3,0.8,1.7,1.9,3l2.2,2.8c0.5,0.7,1.3,1.2,1.9,1.8c0.4,0.4,0.9,0.8,1.3,1.2c0.2,0.3,0.4,0.3,0.6,0.5c1.1,1,0.4,0.4,1.4,1.1
			c1.3,0.9,3.4,1.9,4,2.3c0.7,0.5,1.7,0.8,2.4,1.2c0.6,0.3,1.1,0.5,1.8,0.6c0.7,0.2,1.2,0.5,1.8,0.7c0.5,0.2,1.3,0.5,1.8,0.7
			c0.3,0.2,0.5,0.3,0.8,0.4l2.7,1c1.2,0.5,2.1,1,3.6,1.3c1.4,0.3,1.1,0.6,4.1,0.9c0.4,0,0.7,0.1,1.1,0.2l3.6,0.1
			c2.9,0,7.2,0.2,9.9-0.1c0.8-0.1,1.7-0.1,2.5-0.1c0.7,0,0.6-0.1,1.1-0.2c1.1-0.1,2.4-0.1,3.3-0.4c0.8-0.3,1-0.4,1.9-0.5
			c0.9-0.1,3.4-1,4.3-1.3l1.2-0.5c0.7-0.4-0.1-0.2,0.8-0.4l3.7-1.3c0.9-0.5,1.8-0.6,2.6-1.1c0.3-0.2,0.5-0.3,0.7-0.5l2.3-1.4
			c0.3-0.2,0.3-0.3,0.7-0.5l1.5-1c0.7-0.3,1.6-1.8,2.6-2.4c0.3-0.2,0.4-0.3,0.6-0.6c0.5-0.7,1.3-1.2,1.8-1.9
			c0.2-0.3,0.4-0.4,0.7-0.6c1.4-1.1,2.1-2.9,2.9-4.5c0.3-0.6,0.6-1,0.8-1.6c1-2.9-0.6-1.8-1.7-2.4c-0.2-2.1,1.2-0.4,4.8-1
			c0.5-0.1,1.2-0.5,1.7-0.6c1.1-0.2,1.8-0.5,2.6-1.2c0.4-0.3,0.5-0.5,0.8-0.8c0.4-0.3,0.4-0.2,0.9-0.7c0.3-0.3,0.5-0.4,0.8-0.8
			l1.4-1.7c0.5-0.9,1.2-5.4,1.2-6.4c0-1-0.5-3.6-0.9-4.6c-0.1-0.3-0.1-0.3-0.1-0.6c-0.1-0.4-0.4-0.6-0.6-1l-0.9-1.4
			c-0.2-0.2-0.2-0.3-0.3-0.5c-0.2-0.3-0.5-0.4-0.7-0.8c-0.4-0.7-0.9-1.1-1.4-1.6c-1.5-1.4-3.8,0-5.2-0.7v-0.6
			c0.8-0.5,0.9-0.2,1.9-0.4c0.5-0.1,1.6,0.1,2.1-0.2c0.3-0.5,0-1.4-0.1-2.1c-0.2-1.4-0.2-2.9-0.2-4.3c0-0.9-0.4-2-0.5-2.9
			c-0.4-2.3-0.5-1.7-0.7-2.6c-0.1-0.4-0.1-0.7-0.2-1l-0.3-1.9c-0.4-1.5-0.8-3-1-4.6c-0.1-0.6-1-2.7-1.3-3.2L93.6,41l-0.2-0.4
			l-3.3-4.1L90,36.4c-0.7-0.5-1.1-1.2-1.8-1.8c-0.5-0.4-0.6-0.8-1-1.2c-0.2-0.3-0.4-0.3-0.7-0.5c-0.3-0.2-0.3-0.4-0.6-0.6
			c-0.4-0.4-0.7-0.8-1.2-1c-0.8-0.4-1.4-0.9-2.1-1.3c-0.3-0.1-0.4-0.2-0.7-0.4l-1.5-0.8c-0.3-0.2-0.4-0.3-0.7-0.5
			c-0.5-0.3-1.2-0.4-1.6-0.6c-0.3-0.2-0.1-0.2-0.6-0.5l-1.1-0.6c-0.1,0-0.1,0-0.2-0.1c-0.2-0.1,0,0-0.1-0.1c-0.9-0.5-1-0.5-1.6-0.8
			c-0.5-0.3-0.8-0.7-1.2-1c-0.5-0.3-0.3-0.3-0.6-0.5c-0.4-0.3-1.7-0.7-2.2-1.1c-0.6-0.3-0.9-0.5-1.6-0.7l-2.6-0.8
			c-1.8-0.6-3-0.6-4.9-0.9c-0.3-0.1-0.6-0.1-1-0.2c-1.6-0.3-4.1-0.3-5-0.5c-2.2-0.6-10.4-0.6-12.7-0.1c-0.4,0.1-0.5,0.2-0.9,0.3
			c-0.8,0.1-1.8,0.1-2.5,0.5c0,0,0,0-0.1,0c0,0,0,0-0.1,0c-0.5,0.2-1,0.2-1.6,0.5c-0.6,0.3-1.4,0.4-2.1,0.6
			c-0.7,0.2-0.5,0.6-1.5,0.8c-1.2,0.2-2.3,0.7-3.5,1.1c-1.1,0.3-0.8,0.6-2.1,1.2c-0.3,0.2-0.3,0.3-0.6,0.5l-3.5,2.2
			c-0.5,0.3-1,0.5-1.4,0.8c-0.9,0.7-1,0.5-1.9,1.4l-0.7,0.5c-0.5,0.4-1.7,1-2,1.4c-0.6,0.7-2.2,1-2.3,2.1c1,0,1.5-0.8,3.1-0.8
			c0.2-0.2-0.1-0.1,0.4-0.2l0.4-0.1c1.3-0.2,3.2-0.1,4.4,0.4c0.2,0.1,0.5,0.2,0.6,0.4c0.4,0.5,0.1,0.6,0,0.7c-0.3,0.2-3.7,0-4.5,0.1
			c-2,0.2-2.6,0.5-4,0.8l0.1-0.1c-0.2,0.1-0.5,0.3-0.8,0.3c-0.9,0.3-1.8,0.6-2.4,1.3c-0.1,0.2-0.1,0.2-0.3,0.4
			c-0.7,0.7-1.2,1.6-1.7,2.5c-0.1,0.3-0.3,0.6-0.4,0.9c-0.2,0.3-0.3,0.3-0.5,0.7c-0.3,0.5-0.6,1-1,1.4c-0.7,0.7-0.5,0.6-0.8,1.6
			C8.4,44.5,8,44.7,8,45.7C9,45.6,9,45.2,9.6,45l3.1-1.3c2-0.6,6.2-0.4,8.1,0.1c0.5,0.1,0.9,0.5,1.4,0.7c0.7,0.3,0.9,0.3,1.4,0.8
			c0.7,0.6,0.9,0.3,2.5,2c0.4,0.3,0.8,0.6,1.2,1c0.4,0.4,1,0.7,1.4,1.2c0.1,0.1,0.1,0.1,0.1,0.2l0.5,0.5c0.8,0.7,1.3,2.2,1.7,3.2
			c0.5,1.2,1,2,1,3.5c0,0.8,0.1,1.3,0.1,2.1l-0.2,3.3c-0.4,2-0.3,2.2-1.3,3.9l-1.6,2.6c-0.6,0.6-2,2.1-2.6,2.4
			c-0.4,0.2-1,0.7-1.4,0.8c-0.3,0.1-0.6,0.1-0.9,0.3c-0.6,0.3-1,0.5-1.7,0.5c-0.6,0.1-1.1,0.3-1.7,0.5c-1.3,0.4-1.4,0.3-2.9,0.2
			v-0.1c-1.4-0.1-2.9-0.4-4.3-0.4c-0.7,0-1.3-0.2-1.9-0.5c-1.7-0.8-3.5-0.5-5.2-1.6l-2.2-1.9c-0.1-0.1-0.1,0-0.2,0
			c0,0-0.1,0.1-0.1,0C4,68.2,4,75,4.1,76.4C4.1,77.1,4.1,76.9,4.3,77.4z M71.9,41.9C72,41.8,71.7,42.1,71.9,41.9z M73.5,78
			c1.4,1.4,0.8,5-0.2,6.8c-0.2,0.4-0.5,1.9-1,2.8l-0.3,0.4c-0.2,0.2-0.3,0.3-0.7,0.3c-0.3-0.5-0.2-0.7-0.1-1.4
			c0.1-0.4,0.1-0.3,0.2-0.7c0.2-0.8,0.1-0.6,0.4-0.7v0c0,0,0.3-1.2,0.6-1.8c0.3-0.7,0.5-0.5,0.5-1.9c0-0.9,0.1-1.5-0.2-2.2
			c-0.2-0.4-0.7-1.2-1-1.4c-0.5,0-1.2,0-1.6,0.1c-1.6,0.5-0.8,0.3-1.7,0.9c-1.6,0.9-0.6,0.5-1.4,1c-0.4,0.3-0.7,0.4-1,0.7
			c-0.4,0.3-0.1,0.2-0.7,0.7l-0.2,0.1c-0.5,0.4-0.4,0.4-0.8,0.9c-0.3,0.3-0.5,0.6-1,0.6l0.1-0.9c0.1-0.5,0.2-0.5,0.5-0.9
			c0.5-0.6,1.4-1.6,2.1-2c0.6-0.3,0.6-0.7,1.3-1c1.3-0.5,1.3-1,2.6-1.3c1.2-0.3,2.6-0.2,3.1,0.6C73.2,77.8,73.2,77.7,73.5,78z
			 M32.3,96.3c1.7,0.7,5.6,0.6,7.7,0.6L40,97c1.2,0,3.9,0,5-0.2c1.8-0.5,4.8-0.8,6.4-1.4c0.3-0.1,0.1-0.1,0.5-0.2
			c0.2-0.1,0.3-0.1,0.5-0.1l2.7-1.2c0.5-0.3,0.5-0.2,1-0.3l2.7-1.3c0.6-0.4,1-0.7,1.6-0.9c0.5-0.2,0.5-0.2,0.9-0.5
			c0.3-0.2,1.3-0.5,2.4-1.4c0.4-0.4,0.9-1,1.3-1.4c1.7-2,1.4-2.7,1.8-3.3c0.7-1.1,1-0.7,1.6-0.5c0.1,0.6,0.1,0.7-0.3,1.1
			c-0.5,0.6-1.2,2.8-1.8,3.4c-0.9,0.9-0.3,0.6-1.9,1.9c-0.3,0.3-0.5,0.3-0.8,0.6c-0.4,0.4-1,0.7-1.6,0.9c-0.4,0.2-0.5,0.3-0.8,0.5
			c-0.2,0.2-2.9,1.2-3.5,1.6c-0.7,0.5-2.8,1.2-3.7,1.5c-0.6,0.2-1.4,0.3-2,0.7L50.1,97c-0.7,0.2-1.5,0.3-2.2,0.5
			c-2.7,0.7-8.2,0.8-11.5,0.6c-2-0.1-2.5-0.2-4.3-0.7L30,96.9c-0.7-0.2-1.2-0.5-1.8-0.7c-0.5-0.2-1.3-0.5-1.8-0.8
			c-0.3-0.2-0.5-0.3-0.8-0.5c-0.3-0.2-0.5-0.2-0.9-0.4c-1.6-1-1.2-1.9-0.1-1c0.3,0.3,0.5,0.2,0.8,0.4c0.6,0.2,0.9,0.7,1.5,0.8
			c1.6,0.5,2.6,1,3.4,1.2C31,96,31.7,96.2,32.3,96.3z M20.2,96.2c0.3,0.4,0.3,0.4,0.3,1h0c-0.4,0-0.8-0.3-1-0.6
			c-0.1-0.1-0.5-0.9-0.6-1c-0.7-1.5,0.3-4.2,0.9-5c1-1.3,1-1.3,2-1.2c0.1,1.2-1,0-1.9,3.4C19.5,94.4,19.6,95.1,20.2,96.2z
			 M71.9,41.9c-0.9,0.4-1.2-1.4-1.6-2.8h0.1c0.1-0.3-0.1-0.4-0.3-0.6c-0.5-0.5-1.2-1.2-1.6-1.4c-0.5-0.1-1.2-0.6-1.7-0.9
			c-0.5-0.3-0.4-0.3-0.8-0.5l-1.7-0.7c-1.4-0.7-2.1-0.2-2.4-0.2c-1,0.1-1-1.2,1.1-1.4c0.8-0.1,2.2,0.3,2.7,0.5l0.2,0.1
			c0,0,0.1,0,0.1,0c0.9,0.3,1.3,0.7,1.9,1c1.1,0.5,0.7,0.6,1.5,1c1.2,0.8,1,0.8,1.8,1.5c1.2,1.3,1.6,3.7,0.9,4.3
			C71.9,41.8,71.9,41.8,71.9,41.9C71.9,41.9,71.9,41.9,71.9,41.9z"/>
		<path class="st3" d="M3.3,51.9c-0.4,0.5-0.9,2.3-1.4,3.1c-0.2,0.3-0.3,0.6-0.3,1c-0.1,0.9-0.2,1.6-0.2,2.6l0-0.1
			c0,5.1,0.5,3.8,1.6,6.2c0.3,0.6,0.5,0.7,0.8,1.2c0.4,0.7,1.2,1.4,1.9,2c2.2,2,0.9,1.5,3.7,2.2C9.7,70,9.4,70,9.9,70.2
			c0.3,0.1,0.5,0.1,0.8,0.2c0.4,0.1,0.2,0.2,0.6,0.3c0.3,0.1,0.6,0.1,1,0.1c1.6,0.2,1.2,0.5,3.2,0.6c4,0.1,3.8,0.8,8.1-0.7
			c0.4-0.1,0.6-0.1,0.9-0.4c0.9-0.6,1.6-0.8,2.3-1.5c0.3-0.3,0.6-0.4,0.7-0.5c0.3-0.3,0-0.3,0.5-0.8c0.4-0.3,0.9-0.9,1.1-1.4
			c0.3-0.8,1.5-3,1.5-3.7c0.2-1.9,0.5-5.4-0.1-7.1c-0.1-0.4-0.3-0.4-0.5-0.8c-0.2-0.3-0.2-0.7-0.3-1c-0.9-2.4-0.5-1.4-1.9-3.2
			c-0.2-0.3-0.3-0.5-0.6-0.7c-0.1-0.1-0.3-0.1-0.4-0.2l-1.1-0.8c-0.3-0.2-0.6-0.3-0.9-0.5c-0.6-0.5-0.4-0.6-1.4-1.2
			c-1-0.6-0.6-0.8-2.3-1.5c-1.1-0.4-0.5-0.7-3-0.8c-2.4-0.1-4.6-0.4-6.8,0.7c-1,0.5-2.5,1.2-3.4,1.8c-0.6,0.5-1.6,1.1-2.2,1.7
			c-1.2,1.4-1.4,0.6-2.1,1.8C3.5,51.4,3.8,51.3,3.3,51.9z M17.5,58.2c0.1,1.1-0.2,0.7-0.3,1.3c0.4,0.9,1.2,0.7-0.5,1.8
			c-0.6,0.4-0.8,0.3-1.5,0.1c-0.8-0.2-0.6,0.1-1.3,0.1c-1.1,0-1-1.5-0.7-2.3c0.1-0.4,1-1.4,1.3-1.9c1.5-0.1,0.5,0.6,1.5,0.6
			C16.9,57.8,16.9,57.5,17.5,58.2z"/>
		<path class="st3" d="M46.5,52.2l-0.3,0.5c-0.9,1.4-1.5,4.6-1.1,6.6l0.1-0.1c0.2,1,0.3,2,0.5,3c0.3,1.5,0.3,2.9,1.2,4.1
			c0.2,0.2,0.2,0.2,0.5,0.3s0.1,0.1,0.3,0.2l2,2c0.3,0.4,0.5,0.6,0.9,0.9c1,0.6,3.5,0.8,4.3,1c2.1,0.5,1.2,0.2,3.2,0.3
			c1,0,2,0.3,3.1,0.3c0.7,0,1-0.1,1.6-0.2c1.4-0.1,2.9-0.3,4.2-1c1-0.5,1.6-0.2,2.5-1c0.3-0.3,0.6-0.5,1-0.7
			c2.1-1.4,1.2-1.9,2.4-2.9l0.1-0.1c0.3-0.3,0.3-0.7,0.4-1c0.2-0.8,0.2-0.6,0.4-1.2c0.3-1.2,0.7-1.2,0.6-2.8c0-1.1,0.1-2.3,0-3.4
			c0-0.8-0.2-0.2-0.2-1.6c0-1,0-1.3-0.6-2c-0.5-0.5,0-0.1-0.4-0.9s-0.4-0.7-0.9-1.3c-0.2-0.2-0.2-0.3-0.4-0.4
			c-0.1-0.1-0.3-0.2-0.3-0.2L69.6,49c-0.3-0.3-0.7-0.4-1-0.7c-0.6-0.5-0.1-0.4-1.1-0.7c-0.9-0.3-0.5-0.2-1-0.7
			c-0.3-0.3-0.9-0.3-1.4-0.5c-0.6-0.2-0.6-0.3-1-0.7c-0.4-0.2-0.9-0.3-1.3-0.5c-0.3-0.2-0.8-0.5-1.1-0.6c-2.2-0.5-5,0.7-6.1,0.7
			c-0.7,0.1-0.9,0.1-1.4,0.4l-2.2,1.3c-0.5,0.3-1.5,0.9-2.1,1.3c-0.9,0.7-0.6,0.1-1,0.7c-0.5,0.7-0.5,0.3-0.9,0.9
			c-0.1,0.2-0.2,0.3-0.4,0.5C46.7,51.6,47.3,50.7,46.5,52.2z M55.6,59.3c0-0.8,0.1-1.4,1.1-1.4c2.3-0.1,0.9-0.4,3,0.2
			c0.1,0.6,0.2,1,0.3,1.6c0.1,0.8,0.5,0.3,0.3,1.5c-0.2,0.1-0.5,0.3-0.7,0.5c-0.8,0.7-0.4,0.8-1.7,0.2c-1.2-0.5-0.5,0.1-1.6-1
			c-0.7-0.7-0.5-0.4-0.5-0.7C55.6,59.9,55.6,59.7,55.6,59.3z"/>
	</g>
</g>
</svg>
