<?xml version="1.0" encoding="utf-8"?>
<svg xmlns="http://www.w3.org/2000/svg" xmlns:xlink="http://www.w3.org/1999/xlink" style="margin: auto; display: block; z-index: 1; position: relative; shape-rendering: auto; background: none;" width="1480" height="760" preserveAspectRatio="xMidYMid" viewBox="0 0 1480 760">
<g transform="translate(740,380) scale(1,1) translate(-740,-380)"><linearGradient id="lg-0.6785709014418364" x1="0" x2="1" y1="0" y2="0">
  <stop stop-color="#34c311" offset="0"></stop>
  <stop stop-color="#62ff00" offset="1"></stop>
</linearGradient><path d="M 1155 380 C 1155 432 1145 554 1119 599 C 1093 644 954 646 909 672 C 864 698 792 706 740 706 C 688 706 600 726 555 700 C 510 674 390 642 364 597 C 338 552 305 432 305 380 C 305 328 355 217 381 172 C 407 127 523 108 568 82 C 613 56 688 126 740 126 C 792 126 864 61 909 87 C 954 113 1122 99 1148 144 C 1174 189 1155 328 1155 380" fill="url(#lg-0.6785709014418364)" opacity="0.4">
  <animate attributeName="d" dur="6.666666666666666s" repeatCount="indefinite" keyTimes="0;0.3333333333333333;0.6666666666666666;1" calcmod="spline" keySplines="0.3 0.1 0.7 0.9;0.3 0.1 0.7 0.9;0.3 0.1 0.7 0.9" begin="-2.6666666666666665s" values="M 1155 380 C 1155 432 1145 554 1119 599 C 1093 644 954 646 909 672 C 864 698 792 706 740 706 C 688 706 600 726 555 700 C 510 674 390 642 364 597 C 338 552 305 432 305 380 C 305 328 355 217 381 172 C 407 127 523 108 568 82 C 613 56 688 126 740 126 C 792 126 864 61 909 87 C 954 113 1122 99 1148 144 C 1174 189 1155 328 1155 380;M 1182 380 C 1182 432 1140 551 1114 596 C 1088 641 948 636 903 662 C 858 688 792 687 740 687 C 688 687 612 706 567 680 C 522 654 364 657 338 612 C 312 567 311 432 311 380 C 311 328 331 204 357 159 C 383 114 526 113 571 87 C 616 61 688 127 740 127 C 792 127 872 47 917 73 C 962 99 1074 127 1100 172 C 1126 217 1182 328 1182 380;M 1160 380 C 1160 425 1043 503 1020 542 C 997 581 947 648 908 671 C 869 694 785 581 740 581 C 695 581 602 709 563 686 C 524 663 455 597 432 558 C 409 519 351 425 351 380 C 351 335 371 219 393 180 C 415 141 559 158 598 135 C 637 112 695 141 740 141 C 785 141 880 47 919 70 C 958 93 1062 143 1084 182 C 1106 221 1160 335 1160 380;M 1155 380 C 1155 432 1145 554 1119 599 C 1093 644 954 646 909 672 C 864 698 792 706 740 706 C 688 706 600 726 555 700 C 510 674 390 642 364 597 C 338 552 305 432 305 380 C 305 328 355 217 381 172 C 407 127 523 108 568 82 C 613 56 688 126 740 126 C 792 126 864 61 909 87 C 954 113 1122 99 1148 144 C 1174 189 1155 328 1155 380"></animate>
</path><path d="M 1093 380 C 1093 422 1017 492 996 528 C 975 564 911 593 875 614 C 839 635 782 640 740 640 C 698 640 644 629 608 608 C 572 587 438 603 417 567 C 396 531 421 422 421 380 C 421 338 454 263 475 227 C 496 191 545 125 581 104 C 617 83 698 132 740 132 C 782 132 857 95 893 116 C 929 137 1042 157 1063 193 C 1084 229 1093 338 1093 380" fill="url(#lg-0.6785709014418364)" opacity="0.4">
  <animate attributeName="d" dur="6.666666666666666s" repeatCount="indefinite" keyTimes="0;0.3333333333333333;0.6666666666666666;1" calcmod="spline" keySplines="0.3 0.1 0.7 0.9;0.3 0.1 0.7 0.9;0.3 0.1 0.7 0.9" begin="-2.6666666666666665s" values="M 1093 380 C 1093 422 1017 492 996 528 C 975 564 911 593 875 614 C 839 635 782 640 740 640 C 698 640 644 629 608 608 C 572 587 438 603 417 567 C 396 531 421 422 421 380 C 421 338 454 263 475 227 C 496 191 545 125 581 104 C 617 83 698 132 740 132 C 782 132 857 95 893 116 C 929 137 1042 157 1063 193 C 1084 229 1093 338 1093 380;M 1114 380 C 1114 422 1071 523 1050 559 C 1029 595 937 638 901 659 C 865 680 782 611 740 611 C 698 611 612 685 576 664 C 540 643 466 586 445 550 C 424 514 359 422 359 380 C 359 338 420 243 441 207 C 462 171 547 128 583 107 C 619 86 698 116 740 116 C 782 116 833 136 869 157 C 905 178 999 182 1020 218 C 1041 254 1114 338 1114 380;M 1187 380 C 1187 431 1132 547 1106 591 C 1080 635 951 643 907 669 C 863 695 791 667 740 667 C 689 667 601 722 557 696 C 513 670 375 650 349 606 C 323 562 295 431 295 380 C 295 329 362 221 388 177 C 414 133 537 130 581 104 C 625 78 689 145 740 145 C 791 145 881 34 925 60 C 969 86 1030 154 1056 198 C 1082 242 1187 329 1187 380;M 1093 380 C 1093 422 1017 492 996 528 C 975 564 911 593 875 614 C 839 635 782 640 740 640 C 698 640 644 629 608 608 C 572 587 438 603 417 567 C 396 531 421 422 421 380 C 421 338 454 263 475 227 C 496 191 545 125 581 104 C 617 83 698 132 740 132 C 782 132 857 95 893 116 C 929 137 1042 157 1063 193 C 1084 229 1093 338 1093 380"></animate>
</path><path d="M 1216 380 C 1216 438 1171 562 1142 612 C 1113 662 993 702 943 731 C 893 760 798 641 740 641 C 682 641 601 737 551 708 C 501 679 361 666 332 616 C 303 566 293 438 293 380 C 293 322 340 216 369 166 C 398 116 478 42 528 13 C 578 -16 682 89 740 89 C 798 89 873 33 923 62 C 973 91 1156 73 1185 123 C 1214 173 1216 322 1216 380" fill="url(#lg-0.6785709014418364)" opacity="0.4">
  <animate attributeName="d" dur="6.666666666666666s" repeatCount="indefinite" keyTimes="0;0.3333333333333333;0.6666666666666666;1" calcmod="spline" keySplines="0.3 0.1 0.7 0.9;0.3 0.1 0.7 0.9;0.3 0.1 0.7 0.9" begin="-2.6666666666666665s" values="M 1216 380 C 1216 438 1171 562 1142 612 C 1113 662 993 702 943 731 C 893 760 798 641 740 641 C 682 641 601 737 551 708 C 501 679 361 666 332 616 C 303 566 293 438 293 380 C 293 322 340 216 369 166 C 398 116 478 42 528 13 C 578 -16 682 89 740 89 C 798 89 873 33 923 62 C 973 91 1156 73 1185 123 C 1214 173 1216 322 1216 380;M 1051 380 C 1051 422 1029 499 1008 535 C 987 571 902 577 866 598 C 830 619 782 576 740 576 C 698 576 645 628 609 607 C 573 586 501 566 480 530 C 459 494 371 422 371 380 C 371 338 442 256 463 220 C 484 184 551 136 587 115 C 623 94 698 137 740 137 C 782 137 854 100 890 121 C 926 142 1049 154 1070 190 C 1091 226 1051 338 1051 380;M 1096 380 C 1096 419 1004 487 984 521 C 964 555 900 579 866 599 C 832 619 779 628 740 628 C 701 628 620 667 586 647 C 552 627 509 559 489 525 C 469 491 437 419 437 380 C 437 341 457 262 477 228 C 497 194 550 130 584 110 C 618 90 701 204 740 204 C 779 204 834 137 868 157 C 902 177 1024 170 1044 204 C 1064 238 1096 341 1096 380;M 1216 380 C 1216 438 1171 562 1142 612 C 1113 662 993 702 943 731 C 893 760 798 641 740 641 C 682 641 601 737 551 708 C 501 679 361 666 332 616 C 303 566 293 438 293 380 C 293 322 340 216 369 166 C 398 116 478 42 528 13 C 578 -16 682 89 740 89 C 798 89 873 33 923 62 C 973 91 1156 73 1185 123 C 1214 173 1216 322 1216 380"></animate>
</path><path d="M 1177 380 C 1177 427 1121 545 1098 586 C 1075 627 949 648 908 671 C 867 694 787 616 740 616 C 693 616 599 718 558 695 C 517 672 447 603 424 562 C 401 521 302 427 302 380 C 302 333 419 249 442 208 C 465 167 559 162 600 138 C 641 114 693 142 740 142 C 787 142 840 112 881 136 C 922 160 1041 151 1065 192 C 1089 233 1177 333 1177 380" fill="url(#lg-0.6785709014418364)" opacity="0.4">
  <animate attributeName="d" dur="6.666666666666666s" repeatCount="indefinite" keyTimes="0;0.3333333333333333;0.6666666666666666;1" calcmod="spline" keySplines="0.3 0.1 0.7 0.9;0.3 0.1 0.7 0.9;0.3 0.1 0.7 0.9" begin="-2.6666666666666665s" values="M 1177 380 C 1177 427 1121 545 1098 586 C 1075 627 949 648 908 671 C 867 694 787 616 740 616 C 693 616 599 718 558 695 C 517 672 447 603 424 562 C 401 521 302 427 302 380 C 302 333 419 249 442 208 C 465 167 559 162 600 138 C 641 114 693 142 740 142 C 787 142 840 112 881 136 C 922 160 1041 151 1065 192 C 1089 233 1177 333 1177 380;M 1235 380 C 1235 436 1139 545 1111 594 C 1083 643 961 650 912 678 C 863 706 796 717 740 717 C 684 717 576 777 527 749 C 478 721 411 635 383 586 C 355 537 295 436 295 380 C 295 324 343 216 371 167 C 399 118 491 61 540 33 C 589 5 684 121 740 121 C 796 121 890 6 939 34 C 988 62 1091 112 1119 161 C 1147 210 1235 324 1235 380;M 1221 380 C 1221 432 1165 565 1139 610 C 1113 655 964 665 919 691 C 874 717 792 711 740 711 C 688 711 587 750 542 724 C 497 698 370 654 344 609 C 318 564 348 432 348 380 C 348 328 357 219 383 174 C 409 129 506 79 551 53 C 596 27 688 65 740 65 C 792 65 880 34 925 60 C 970 86 1066 132 1092 177 C 1118 222 1221 328 1221 380;M 1177 380 C 1177 427 1121 545 1098 586 C 1075 627 949 648 908 671 C 867 694 787 616 740 616 C 693 616 599 718 558 695 C 517 672 447 603 424 562 C 401 521 302 427 302 380 C 302 333 419 249 442 208 C 465 167 559 162 600 138 C 641 114 693 142 740 142 C 787 142 840 112 881 136 C 922 160 1041 151 1065 192 C 1089 233 1177 333 1177 380"></animate>
</path><path d="M 1118 380 C 1118 421 1072 523 1051 559 C 1030 595 907 586 871 607 C 835 628 781 606 740 606 C 699 606 613 684 577 663 C 541 642 466 586 445 550 C 424 514 350 421 350 380 C 350 339 431 250 452 214 C 473 178 575 178 611 157 C 647 136 699 138 740 138 C 781 138 861 86 897 107 C 933 128 989 188 1010 224 C 1031 260 1118 339 1118 380" fill="url(#lg-0.6785709014418364)" opacity="0.4">
  <animate attributeName="d" dur="6.666666666666666s" repeatCount="indefinite" keyTimes="0;0.3333333333333333;0.6666666666666666;1" calcmod="spline" keySplines="0.3 0.1 0.7 0.9;0.3 0.1 0.7 0.9;0.3 0.1 0.7 0.9" begin="-2.6666666666666665s" values="M 1118 380 C 1118 421 1072 523 1051 559 C 1030 595 907 586 871 607 C 835 628 781 606 740 606 C 699 606 613 684 577 663 C 541 642 466 586 445 550 C 424 514 350 421 350 380 C 350 339 431 250 452 214 C 473 178 575 178 611 157 C 647 136 699 138 740 138 C 781 138 861 86 897 107 C 933 128 989 188 1010 224 C 1031 260 1118 339 1118 380;M 1128 380 C 1128 430 1086 521 1061 565 C 1036 609 982 699 938 724 C 894 749 790 681 740 681 C 690 681 586 748 542 723 C 498 698 398 636 373 592 C 348 548 324 430 324 380 C 324 330 352 215 377 171 C 402 127 548 149 592 124 C 636 99 690 135 740 135 C 790 135 895 10 939 35 C 983 60 1037 150 1062 194 C 1087 238 1128 330 1128 380;M 1046 380 C 1046 420 1052 514 1032 549 C 1012 584 905 585 870 605 C 835 625 780 596 740 596 C 700 596 625 659 590 639 C 555 619 504 563 484 528 C 464 493 375 420 375 380 C 375 340 419 241 439 206 C 459 171 576 177 611 157 C 646 137 700 168 740 168 C 780 168 852 105 887 125 C 922 145 1029 166 1049 201 C 1069 236 1046 340 1046 380;M 1118 380 C 1118 421 1072 523 1051 559 C 1030 595 907 586 871 607 C 835 628 781 606 740 606 C 699 606 613 684 577 663 C 541 642 466 586 445 550 C 424 514 350 421 350 380 C 350 339 431 250 452 214 C 473 178 575 178 611 157 C 647 136 699 138 740 138 C 781 138 861 86 897 107 C 933 128 989 188 1010 224 C 1031 260 1118 339 1118 380"></animate>
</path></g>
</svg>