<?xml version="1.0" encoding="utf-8"?>
<svg xmlns="http://www.w3.org/2000/svg" xmlns:xlink="http://www.w3.org/1999/xlink" style="margin: auto; background: none; display: block; shape-rendering: auto;" width="249px" height="249px" viewBox="0 0 100 100" preserveAspectRatio="xMidYMid">
<defs>
  <path id="path" d="M50 15A10 35 0 0 1 50 85A10 35 0 0 1 50 15" fill="none"></path>
  <path id="patha" d="M0 0A10 35 0 0 1 0 70A10 35 0 0 1 0 0" fill="none"></path>
</defs><g transform="rotate(0 50 50)">
<use xlink:href="#path" stroke="#ffffff" stroke-width="2"></use>
</g><g transform="rotate(60 50 50)">
<use xlink:href="#path" stroke="#ffffff" stroke-width="2"></use>
</g><g transform="rotate(120 50 50)">
<use xlink:href="#path" stroke="#ffffff" stroke-width="2"></use>
</g><g transform="rotate(0 50 50)">
<circle cx="50" cy="15" r="6" fill="#87ff04">
  <animateMotion dur="1s" repeatCount="indefinite" begin="0s">
    <mpath xlink:href="#patha"></mpath>
  </animateMotion>
</circle>
</g><g transform="rotate(60 50 50)">
<circle cx="50" cy="15" r="6" fill="#68c57c">
  <animateMotion dur="1s" repeatCount="indefinite" begin="-0.16666666666666666s">
    <mpath xlink:href="#patha"></mpath>
  </animateMotion>
</circle>
</g><g transform="rotate(120 50 50)">
<circle cx="50" cy="15" r="6" fill="#5e6fa3">
  <animateMotion dur="1s" repeatCount="indefinite" begin="-0.3333333333333333s">
    <mpath xlink:href="#patha"></mpath>
  </animateMotion>
</circle>
</g>
<!-- [ldio] generated by https://loading.io/ --></svg>